ISO-10303-21;
HEADER;
/* Generated by software containing ST-Developer
 * from STEP Tools, Inc. (www.steptools.com) 
 */
/* OPTION: using custom renumber hook */

FILE_DESCRIPTION(
/* description */ ('STEP AP242 Edition 2',
'CAx-IF Rec.Pracs.---Representation and Presentation of Product Manufa
cturing Information (PMI)---4.0---2014-10-13',
'CAx-IF Rec.Pracs.---3D Tessellated Geometry---0.4---2014-09-14','2;1',
'CAx-IF Rec.Pracs.---User Defined Attributes---1.5---2016-08-15'),
/* implementation_level */ '2;1');

FILE_NAME(
/* name */ 'Part Studio 1',
/* time_stamp */ '2026-05-24T20:13:22Z',
/* author */ (''),
/* organization */ (''),
/* preprocessor_version */ 'ST-DEVELOPER v20',
/* originating_system */ 'ONSHAPE BY PTC INC, 1.215',
/* authorisation */ '  ');

FILE_SCHEMA (('AP242_MANAGED_MODEL_BASED_3D_ENGINEERING_MIM_LF { 1 0 10303 442 3 1 4 }'));
ENDSEC;

DATA;
#10=SHAPE_REPRESENTATION_RELATIONSHIP('','',#959,#13);
#11=SHAPE_REPRESENTATION_RELATIONSHIP('','',#960,#14);
#12=SHAPE_REPRESENTATION_RELATIONSHIP('','',#961,#15);
#13=ADVANCED_BREP_SHAPE_REPRESENTATION('',(#953),#1605);
#14=ADVANCED_BREP_SHAPE_REPRESENTATION('',(#954),#1606);
#15=ADVANCED_BREP_SHAPE_REPRESENTATION('',(#955),#1607);
#16=PLANE('',#966);
#17=PLANE('',#970);
#18=PLANE('',#974);
#19=PLANE('',#981);
#20=PLANE('',#985);
#21=PLANE('',#989);
#22=PLANE('',#993);
#23=PLANE('',#994);
#24=PLANE('',#995);
#25=PLANE('',#996);
#26=PLANE('',#998);
#27=PLANE('',#1002);
#28=PLANE('',#1009);
#29=PLANE('',#1016);
#30=PLANE('',#1020);
#31=PLANE('',#1024);
#32=PLANE('',#1028);
#33=PLANE('',#1029);
#34=PLANE('',#1030);
#35=PLANE('',#1031);
#36=PLANE('',#1032);
#37=PLANE('',#1033);
#38=PLANE('',#1034);
#39=PLANE('',#1036);
#40=PLANE('',#1040);
#41=PLANE('',#1044);
#42=PLANE('',#1048);
#43=PLANE('',#1052);
#44=PLANE('',#1053);
#45=LINE('',#1335,#137);
#46=LINE('',#1339,#138);
#47=LINE('',#1341,#139);
#48=LINE('',#1343,#140);
#49=LINE('',#1345,#141);
#50=LINE('',#1351,#142);
#51=LINE('',#1353,#143);
#52=LINE('',#1355,#144);
#53=LINE('',#1357,#145);
#54=LINE('',#1363,#146);
#55=LINE('',#1365,#147);
#56=LINE('',#1367,#148);
#57=LINE('',#1369,#149);
#58=LINE('',#1375,#150);
#59=LINE('',#1380,#151);
#60=LINE('',#1384,#152);
#61=LINE('',#1386,#153);
#62=LINE('',#1388,#154);
#63=LINE('',#1390,#155);
#64=LINE('',#1396,#156);
#65=LINE('',#1398,#157);
#66=LINE('',#1400,#158);
#67=LINE('',#1402,#159);
#68=LINE('',#1408,#160);
#69=LINE('',#1410,#161);
#70=LINE('',#1412,#162);
#71=LINE('',#1414,#163);
#72=LINE('',#1420,#164);
#73=LINE('',#1422,#165);
#74=LINE('',#1423,#166);
#75=LINE('',#1425,#167);
#76=LINE('',#1426,#168);
#77=LINE('',#1431,#169);
#78=LINE('',#1434,#170);
#79=LINE('',#1436,#171);
#80=LINE('',#1438,#172);
#81=LINE('',#1440,#173);
#82=LINE('',#1442,#174);
#83=LINE('',#1444,#175);
#84=LINE('',#1446,#176);
#85=LINE('',#1451,#177);
#86=LINE('',#1455,#178);
#87=LINE('',#1457,#179);
#88=LINE('',#1459,#180);
#89=LINE('',#1461,#181);
#90=LINE('',#1468,#182);
#91=LINE('',#1472,#183);
#92=LINE('',#1474,#184);
#93=LINE('',#1476,#185);
#94=LINE('',#1480,#186);
#95=LINE('',#1487,#187);
#96=LINE('',#1491,#188);
#97=LINE('',#1493,#189);
#98=LINE('',#1495,#190);
#99=LINE('',#1497,#191);
#100=LINE('',#1501,#192);
#101=LINE('',#1505,#193);
#102=LINE('',#1507,#194);
#103=LINE('',#1509,#195);
#104=LINE('',#1513,#196);
#105=LINE('',#1517,#197);
#106=LINE('',#1519,#198);
#107=LINE('',#1521,#199);
#108=LINE('',#1523,#200);
#109=LINE('',#1525,#201);
#110=LINE('',#1527,#202);
#111=LINE('',#1529,#203);
#112=LINE('',#1533,#204);
#113=LINE('',#1537,#205);
#114=LINE('',#1538,#206);
#115=LINE('',#1540,#207);
#116=LINE('',#1541,#208);
#117=LINE('',#1544,#209);
#118=LINE('',#1545,#210);
#119=LINE('',#1547,#211);
#120=LINE('',#1549,#212);
#121=LINE('',#1553,#213);
#122=LINE('',#1556,#214);
#123=LINE('',#1558,#215);
#124=LINE('',#1560,#216);
#125=LINE('',#1566,#217);
#126=LINE('',#1568,#218);
#127=LINE('',#1570,#219);
#128=LINE('',#1572,#220);
#129=LINE('',#1578,#221);
#130=LINE('',#1580,#222);
#131=LINE('',#1582,#223);
#132=LINE('',#1584,#224);
#133=LINE('',#1590,#225);
#134=LINE('',#1592,#226);
#135=LINE('',#1594,#227);
#136=LINE('',#1596,#228);
#137=VECTOR('',#1060,1000.);
#138=VECTOR('',#1063,1000.);
#139=VECTOR('',#1066,1000.);
#140=VECTOR('',#1067,1000.);
#141=VECTOR('',#1068,1000.);
#142=VECTOR('',#1075,1000.);
#143=VECTOR('',#1078,1000.);
#144=VECTOR('',#1079,1000.);
#145=VECTOR('',#1080,1000.);
#146=VECTOR('',#1087,1000.);
#147=VECTOR('',#1090,1000.);
#148=VECTOR('',#1091,1000.);
#149=VECTOR('',#1092,1000.);
#150=VECTOR('',#1099,1000.);
#151=VECTOR('',#1104,1000.);
#152=VECTOR('',#1107,1000.);
#153=VECTOR('',#1110,1000.);
#154=VECTOR('',#1111,1000.);
#155=VECTOR('',#1112,1000.);
#156=VECTOR('',#1119,1000.);
#157=VECTOR('',#1122,1000.);
#158=VECTOR('',#1123,1000.);
#159=VECTOR('',#1124,1000.);
#160=VECTOR('',#1131,1000.);
#161=VECTOR('',#1134,1000.);
#162=VECTOR('',#1135,1000.);
#163=VECTOR('',#1136,1000.);
#164=VECTOR('',#1143,1000.);
#165=VECTOR('',#1146,1000.);
#166=VECTOR('',#1147,1000.);
#167=VECTOR('',#1150,1000.);
#168=VECTOR('',#1151,1000.);
#169=VECTOR('',#1160,1000.);
#170=VECTOR('',#1161,1000.);
#171=VECTOR('',#1162,1000.);
#172=VECTOR('',#1163,1000.);
#173=VECTOR('',#1164,1000.);
#174=VECTOR('',#1165,1000.);
#175=VECTOR('',#1166,1000.);
#176=VECTOR('',#1167,1000.);
#177=VECTOR('',#1172,1000.);
#178=VECTOR('',#1175,1000.);
#179=VECTOR('',#1178,1000.);
#180=VECTOR('',#1179,1000.);
#181=VECTOR('',#1180,1000.);
#182=VECTOR('',#1191,1000.);
#183=VECTOR('',#1196,1000.);
#184=VECTOR('',#1197,1000.);
#185=VECTOR('',#1198,1000.);
#186=VECTOR('',#1203,1000.);
#187=VECTOR('',#1210,1000.);
#188=VECTOR('',#1213,1000.);
#189=VECTOR('',#1216,1000.);
#190=VECTOR('',#1217,1000.);
#191=VECTOR('',#1218,1000.);
#192=VECTOR('',#1223,1000.);
#193=VECTOR('',#1228,1000.);
#194=VECTOR('',#1229,1000.);
#195=VECTOR('',#1230,1000.);
#196=VECTOR('',#1235,1000.);
#197=VECTOR('',#1240,1000.);
#198=VECTOR('',#1241,1000.);
#199=VECTOR('',#1242,1000.);
#200=VECTOR('',#1243,1000.);
#201=VECTOR('',#1244,1000.);
#202=VECTOR('',#1245,1000.);
#203=VECTOR('',#1246,1000.);
#204=VECTOR('',#1251,1000.);
#205=VECTOR('',#1256,1000.);
#206=VECTOR('',#1257,1000.);
#207=VECTOR('',#1260,1000.);
#208=VECTOR('',#1261,1000.);
#209=VECTOR('',#1266,1000.);
#210=VECTOR('',#1267,1000.);
#211=VECTOR('',#1270,1000.);
#212=VECTOR('',#1273,1000.);
#213=VECTOR('',#1280,1000.);
#214=VECTOR('',#1281,1000.);
#215=VECTOR('',#1282,1000.);
#216=VECTOR('',#1283,1000.);
#217=VECTOR('',#1290,1000.);
#218=VECTOR('',#1293,1000.);
#219=VECTOR('',#1294,1000.);
#220=VECTOR('',#1295,1000.);
#221=VECTOR('',#1302,1000.);
#222=VECTOR('',#1305,1000.);
#223=VECTOR('',#1306,1000.);
#224=VECTOR('',#1307,1000.);
#225=VECTOR('',#1314,1000.);
#226=VECTOR('',#1317,1000.);
#227=VECTOR('',#1318,1000.);
#228=VECTOR('',#1319,1000.);
#229=ORIENTED_EDGE('',*,*,#493,.T.);
#230=ORIENTED_EDGE('',*,*,#494,.F.);
#231=ORIENTED_EDGE('',*,*,#495,.F.);
#232=ORIENTED_EDGE('',*,*,#496,.T.);
#233=ORIENTED_EDGE('',*,*,#497,.T.);
#234=ORIENTED_EDGE('',*,*,#496,.F.);
#235=ORIENTED_EDGE('',*,*,#498,.F.);
#236=ORIENTED_EDGE('',*,*,#499,.T.);
#237=ORIENTED_EDGE('',*,*,#500,.T.);
#238=ORIENTED_EDGE('',*,*,#499,.F.);
#239=ORIENTED_EDGE('',*,*,#501,.F.);
#240=ORIENTED_EDGE('',*,*,#502,.T.);
#241=ORIENTED_EDGE('',*,*,#503,.T.);
#242=ORIENTED_EDGE('',*,*,#502,.F.);
#243=ORIENTED_EDGE('',*,*,#504,.F.);
#244=ORIENTED_EDGE('',*,*,#505,.T.);
#245=ORIENTED_EDGE('',*,*,#506,.T.);
#246=ORIENTED_EDGE('',*,*,#505,.F.);
#247=ORIENTED_EDGE('',*,*,#507,.F.);
#248=ORIENTED_EDGE('',*,*,#508,.T.);
#249=ORIENTED_EDGE('',*,*,#509,.T.);
#250=ORIENTED_EDGE('',*,*,#508,.F.);
#251=ORIENTED_EDGE('',*,*,#510,.F.);
#252=ORIENTED_EDGE('',*,*,#511,.T.);
#253=ORIENTED_EDGE('',*,*,#512,.T.);
#254=ORIENTED_EDGE('',*,*,#511,.F.);
#255=ORIENTED_EDGE('',*,*,#513,.F.);
#256=ORIENTED_EDGE('',*,*,#514,.T.);
#257=ORIENTED_EDGE('',*,*,#515,.F.);
#258=ORIENTED_EDGE('',*,*,#516,.F.);
#259=ORIENTED_EDGE('',*,*,#517,.T.);
#260=ORIENTED_EDGE('',*,*,#518,.T.);
#261=ORIENTED_EDGE('',*,*,#519,.F.);
#262=ORIENTED_EDGE('',*,*,#518,.F.);
#263=ORIENTED_EDGE('',*,*,#520,.T.);
#264=ORIENTED_EDGE('',*,*,#521,.T.);
#265=ORIENTED_EDGE('',*,*,#522,.F.);
#266=ORIENTED_EDGE('',*,*,#521,.F.);
#267=ORIENTED_EDGE('',*,*,#523,.T.);
#268=ORIENTED_EDGE('',*,*,#524,.T.);
#269=ORIENTED_EDGE('',*,*,#525,.F.);
#270=ORIENTED_EDGE('',*,*,#524,.F.);
#271=ORIENTED_EDGE('',*,*,#526,.T.);
#272=ORIENTED_EDGE('',*,*,#527,.T.);
#273=ORIENTED_EDGE('',*,*,#528,.F.);
#274=ORIENTED_EDGE('',*,*,#527,.F.);
#275=ORIENTED_EDGE('',*,*,#529,.T.);
#276=ORIENTED_EDGE('',*,*,#530,.T.);
#277=ORIENTED_EDGE('',*,*,#531,.F.);
#278=ORIENTED_EDGE('',*,*,#530,.F.);
#279=ORIENTED_EDGE('',*,*,#532,.T.);
#280=ORIENTED_EDGE('',*,*,#533,.T.);
#281=ORIENTED_EDGE('',*,*,#534,.F.);
#282=ORIENTED_EDGE('',*,*,#533,.F.);
#283=ORIENTED_EDGE('',*,*,#535,.T.);
#284=ORIENTED_EDGE('',*,*,#536,.T.);
#285=ORIENTED_EDGE('',*,*,#537,.F.);
#286=ORIENTED_EDGE('',*,*,#536,.F.);
#287=ORIENTED_EDGE('',*,*,#538,.T.);
#288=ORIENTED_EDGE('',*,*,#516,.T.);
#289=ORIENTED_EDGE('',*,*,#539,.T.);
#290=ORIENTED_EDGE('',*,*,#514,.F.);
#291=ORIENTED_EDGE('',*,*,#540,.F.);
#292=ORIENTED_EDGE('',*,*,#494,.T.);
#293=ORIENTED_EDGE('',*,*,#517,.F.);
#294=ORIENTED_EDGE('',*,*,#538,.F.);
#295=ORIENTED_EDGE('',*,*,#535,.F.);
#296=ORIENTED_EDGE('',*,*,#532,.F.);
#297=ORIENTED_EDGE('',*,*,#529,.F.);
#298=ORIENTED_EDGE('',*,*,#526,.F.);
#299=ORIENTED_EDGE('',*,*,#523,.F.);
#300=ORIENTED_EDGE('',*,*,#520,.F.);
#301=ORIENTED_EDGE('',*,*,#495,.T.);
#302=ORIENTED_EDGE('',*,*,#540,.T.);
#303=ORIENTED_EDGE('',*,*,#513,.T.);
#304=ORIENTED_EDGE('',*,*,#510,.T.);
#305=ORIENTED_EDGE('',*,*,#507,.T.);
#306=ORIENTED_EDGE('',*,*,#504,.T.);
#307=ORIENTED_EDGE('',*,*,#501,.T.);
#308=ORIENTED_EDGE('',*,*,#498,.T.);
#309=ORIENTED_EDGE('',*,*,#515,.T.);
#310=ORIENTED_EDGE('',*,*,#519,.T.);
#311=ORIENTED_EDGE('',*,*,#522,.T.);
#312=ORIENTED_EDGE('',*,*,#525,.T.);
#313=ORIENTED_EDGE('',*,*,#528,.T.);
#314=ORIENTED_EDGE('',*,*,#531,.T.);
#315=ORIENTED_EDGE('',*,*,#534,.T.);
#316=ORIENTED_EDGE('',*,*,#537,.T.);
#317=ORIENTED_EDGE('',*,*,#493,.F.);
#318=ORIENTED_EDGE('',*,*,#497,.F.);
#319=ORIENTED_EDGE('',*,*,#500,.F.);
#320=ORIENTED_EDGE('',*,*,#503,.F.);
#321=ORIENTED_EDGE('',*,*,#506,.F.);
#322=ORIENTED_EDGE('',*,*,#509,.F.);
#323=ORIENTED_EDGE('',*,*,#512,.F.);
#324=ORIENTED_EDGE('',*,*,#539,.F.);
#325=ORIENTED_EDGE('',*,*,#541,.T.);
#326=ORIENTED_EDGE('',*,*,#542,.T.);
#327=ORIENTED_EDGE('',*,*,#543,.F.);
#328=ORIENTED_EDGE('',*,*,#544,.F.);
#329=ORIENTED_EDGE('',*,*,#545,.T.);
#330=ORIENTED_EDGE('',*,*,#546,.T.);
#331=ORIENTED_EDGE('',*,*,#547,.F.);
#332=ORIENTED_EDGE('',*,*,#548,.F.);
#333=ORIENTED_EDGE('',*,*,#549,.F.);
#334=ORIENTED_EDGE('',*,*,#550,.F.);
#335=ORIENTED_EDGE('',*,*,#551,.T.);
#336=ORIENTED_EDGE('',*,*,#552,.T.);
#337=ORIENTED_EDGE('',*,*,#553,.F.);
#338=ORIENTED_EDGE('',*,*,#554,.F.);
#339=ORIENTED_EDGE('',*,*,#555,.T.);
#340=ORIENTED_EDGE('',*,*,#550,.T.);
#341=ORIENTED_EDGE('',*,*,#556,.F.);
#342=ORIENTED_EDGE('',*,*,#546,.F.);
#343=ORIENTED_EDGE('',*,*,#557,.T.);
#344=ORIENTED_EDGE('',*,*,#554,.T.);
#345=ORIENTED_EDGE('',*,*,#558,.F.);
#346=ORIENTED_EDGE('',*,*,#559,.F.);
#347=ORIENTED_EDGE('',*,*,#560,.T.);
#348=ORIENTED_EDGE('',*,*,#544,.T.);
#349=ORIENTED_EDGE('',*,*,#561,.F.);
#350=ORIENTED_EDGE('',*,*,#562,.F.);
#351=ORIENTED_EDGE('',*,*,#563,.T.);
#352=ORIENTED_EDGE('',*,*,#559,.T.);
#353=ORIENTED_EDGE('',*,*,#564,.F.);
#354=ORIENTED_EDGE('',*,*,#565,.F.);
#355=ORIENTED_EDGE('',*,*,#566,.T.);
#356=ORIENTED_EDGE('',*,*,#562,.T.);
#357=ORIENTED_EDGE('',*,*,#567,.T.);
#358=ORIENTED_EDGE('',*,*,#568,.F.);
#359=ORIENTED_EDGE('',*,*,#569,.F.);
#360=ORIENTED_EDGE('',*,*,#570,.T.);
#361=ORIENTED_EDGE('',*,*,#571,.T.);
#362=ORIENTED_EDGE('',*,*,#572,.F.);
#363=ORIENTED_EDGE('',*,*,#573,.F.);
#364=ORIENTED_EDGE('',*,*,#568,.T.);
#365=ORIENTED_EDGE('',*,*,#574,.T.);
#366=ORIENTED_EDGE('',*,*,#575,.F.);
#367=ORIENTED_EDGE('',*,*,#576,.F.);
#368=ORIENTED_EDGE('',*,*,#572,.T.);
#369=ORIENTED_EDGE('',*,*,#577,.T.);
#370=ORIENTED_EDGE('',*,*,#578,.F.);
#371=ORIENTED_EDGE('',*,*,#579,.F.);
#372=ORIENTED_EDGE('',*,*,#575,.T.);
#373=ORIENTED_EDGE('',*,*,#580,.T.);
#374=ORIENTED_EDGE('',*,*,#581,.F.);
#375=ORIENTED_EDGE('',*,*,#582,.F.);
#376=ORIENTED_EDGE('',*,*,#578,.T.);
#377=ORIENTED_EDGE('',*,*,#583,.T.);
#378=ORIENTED_EDGE('',*,*,#584,.T.);
#379=ORIENTED_EDGE('',*,*,#585,.T.);
#380=ORIENTED_EDGE('',*,*,#586,.F.);
#381=ORIENTED_EDGE('',*,*,#587,.T.);
#382=ORIENTED_EDGE('',*,*,#588,.F.);
#383=ORIENTED_EDGE('',*,*,#589,.F.);
#384=ORIENTED_EDGE('',*,*,#581,.T.);
#385=ORIENTED_EDGE('',*,*,#590,.T.);
#386=ORIENTED_EDGE('',*,*,#591,.F.);
#387=ORIENTED_EDGE('',*,*,#592,.F.);
#388=ORIENTED_EDGE('',*,*,#588,.T.);
#389=ORIENTED_EDGE('',*,*,#593,.T.);
#390=ORIENTED_EDGE('',*,*,#570,.F.);
#391=ORIENTED_EDGE('',*,*,#594,.F.);
#392=ORIENTED_EDGE('',*,*,#591,.T.);
#393=ORIENTED_EDGE('',*,*,#595,.F.);
#394=ORIENTED_EDGE('',*,*,#552,.F.);
#395=ORIENTED_EDGE('',*,*,#596,.T.);
#396=ORIENTED_EDGE('',*,*,#565,.T.);
#397=ORIENTED_EDGE('',*,*,#569,.T.);
#398=ORIENTED_EDGE('',*,*,#573,.T.);
#399=ORIENTED_EDGE('',*,*,#576,.T.);
#400=ORIENTED_EDGE('',*,*,#579,.T.);
#401=ORIENTED_EDGE('',*,*,#582,.T.);
#402=ORIENTED_EDGE('',*,*,#589,.T.);
#403=ORIENTED_EDGE('',*,*,#592,.T.);
#404=ORIENTED_EDGE('',*,*,#594,.T.);
#405=ORIENTED_EDGE('',*,*,#551,.F.);
#406=ORIENTED_EDGE('',*,*,#555,.F.);
#407=ORIENTED_EDGE('',*,*,#557,.F.);
#408=ORIENTED_EDGE('',*,*,#545,.F.);
#409=ORIENTED_EDGE('',*,*,#560,.F.);
#410=ORIENTED_EDGE('',*,*,#563,.F.);
#411=ORIENTED_EDGE('',*,*,#566,.F.);
#412=ORIENTED_EDGE('',*,*,#596,.F.);
#413=ORIENTED_EDGE('',*,*,#543,.T.);
#414=ORIENTED_EDGE('',*,*,#597,.T.);
#415=ORIENTED_EDGE('',*,*,#583,.F.);
#416=ORIENTED_EDGE('',*,*,#580,.F.);
#417=ORIENTED_EDGE('',*,*,#577,.F.);
#418=ORIENTED_EDGE('',*,*,#574,.F.);
#419=ORIENTED_EDGE('',*,*,#571,.F.);
#420=ORIENTED_EDGE('',*,*,#567,.F.);
#421=ORIENTED_EDGE('',*,*,#593,.F.);
#422=ORIENTED_EDGE('',*,*,#590,.F.);
#423=ORIENTED_EDGE('',*,*,#587,.F.);
#424=ORIENTED_EDGE('',*,*,#598,.F.);
#425=ORIENTED_EDGE('',*,*,#547,.T.);
#426=ORIENTED_EDGE('',*,*,#556,.T.);
#427=ORIENTED_EDGE('',*,*,#553,.T.);
#428=ORIENTED_EDGE('',*,*,#549,.T.);
#429=ORIENTED_EDGE('',*,*,#595,.T.);
#430=ORIENTED_EDGE('',*,*,#564,.T.);
#431=ORIENTED_EDGE('',*,*,#561,.T.);
#432=ORIENTED_EDGE('',*,*,#558,.T.);
#433=ORIENTED_EDGE('',*,*,#599,.T.);
#434=ORIENTED_EDGE('',*,*,#584,.F.);
#435=ORIENTED_EDGE('',*,*,#597,.F.);
#436=ORIENTED_EDGE('',*,*,#542,.F.);
#437=ORIENTED_EDGE('',*,*,#548,.T.);
#438=ORIENTED_EDGE('',*,*,#598,.T.);
#439=ORIENTED_EDGE('',*,*,#586,.T.);
#440=ORIENTED_EDGE('',*,*,#600,.F.);
#441=ORIENTED_EDGE('',*,*,#600,.T.);
#442=ORIENTED_EDGE('',*,*,#585,.F.);
#443=ORIENTED_EDGE('',*,*,#599,.F.);
#444=ORIENTED_EDGE('',*,*,#541,.F.);
#445=ORIENTED_EDGE('',*,*,#601,.F.);
#446=ORIENTED_EDGE('',*,*,#602,.F.);
#447=ORIENTED_EDGE('',*,*,#603,.T.);
#448=ORIENTED_EDGE('',*,*,#604,.T.);
#449=ORIENTED_EDGE('',*,*,#605,.F.);
#450=ORIENTED_EDGE('',*,*,#604,.F.);
#451=ORIENTED_EDGE('',*,*,#606,.T.);
#452=ORIENTED_EDGE('',*,*,#607,.T.);
#453=ORIENTED_EDGE('',*,*,#608,.T.);
#454=ORIENTED_EDGE('',*,*,#607,.F.);
#455=ORIENTED_EDGE('',*,*,#609,.F.);
#456=ORIENTED_EDGE('',*,*,#610,.T.);
#457=ORIENTED_EDGE('',*,*,#611,.F.);
#458=ORIENTED_EDGE('',*,*,#610,.F.);
#459=ORIENTED_EDGE('',*,*,#612,.T.);
#460=ORIENTED_EDGE('',*,*,#613,.T.);
#461=ORIENTED_EDGE('',*,*,#614,.T.);
#462=ORIENTED_EDGE('',*,*,#613,.F.);
#463=ORIENTED_EDGE('',*,*,#615,.F.);
#464=ORIENTED_EDGE('',*,*,#616,.T.);
#465=ORIENTED_EDGE('',*,*,#617,.F.);
#466=ORIENTED_EDGE('',*,*,#616,.F.);
#467=ORIENTED_EDGE('',*,*,#618,.T.);
#468=ORIENTED_EDGE('',*,*,#619,.T.);
#469=ORIENTED_EDGE('',*,*,#620,.F.);
#470=ORIENTED_EDGE('',*,*,#619,.F.);
#471=ORIENTED_EDGE('',*,*,#621,.T.);
#472=ORIENTED_EDGE('',*,*,#622,.T.);
#473=ORIENTED_EDGE('',*,*,#623,.F.);
#474=ORIENTED_EDGE('',*,*,#622,.F.);
#475=ORIENTED_EDGE('',*,*,#624,.T.);
#476=ORIENTED_EDGE('',*,*,#602,.T.);
#477=ORIENTED_EDGE('',*,*,#603,.F.);
#478=ORIENTED_EDGE('',*,*,#624,.F.);
#479=ORIENTED_EDGE('',*,*,#621,.F.);
#480=ORIENTED_EDGE('',*,*,#618,.F.);
#481=ORIENTED_EDGE('',*,*,#615,.T.);
#482=ORIENTED_EDGE('',*,*,#612,.F.);
#483=ORIENTED_EDGE('',*,*,#609,.T.);
#484=ORIENTED_EDGE('',*,*,#606,.F.);
#485=ORIENTED_EDGE('',*,*,#601,.T.);
#486=ORIENTED_EDGE('',*,*,#605,.T.);
#487=ORIENTED_EDGE('',*,*,#608,.F.);
#488=ORIENTED_EDGE('',*,*,#611,.T.);
#489=ORIENTED_EDGE('',*,*,#614,.F.);
#490=ORIENTED_EDGE('',*,*,#617,.T.);
#491=ORIENTED_EDGE('',*,*,#620,.T.);
#492=ORIENTED_EDGE('',*,*,#623,.T.);
#493=EDGE_CURVE('',#625,#626,#713,.T.);
#494=EDGE_CURVE('',#627,#626,#45,.T.);
#495=EDGE_CURVE('',#628,#627,#714,.T.);
#496=EDGE_CURVE('',#628,#625,#46,.T.);
#497=EDGE_CURVE('',#629,#625,#47,.F.);
#498=EDGE_CURVE('',#630,#628,#48,.F.);
#499=EDGE_CURVE('',#630,#629,#49,.T.);
#500=EDGE_CURVE('',#631,#629,#715,.T.);
#501=EDGE_CURVE('',#632,#630,#716,.T.);
#502=EDGE_CURVE('',#632,#631,#50,.T.);
#503=EDGE_CURVE('',#633,#631,#51,.F.);
#504=EDGE_CURVE('',#634,#632,#52,.F.);
#505=EDGE_CURVE('',#634,#633,#53,.T.);
#506=EDGE_CURVE('',#635,#633,#717,.T.);
#507=EDGE_CURVE('',#636,#634,#718,.T.);
#508=EDGE_CURVE('',#636,#635,#54,.T.);
#509=EDGE_CURVE('',#637,#635,#55,.T.);
#510=EDGE_CURVE('',#638,#636,#56,.T.);
#511=EDGE_CURVE('',#638,#637,#57,.T.);
#512=EDGE_CURVE('',#639,#637,#719,.T.);
#513=EDGE_CURVE('',#640,#638,#720,.T.);
#514=EDGE_CURVE('',#640,#639,#58,.T.);
#515=EDGE_CURVE('',#641,#642,#721,.T.);
#516=EDGE_CURVE('',#643,#641,#59,.T.);
#517=EDGE_CURVE('',#643,#644,#722,.T.);
#518=EDGE_CURVE('',#644,#642,#60,.T.);
#519=EDGE_CURVE('',#642,#645,#61,.T.);
#520=EDGE_CURVE('',#644,#646,#62,.T.);
#521=EDGE_CURVE('',#646,#645,#63,.T.);
#522=EDGE_CURVE('',#645,#647,#723,.T.);
#523=EDGE_CURVE('',#646,#648,#724,.T.);
#524=EDGE_CURVE('',#648,#647,#64,.T.);
#525=EDGE_CURVE('',#647,#649,#65,.T.);
#526=EDGE_CURVE('',#648,#650,#66,.T.);
#527=EDGE_CURVE('',#650,#649,#67,.T.);
#528=EDGE_CURVE('',#649,#651,#725,.T.);
#529=EDGE_CURVE('',#650,#652,#726,.T.);
#530=EDGE_CURVE('',#652,#651,#68,.T.);
#531=EDGE_CURVE('',#651,#653,#69,.F.);
#532=EDGE_CURVE('',#652,#654,#70,.F.);
#533=EDGE_CURVE('',#654,#653,#71,.T.);
#534=EDGE_CURVE('',#653,#655,#727,.T.);
#535=EDGE_CURVE('',#654,#656,#728,.T.);
#536=EDGE_CURVE('',#656,#655,#72,.T.);
#537=EDGE_CURVE('',#655,#641,#73,.F.);
#538=EDGE_CURVE('',#656,#643,#74,.F.);
#539=EDGE_CURVE('',#626,#639,#75,.T.);
#540=EDGE_CURVE('',#627,#640,#76,.T.);
#541=EDGE_CURVE('',#657,#658,#77,.T.);
#542=EDGE_CURVE('',#658,#659,#78,.T.);
#543=EDGE_CURVE('',#660,#659,#79,.F.);
#544=EDGE_CURVE('',#661,#660,#80,.T.);
#545=EDGE_CURVE('',#661,#662,#81,.F.);
#546=EDGE_CURVE('',#662,#663,#82,.T.);
#547=EDGE_CURVE('',#664,#663,#83,.F.);
#548=EDGE_CURVE('',#657,#664,#84,.T.);
#549=EDGE_CURVE('',#665,#666,#729,.T.);
#550=EDGE_CURVE('',#667,#665,#85,.T.);
#551=EDGE_CURVE('',#667,#668,#730,.T.);
#552=EDGE_CURVE('',#668,#666,#86,.T.);
#553=EDGE_CURVE('',#669,#665,#87,.F.);
#554=EDGE_CURVE('',#670,#669,#88,.T.);
#555=EDGE_CURVE('',#670,#667,#89,.F.);
#556=EDGE_CURVE('',#663,#669,#731,.T.);
#557=EDGE_CURVE('',#662,#670,#732,.T.);
#558=EDGE_CURVE('',#671,#660,#733,.T.);
#559=EDGE_CURVE('',#672,#671,#90,.T.);
#560=EDGE_CURVE('',#672,#661,#734,.T.);
#561=EDGE_CURVE('',#673,#671,#91,.T.);
#562=EDGE_CURVE('',#674,#673,#92,.T.);
#563=EDGE_CURVE('',#674,#672,#93,.T.);
#564=EDGE_CURVE('',#675,#673,#735,.T.);
#565=EDGE_CURVE('',#676,#675,#94,.T.);
#566=EDGE_CURVE('',#676,#674,#736,.T.);
#567=EDGE_CURVE('',#677,#678,#737,.T.);
#568=EDGE_CURVE('',#679,#678,#95,.T.);
#569=EDGE_CURVE('',#680,#679,#738,.T.);
#570=EDGE_CURVE('',#680,#677,#96,.T.);
#571=EDGE_CURVE('',#678,#681,#97,.T.);
#572=EDGE_CURVE('',#682,#681,#98,.T.);
#573=EDGE_CURVE('',#679,#682,#99,.T.);
#574=EDGE_CURVE('',#681,#683,#739,.T.);
#575=EDGE_CURVE('',#684,#683,#100,.T.);
#576=EDGE_CURVE('',#682,#684,#740,.T.);
#577=EDGE_CURVE('',#683,#685,#101,.T.);
#578=EDGE_CURVE('',#686,#685,#102,.T.);
#579=EDGE_CURVE('',#684,#686,#103,.T.);
#580=EDGE_CURVE('',#685,#687,#741,.T.);
#581=EDGE_CURVE('',#688,#687,#104,.T.);
#582=EDGE_CURVE('',#686,#688,#742,.T.);
#583=EDGE_CURVE('',#687,#689,#105,.F.);
#584=EDGE_CURVE('',#689,#690,#106,.T.);
#585=EDGE_CURVE('',#690,#691,#107,.T.);
#586=EDGE_CURVE('',#692,#691,#108,.T.);
#587=EDGE_CURVE('',#692,#693,#109,.F.);
#588=EDGE_CURVE('',#694,#693,#110,.T.);
#589=EDGE_CURVE('',#688,#694,#111,.F.);
#590=EDGE_CURVE('',#693,#695,#743,.T.);
#591=EDGE_CURVE('',#696,#695,#112,.T.);
#592=EDGE_CURVE('',#694,#696,#744,.T.);
#593=EDGE_CURVE('',#695,#677,#113,.F.);
#594=EDGE_CURVE('',#696,#680,#114,.F.);
#595=EDGE_CURVE('',#666,#675,#115,.T.);
#596=EDGE_CURVE('',#668,#676,#116,.T.);
#597=EDGE_CURVE('',#659,#689,#117,.T.);
#598=EDGE_CURVE('',#664,#692,#118,.T.);
#599=EDGE_CURVE('',#658,#690,#119,.T.);
#600=EDGE_CURVE('',#657,#691,#120,.T.);
#601=EDGE_CURVE('',#697,#698,#121,.T.);
#602=EDGE_CURVE('',#699,#697,#122,.T.);
#603=EDGE_CURVE('',#699,#700,#123,.T.);
#604=EDGE_CURVE('',#700,#698,#124,.T.);
#605=EDGE_CURVE('',#698,#701,#745,.T.);
#606=EDGE_CURVE('',#700,#702,#746,.T.);
#607=EDGE_CURVE('',#702,#701,#125,.T.);
#608=EDGE_CURVE('',#703,#701,#126,.T.);
#609=EDGE_CURVE('',#704,#702,#127,.T.);
#610=EDGE_CURVE('',#704,#703,#128,.T.);
#611=EDGE_CURVE('',#703,#705,#747,.T.);
#612=EDGE_CURVE('',#704,#706,#748,.T.);
#613=EDGE_CURVE('',#706,#705,#129,.T.);
#614=EDGE_CURVE('',#707,#705,#130,.T.);
#615=EDGE_CURVE('',#708,#706,#131,.T.);
#616=EDGE_CURVE('',#708,#707,#132,.T.);
#617=EDGE_CURVE('',#707,#709,#749,.T.);
#618=EDGE_CURVE('',#708,#710,#750,.T.);
#619=EDGE_CURVE('',#710,#709,#133,.T.);
#620=EDGE_CURVE('',#709,#711,#134,.T.);
#621=EDGE_CURVE('',#710,#712,#135,.T.);
#622=EDGE_CURVE('',#712,#711,#136,.T.);
#623=EDGE_CURVE('',#711,#697,#751,.T.);
#624=EDGE_CURVE('',#712,#699,#752,.T.);
#625=VERTEX_POINT('',#1333);
#626=VERTEX_POINT('',#1334);
#627=VERTEX_POINT('',#1336);
#628=VERTEX_POINT('',#1338);
#629=VERTEX_POINT('',#1342);
#630=VERTEX_POINT('',#1344);
#631=VERTEX_POINT('',#1348);
#632=VERTEX_POINT('',#1350);
#633=VERTEX_POINT('',#1354);
#634=VERTEX_POINT('',#1356);
#635=VERTEX_POINT('',#1360);
#636=VERTEX_POINT('',#1362);
#637=VERTEX_POINT('',#1366);
#638=VERTEX_POINT('',#1368);
#639=VERTEX_POINT('',#1372);
#640=VERTEX_POINT('',#1374);
#641=VERTEX_POINT('',#1378);
#642=VERTEX_POINT('',#1379);
#643=VERTEX_POINT('',#1381);
#644=VERTEX_POINT('',#1383);
#645=VERTEX_POINT('',#1387);
#646=VERTEX_POINT('',#1389);
#647=VERTEX_POINT('',#1393);
#648=VERTEX_POINT('',#1395);
#649=VERTEX_POINT('',#1399);
#650=VERTEX_POINT('',#1401);
#651=VERTEX_POINT('',#1405);
#652=VERTEX_POINT('',#1407);
#653=VERTEX_POINT('',#1411);
#654=VERTEX_POINT('',#1413);
#655=VERTEX_POINT('',#1417);
#656=VERTEX_POINT('',#1419);
#657=VERTEX_POINT('',#1432);
#658=VERTEX_POINT('',#1433);
#659=VERTEX_POINT('',#1435);
#660=VERTEX_POINT('',#1437);
#661=VERTEX_POINT('',#1439);
#662=VERTEX_POINT('',#1441);
#663=VERTEX_POINT('',#1443);
#664=VERTEX_POINT('',#1445);
#665=VERTEX_POINT('',#1449);
#666=VERTEX_POINT('',#1450);
#667=VERTEX_POINT('',#1452);
#668=VERTEX_POINT('',#1454);
#669=VERTEX_POINT('',#1458);
#670=VERTEX_POINT('',#1460);
#671=VERTEX_POINT('',#1467);
#672=VERTEX_POINT('',#1469);
#673=VERTEX_POINT('',#1473);
#674=VERTEX_POINT('',#1475);
#675=VERTEX_POINT('',#1479);
#676=VERTEX_POINT('',#1481);
#677=VERTEX_POINT('',#1485);
#678=VERTEX_POINT('',#1486);
#679=VERTEX_POINT('',#1488);
#680=VERTEX_POINT('',#1490);
#681=VERTEX_POINT('',#1494);
#682=VERTEX_POINT('',#1496);
#683=VERTEX_POINT('',#1500);
#684=VERTEX_POINT('',#1502);
#685=VERTEX_POINT('',#1506);
#686=VERTEX_POINT('',#1508);
#687=VERTEX_POINT('',#1512);
#688=VERTEX_POINT('',#1514);
#689=VERTEX_POINT('',#1518);
#690=VERTEX_POINT('',#1520);
#691=VERTEX_POINT('',#1522);
#692=VERTEX_POINT('',#1524);
#693=VERTEX_POINT('',#1526);
#694=VERTEX_POINT('',#1528);
#695=VERTEX_POINT('',#1532);
#696=VERTEX_POINT('',#1534);
#697=VERTEX_POINT('',#1554);
#698=VERTEX_POINT('',#1555);
#699=VERTEX_POINT('',#1557);
#700=VERTEX_POINT('',#1559);
#701=VERTEX_POINT('',#1563);
#702=VERTEX_POINT('',#1565);
#703=VERTEX_POINT('',#1569);
#704=VERTEX_POINT('',#1571);
#705=VERTEX_POINT('',#1575);
#706=VERTEX_POINT('',#1577);
#707=VERTEX_POINT('',#1581);
#708=VERTEX_POINT('',#1583);
#709=VERTEX_POINT('',#1587);
#710=VERTEX_POINT('',#1589);
#711=VERTEX_POINT('',#1593);
#712=VERTEX_POINT('',#1595);
#713=CIRCLE('',#964,5.);
#714=CIRCLE('',#965,5.);
#715=CIRCLE('',#968,5.);
#716=CIRCLE('',#969,5.);
#717=CIRCLE('',#972,5.);
#718=CIRCLE('',#973,5.);
#719=CIRCLE('',#976,5.);
#720=CIRCLE('',#977,5.);
#721=CIRCLE('',#979,10.);
#722=CIRCLE('',#980,10.);
#723=CIRCLE('',#983,10.);
#724=CIRCLE('',#984,10.);
#725=CIRCLE('',#987,10.);
#726=CIRCLE('',#988,10.);
#727=CIRCLE('',#991,10.);
#728=CIRCLE('',#992,10.);
#729=CIRCLE('',#1000,5.);
#730=CIRCLE('',#1001,5.);
#731=CIRCLE('',#1004,5.);
#732=CIRCLE('',#1005,5.);
#733=CIRCLE('',#1007,5.);
#734=CIRCLE('',#1008,5.);
#735=CIRCLE('',#1011,5.);
#736=CIRCLE('',#1012,5.);
#737=CIRCLE('',#1014,10.);
#738=CIRCLE('',#1015,10.);
#739=CIRCLE('',#1018,10.);
#740=CIRCLE('',#1019,10.);
#741=CIRCLE('',#1022,10.);
#742=CIRCLE('',#1023,10.);
#743=CIRCLE('',#1026,10.);
#744=CIRCLE('',#1027,10.);
#745=CIRCLE('',#1038,5.);
#746=CIRCLE('',#1039,5.);
#747=CIRCLE('',#1042,5.);
#748=CIRCLE('',#1043,5.);
#749=CIRCLE('',#1046,5.);
#750=CIRCLE('',#1047,5.);
#751=CIRCLE('',#1050,5.);
#752=CIRCLE('',#1051,5.);
#753=EDGE_LOOP('',(#229,#230,#231,#232));
#754=EDGE_LOOP('',(#233,#234,#235,#236));
#755=EDGE_LOOP('',(#237,#238,#239,#240));
#756=EDGE_LOOP('',(#241,#242,#243,#244));
#757=EDGE_LOOP('',(#245,#246,#247,#248));
#758=EDGE_LOOP('',(#249,#250,#251,#252));
#759=EDGE_LOOP('',(#253,#254,#255,#256));
#760=EDGE_LOOP('',(#257,#258,#259,#260));
#761=EDGE_LOOP('',(#261,#262,#263,#264));
#762=EDGE_LOOP('',(#265,#266,#267,#268));
#763=EDGE_LOOP('',(#269,#270,#271,#272));
#764=EDGE_LOOP('',(#273,#274,#275,#276));
#765=EDGE_LOOP('',(#277,#278,#279,#280));
#766=EDGE_LOOP('',(#281,#282,#283,#284));
#767=EDGE_LOOP('',(#285,#286,#287,#288));
#768=EDGE_LOOP('',(#289,#290,#291,#292));
#769=EDGE_LOOP('',(#293,#294,#295,#296,#297,#298,#299,#300));
#770=EDGE_LOOP('',(#301,#302,#303,#304,#305,#306,#307,#308));
#771=EDGE_LOOP('',(#309,#310,#311,#312,#313,#314,#315,#316));
#772=EDGE_LOOP('',(#317,#318,#319,#320,#321,#322,#323,#324));
#773=EDGE_LOOP('',(#325,#326,#327,#328,#329,#330,#331,#332));
#774=EDGE_LOOP('',(#333,#334,#335,#336));
#775=EDGE_LOOP('',(#337,#338,#339,#340));
#776=EDGE_LOOP('',(#341,#342,#343,#344));
#777=EDGE_LOOP('',(#345,#346,#347,#348));
#778=EDGE_LOOP('',(#349,#350,#351,#352));
#779=EDGE_LOOP('',(#353,#354,#355,#356));
#780=EDGE_LOOP('',(#357,#358,#359,#360));
#781=EDGE_LOOP('',(#361,#362,#363,#364));
#782=EDGE_LOOP('',(#365,#366,#367,#368));
#783=EDGE_LOOP('',(#369,#370,#371,#372));
#784=EDGE_LOOP('',(#373,#374,#375,#376));
#785=EDGE_LOOP('',(#377,#378,#379,#380,#381,#382,#383,#384));
#786=EDGE_LOOP('',(#385,#386,#387,#388));
#787=EDGE_LOOP('',(#389,#390,#391,#392));
#788=EDGE_LOOP('',(#393,#394,#395,#396));
#789=EDGE_LOOP('',(#397,#398,#399,#400,#401,#402,#403,#404));
#790=EDGE_LOOP('',(#405,#406,#407,#408,#409,#410,#411,#412));
#791=EDGE_LOOP('',(#413,#414,#415,#416,#417,#418,#419,#420,#421,#422,#423,
#424,#425,#426,#427,#428,#429,#430,#431,#432));
#792=EDGE_LOOP('',(#433,#434,#435,#436));
#793=EDGE_LOOP('',(#437,#438,#439,#440));
#794=EDGE_LOOP('',(#441,#442,#443,#444));
#795=EDGE_LOOP('',(#445,#446,#447,#448));
#796=EDGE_LOOP('',(#449,#450,#451,#452));
#797=EDGE_LOOP('',(#453,#454,#455,#456));
#798=EDGE_LOOP('',(#457,#458,#459,#460));
#799=EDGE_LOOP('',(#461,#462,#463,#464));
#800=EDGE_LOOP('',(#465,#466,#467,#468));
#801=EDGE_LOOP('',(#469,#470,#471,#472));
#802=EDGE_LOOP('',(#473,#474,#475,#476));
#803=EDGE_LOOP('',(#477,#478,#479,#480,#481,#482,#483,#484));
#804=EDGE_LOOP('',(#485,#486,#487,#488,#489,#490,#491,#492));
#805=FACE_BOUND('',#753,.T.);
#806=FACE_BOUND('',#754,.T.);
#807=FACE_BOUND('',#755,.T.);
#808=FACE_BOUND('',#756,.T.);
#809=FACE_BOUND('',#757,.T.);
#810=FACE_BOUND('',#758,.T.);
#811=FACE_BOUND('',#759,.T.);
#812=FACE_BOUND('',#760,.T.);
#813=FACE_BOUND('',#761,.T.);
#814=FACE_BOUND('',#762,.T.);
#815=FACE_BOUND('',#763,.T.);
#816=FACE_BOUND('',#764,.T.);
#817=FACE_BOUND('',#765,.T.);
#818=FACE_BOUND('',#766,.T.);
#819=FACE_BOUND('',#767,.T.);
#820=FACE_BOUND('',#768,.T.);
#821=FACE_BOUND('',#769,.T.);
#822=FACE_BOUND('',#770,.T.);
#823=FACE_BOUND('',#771,.T.);
#824=FACE_BOUND('',#772,.T.);
#825=FACE_BOUND('',#773,.T.);
#826=FACE_BOUND('',#774,.T.);
#827=FACE_BOUND('',#775,.T.);
#828=FACE_BOUND('',#776,.T.);
#829=FACE_BOUND('',#777,.T.);
#830=FACE_BOUND('',#778,.T.);
#831=FACE_BOUND('',#779,.T.);
#832=FACE_BOUND('',#780,.T.);
#833=FACE_BOUND('',#781,.T.);
#834=FACE_BOUND('',#782,.T.);
#835=FACE_BOUND('',#783,.T.);
#836=FACE_BOUND('',#784,.T.);
#837=FACE_BOUND('',#785,.T.);
#838=FACE_BOUND('',#786,.T.);
#839=FACE_BOUND('',#787,.T.);
#840=FACE_BOUND('',#788,.T.);
#841=FACE_BOUND('',#789,.T.);
#842=FACE_BOUND('',#790,.T.);
#843=FACE_BOUND('',#791,.T.);
#844=FACE_BOUND('',#792,.T.);
#845=FACE_BOUND('',#793,.T.);
#846=FACE_BOUND('',#794,.T.);
#847=FACE_BOUND('',#795,.T.);
#848=FACE_BOUND('',#796,.T.);
#849=FACE_BOUND('',#797,.T.);
#850=FACE_BOUND('',#798,.T.);
#851=FACE_BOUND('',#799,.T.);
#852=FACE_BOUND('',#800,.T.);
#853=FACE_BOUND('',#801,.T.);
#854=FACE_BOUND('',#802,.T.);
#855=FACE_BOUND('',#803,.T.);
#856=FACE_BOUND('',#804,.T.);
#857=CYLINDRICAL_SURFACE('',#963,5.);
#858=CYLINDRICAL_SURFACE('',#967,5.);
#859=CYLINDRICAL_SURFACE('',#971,5.);
#860=CYLINDRICAL_SURFACE('',#975,5.);
#861=CYLINDRICAL_SURFACE('',#978,10.);
#862=CYLINDRICAL_SURFACE('',#982,10.);
#863=CYLINDRICAL_SURFACE('',#986,10.);
#864=CYLINDRICAL_SURFACE('',#990,10.);
#865=CYLINDRICAL_SURFACE('',#999,5.);
#866=CYLINDRICAL_SURFACE('',#1003,5.);
#867=CYLINDRICAL_SURFACE('',#1006,5.);
#868=CYLINDRICAL_SURFACE('',#1010,5.);
#869=CYLINDRICAL_SURFACE('',#1013,10.);
#870=CYLINDRICAL_SURFACE('',#1017,10.);
#871=CYLINDRICAL_SURFACE('',#1021,10.);
#872=CYLINDRICAL_SURFACE('',#1025,10.);
#873=CYLINDRICAL_SURFACE('',#1037,5.);
#874=CYLINDRICAL_SURFACE('',#1041,5.);
#875=CYLINDRICAL_SURFACE('',#1045,5.);
#876=CYLINDRICAL_SURFACE('',#1049,5.);
#877=ADVANCED_FACE('',(#805),#857,.F.);
#878=ADVANCED_FACE('',(#806),#16,.F.);
#879=ADVANCED_FACE('',(#807),#858,.F.);
#880=ADVANCED_FACE('',(#808),#17,.F.);
#881=ADVANCED_FACE('',(#809),#859,.F.);
#882=ADVANCED_FACE('',(#810),#18,.F.);
#883=ADVANCED_FACE('',(#811),#860,.F.);
#884=ADVANCED_FACE('',(#812),#861,.T.);
#885=ADVANCED_FACE('',(#813),#19,.T.);
#886=ADVANCED_FACE('',(#814),#862,.T.);
#887=ADVANCED_FACE('',(#815),#20,.T.);
#888=ADVANCED_FACE('',(#816),#863,.T.);
#889=ADVANCED_FACE('',(#817),#21,.T.);
#890=ADVANCED_FACE('',(#818),#864,.T.);
#891=ADVANCED_FACE('',(#819),#22,.T.);
#892=ADVANCED_FACE('',(#820),#23,.F.);
#893=ADVANCED_FACE('',(#821,#822),#24,.F.);
#894=ADVANCED_FACE('',(#823,#824),#25,.T.);
#895=ADVANCED_FACE('',(#825),#26,.T.);
#896=ADVANCED_FACE('',(#826),#865,.F.);
#897=ADVANCED_FACE('',(#827),#27,.T.);
#898=ADVANCED_FACE('',(#828),#866,.F.);
#899=ADVANCED_FACE('',(#829),#867,.F.);
#900=ADVANCED_FACE('',(#830),#28,.T.);
#901=ADVANCED_FACE('',(#831),#868,.F.);
#902=ADVANCED_FACE('',(#832),#869,.T.);
#903=ADVANCED_FACE('',(#833),#29,.F.);
#904=ADVANCED_FACE('',(#834),#870,.T.);
#905=ADVANCED_FACE('',(#835),#30,.F.);
#906=ADVANCED_FACE('',(#836),#871,.T.);
#907=ADVANCED_FACE('',(#837),#31,.F.);
#908=ADVANCED_FACE('',(#838),#872,.T.);
#909=ADVANCED_FACE('',(#839),#32,.F.);
#910=ADVANCED_FACE('',(#840),#33,.T.);
#911=ADVANCED_FACE('',(#841,#842),#34,.T.);
#912=ADVANCED_FACE('',(#843),#35,.F.);
#913=ADVANCED_FACE('',(#844),#36,.T.);
#914=ADVANCED_FACE('',(#845),#37,.F.);
#915=ADVANCED_FACE('',(#846),#38,.T.);
#916=ADVANCED_FACE('',(#847),#39,.T.);
#917=ADVANCED_FACE('',(#848),#873,.T.);
#918=ADVANCED_FACE('',(#849),#40,.F.);
#919=ADVANCED_FACE('',(#850),#874,.T.);
#920=ADVANCED_FACE('',(#851),#41,.F.);
#921=ADVANCED_FACE('',(#852),#875,.T.);
#922=ADVANCED_FACE('',(#853),#42,.T.);
#923=ADVANCED_FACE('',(#854),#876,.T.);
#924=ADVANCED_FACE('',(#855),#43,.F.);
#925=ADVANCED_FACE('',(#856),#44,.T.);
#926=CLOSED_SHELL('',(#877,#878,#879,#880,#881,#882,#883,#884,#885,#886,
#887,#888,#889,#890,#891,#892,#893,#894));
#927=CLOSED_SHELL('',(#895,#896,#897,#898,#899,#900,#901,#902,#903,#904,
#905,#906,#907,#908,#909,#910,#911,#912,#913,#914,#915));
#928=CLOSED_SHELL('',(#916,#917,#918,#919,#920,#921,#922,#923,#924,#925));
#929=STYLED_ITEM('',(#932),#953);
#930=STYLED_ITEM('',(#933),#954);
#931=STYLED_ITEM('',(#934),#955);
#932=PRESENTATION_STYLE_ASSIGNMENT((#935));
#933=PRESENTATION_STYLE_ASSIGNMENT((#936));
#934=PRESENTATION_STYLE_ASSIGNMENT((#937));
#935=SURFACE_STYLE_USAGE(.BOTH.,#938);
#936=SURFACE_STYLE_USAGE(.BOTH.,#939);
#937=SURFACE_STYLE_USAGE(.BOTH.,#940);
#938=SURFACE_SIDE_STYLE('',(#941));
#939=SURFACE_SIDE_STYLE('',(#942));
#940=SURFACE_SIDE_STYLE('',(#943));
#941=SURFACE_STYLE_FILL_AREA(#944);
#942=SURFACE_STYLE_FILL_AREA(#945);
#943=SURFACE_STYLE_FILL_AREA(#946);
#944=FILL_AREA_STYLE('',(#947));
#945=FILL_AREA_STYLE('',(#948));
#946=FILL_AREA_STYLE('',(#949));
#947=FILL_AREA_STYLE_COLOUR('',#950);
#948=FILL_AREA_STYLE_COLOUR('',#951);
#949=FILL_AREA_STYLE_COLOUR('',#952);
#950=COLOUR_RGB('',0.231372549019608,0.380392156862745,0.705882352941177);
#951=COLOUR_RGB('',0.647058823529412,0.647058823529412,0.647058823529412);
#952=COLOUR_RGB('',0.615686274509804,0.811764705882353,0.929411764705882);
#953=MANIFOLD_SOLID_BREP('Part 3',#926);
#954=MANIFOLD_SOLID_BREP('Part 2',#927);
#955=MANIFOLD_SOLID_BREP('Part 1',#928);
#956=SHAPE_DEFINITION_REPRESENTATION(#1620,#959);
#957=SHAPE_DEFINITION_REPRESENTATION(#1621,#960);
#958=SHAPE_DEFINITION_REPRESENTATION(#1622,#961);
#959=SHAPE_REPRESENTATION('Part 3',(#962),#1605);
#960=SHAPE_REPRESENTATION('Part 2',(#997),#1606);
#961=SHAPE_REPRESENTATION('Part 1',(#1035),#1607);
#962=AXIS2_PLACEMENT_3D('',#1330,#1054,#1055);
#963=AXIS2_PLACEMENT_3D('',#1331,#1056,#1057);
#964=AXIS2_PLACEMENT_3D('',#1332,#1058,#1059);
#965=AXIS2_PLACEMENT_3D('',#1337,#1061,#1062);
#966=AXIS2_PLACEMENT_3D('',#1340,#1064,#1065);
#967=AXIS2_PLACEMENT_3D('',#1346,#1069,#1070);
#968=AXIS2_PLACEMENT_3D('',#1347,#1071,#1072);
#969=AXIS2_PLACEMENT_3D('',#1349,#1073,#1074);
#970=AXIS2_PLACEMENT_3D('',#1352,#1076,#1077);
#971=AXIS2_PLACEMENT_3D('',#1358,#1081,#1082);
#972=AXIS2_PLACEMENT_3D('',#1359,#1083,#1084);
#973=AXIS2_PLACEMENT_3D('',#1361,#1085,#1086);
#974=AXIS2_PLACEMENT_3D('',#1364,#1088,#1089);
#975=AXIS2_PLACEMENT_3D('',#1370,#1093,#1094);
#976=AXIS2_PLACEMENT_3D('',#1371,#1095,#1096);
#977=AXIS2_PLACEMENT_3D('',#1373,#1097,#1098);
#978=AXIS2_PLACEMENT_3D('',#1376,#1100,#1101);
#979=AXIS2_PLACEMENT_3D('',#1377,#1102,#1103);
#980=AXIS2_PLACEMENT_3D('',#1382,#1105,#1106);
#981=AXIS2_PLACEMENT_3D('',#1385,#1108,#1109);
#982=AXIS2_PLACEMENT_3D('',#1391,#1113,#1114);
#983=AXIS2_PLACEMENT_3D('',#1392,#1115,#1116);
#984=AXIS2_PLACEMENT_3D('',#1394,#1117,#1118);
#985=AXIS2_PLACEMENT_3D('',#1397,#1120,#1121);
#986=AXIS2_PLACEMENT_3D('',#1403,#1125,#1126);
#987=AXIS2_PLACEMENT_3D('',#1404,#1127,#1128);
#988=AXIS2_PLACEMENT_3D('',#1406,#1129,#1130);
#989=AXIS2_PLACEMENT_3D('',#1409,#1132,#1133);
#990=AXIS2_PLACEMENT_3D('',#1415,#1137,#1138);
#991=AXIS2_PLACEMENT_3D('',#1416,#1139,#1140);
#992=AXIS2_PLACEMENT_3D('',#1418,#1141,#1142);
#993=AXIS2_PLACEMENT_3D('',#1421,#1144,#1145);
#994=AXIS2_PLACEMENT_3D('',#1424,#1148,#1149);
#995=AXIS2_PLACEMENT_3D('',#1427,#1152,#1153);
#996=AXIS2_PLACEMENT_3D('',#1428,#1154,#1155);
#997=AXIS2_PLACEMENT_3D('',#1429,#1156,#1157);
#998=AXIS2_PLACEMENT_3D('',#1430,#1158,#1159);
#999=AXIS2_PLACEMENT_3D('',#1447,#1168,#1169);
#1000=AXIS2_PLACEMENT_3D('',#1448,#1170,#1171);
#1001=AXIS2_PLACEMENT_3D('',#1453,#1173,#1174);
#1002=AXIS2_PLACEMENT_3D('',#1456,#1176,#1177);
#1003=AXIS2_PLACEMENT_3D('',#1462,#1181,#1182);
#1004=AXIS2_PLACEMENT_3D('',#1463,#1183,#1184);
#1005=AXIS2_PLACEMENT_3D('',#1464,#1185,#1186);
#1006=AXIS2_PLACEMENT_3D('',#1465,#1187,#1188);
#1007=AXIS2_PLACEMENT_3D('',#1466,#1189,#1190);
#1008=AXIS2_PLACEMENT_3D('',#1470,#1192,#1193);
#1009=AXIS2_PLACEMENT_3D('',#1471,#1194,#1195);
#1010=AXIS2_PLACEMENT_3D('',#1477,#1199,#1200);
#1011=AXIS2_PLACEMENT_3D('',#1478,#1201,#1202);
#1012=AXIS2_PLACEMENT_3D('',#1482,#1204,#1205);
#1013=AXIS2_PLACEMENT_3D('',#1483,#1206,#1207);
#1014=AXIS2_PLACEMENT_3D('',#1484,#1208,#1209);
#1015=AXIS2_PLACEMENT_3D('',#1489,#1211,#1212);
#1016=AXIS2_PLACEMENT_3D('',#1492,#1214,#1215);
#1017=AXIS2_PLACEMENT_3D('',#1498,#1219,#1220);
#1018=AXIS2_PLACEMENT_3D('',#1499,#1221,#1222);
#1019=AXIS2_PLACEMENT_3D('',#1503,#1224,#1225);
#1020=AXIS2_PLACEMENT_3D('',#1504,#1226,#1227);
#1021=AXIS2_PLACEMENT_3D('',#1510,#1231,#1232);
#1022=AXIS2_PLACEMENT_3D('',#1511,#1233,#1234);
#1023=AXIS2_PLACEMENT_3D('',#1515,#1236,#1237);
#1024=AXIS2_PLACEMENT_3D('',#1516,#1238,#1239);
#1025=AXIS2_PLACEMENT_3D('',#1530,#1247,#1248);
#1026=AXIS2_PLACEMENT_3D('',#1531,#1249,#1250);
#1027=AXIS2_PLACEMENT_3D('',#1535,#1252,#1253);
#1028=AXIS2_PLACEMENT_3D('',#1536,#1254,#1255);
#1029=AXIS2_PLACEMENT_3D('',#1539,#1258,#1259);
#1030=AXIS2_PLACEMENT_3D('',#1542,#1262,#1263);
#1031=AXIS2_PLACEMENT_3D('',#1543,#1264,#1265);
#1032=AXIS2_PLACEMENT_3D('',#1546,#1268,#1269);
#1033=AXIS2_PLACEMENT_3D('',#1548,#1271,#1272);
#1034=AXIS2_PLACEMENT_3D('',#1550,#1274,#1275);
#1035=AXIS2_PLACEMENT_3D('',#1551,#1276,#1277);
#1036=AXIS2_PLACEMENT_3D('',#1552,#1278,#1279);
#1037=AXIS2_PLACEMENT_3D('',#1561,#1284,#1285);
#1038=AXIS2_PLACEMENT_3D('',#1562,#1286,#1287);
#1039=AXIS2_PLACEMENT_3D('',#1564,#1288,#1289);
#1040=AXIS2_PLACEMENT_3D('',#1567,#1291,#1292);
#1041=AXIS2_PLACEMENT_3D('',#1573,#1296,#1297);
#1042=AXIS2_PLACEMENT_3D('',#1574,#1298,#1299);
#1043=AXIS2_PLACEMENT_3D('',#1576,#1300,#1301);
#1044=AXIS2_PLACEMENT_3D('',#1579,#1303,#1304);
#1045=AXIS2_PLACEMENT_3D('',#1585,#1308,#1309);
#1046=AXIS2_PLACEMENT_3D('',#1586,#1310,#1311);
#1047=AXIS2_PLACEMENT_3D('',#1588,#1312,#1313);
#1048=AXIS2_PLACEMENT_3D('',#1591,#1315,#1316);
#1049=AXIS2_PLACEMENT_3D('',#1597,#1320,#1321);
#1050=AXIS2_PLACEMENT_3D('',#1598,#1322,#1323);
#1051=AXIS2_PLACEMENT_3D('',#1599,#1324,#1325);
#1052=AXIS2_PLACEMENT_3D('',#1600,#1326,#1327);
#1053=AXIS2_PLACEMENT_3D('',#1601,#1328,#1329);
#1054=DIRECTION('',(0.,0.,1.));
#1055=DIRECTION('',(1.,0.,0.));
#1056=DIRECTION('',(0.,0.,1.));
#1057=DIRECTION('',(1.,0.,0.));
#1058=DIRECTION('',(0.,0.,1.));
#1059=DIRECTION('',(1.,0.,0.));
#1060=DIRECTION('',(0.,0.,1.));
#1061=DIRECTION('',(0.,0.,1.));
#1062=DIRECTION('',(1.,0.,0.));
#1063=DIRECTION('',(0.,0.,1.));
#1064=DIRECTION('',(1.,-6.12323399573677E-17,0.));
#1065=DIRECTION('',(6.12323399573677E-17,1.,0.));
#1066=DIRECTION('',(-6.12323399573677E-17,-1.,0.));
#1067=DIRECTION('',(-6.12323399573677E-17,-1.,0.));
#1068=DIRECTION('',(0.,0.,1.));
#1069=DIRECTION('',(0.,0.,1.));
#1070=DIRECTION('',(1.,0.,0.));
#1071=DIRECTION('',(0.,0.,1.));
#1072=DIRECTION('',(0.,-1.,0.));
#1073=DIRECTION('',(0.,0.,1.));
#1074=DIRECTION('',(0.,-1.,0.));
#1075=DIRECTION('',(0.,0.,1.));
#1076=DIRECTION('',(0.,-1.,0.));
#1077=DIRECTION('',(0.,0.,-1.));
#1078=DIRECTION('',(-1.,0.,0.));
#1079=DIRECTION('',(-1.,0.,0.));
#1080=DIRECTION('',(0.,0.,1.));
#1081=DIRECTION('',(0.,0.,1.));
#1082=DIRECTION('',(1.,0.,0.));
#1083=DIRECTION('',(0.,0.,1.));
#1084=DIRECTION('',(-1.,0.,0.));
#1085=DIRECTION('',(0.,0.,1.));
#1086=DIRECTION('',(-1.,0.,0.));
#1087=DIRECTION('',(0.,0.,1.));
#1088=DIRECTION('',(-1.,6.12323399573677E-17,0.));
#1089=DIRECTION('',(-6.12323399573677E-17,-1.,0.));
#1090=DIRECTION('',(-6.12323399573677E-17,-1.,0.));
#1091=DIRECTION('',(-6.12323399573677E-17,-1.,0.));
#1092=DIRECTION('',(0.,0.,1.));
#1093=DIRECTION('',(0.,0.,1.));
#1094=DIRECTION('',(1.,0.,0.));
#1095=DIRECTION('',(0.,0.,1.));
#1096=DIRECTION('',(0.,1.,0.));
#1097=DIRECTION('',(0.,0.,1.));
#1098=DIRECTION('',(0.,1.,0.));
#1099=DIRECTION('',(0.,0.,1.));
#1100=DIRECTION('',(0.,0.,1.));
#1101=DIRECTION('',(1.,0.,0.));
#1102=DIRECTION('',(0.,0.,1.));
#1103=DIRECTION('',(1.,0.,0.));
#1104=DIRECTION('',(0.,0.,1.));
#1105=DIRECTION('',(0.,0.,1.));
#1106=DIRECTION('',(1.,0.,0.));
#1107=DIRECTION('',(0.,0.,1.));
#1108=DIRECTION('',(0.,1.,0.));
#1109=DIRECTION('',(0.,0.,1.));
#1110=DIRECTION('',(-1.,0.,0.));
#1111=DIRECTION('',(-1.,0.,0.));
#1112=DIRECTION('',(0.,0.,1.));
#1113=DIRECTION('',(0.,0.,1.));
#1114=DIRECTION('',(1.,0.,0.));
#1115=DIRECTION('',(0.,0.,1.));
#1116=DIRECTION('',(0.,1.,0.));
#1117=DIRECTION('',(0.,0.,1.));
#1118=DIRECTION('',(0.,1.,0.));
#1119=DIRECTION('',(0.,0.,1.));
#1120=DIRECTION('',(-1.,6.12323399573677E-17,0.));
#1121=DIRECTION('',(-6.12323399573677E-17,-1.,0.));
#1122=DIRECTION('',(-6.12323399573677E-17,-1.,0.));
#1123=DIRECTION('',(-6.12323399573677E-17,-1.,0.));
#1124=DIRECTION('',(0.,0.,1.));
#1125=DIRECTION('',(0.,0.,1.));
#1126=DIRECTION('',(1.,0.,0.));
#1127=DIRECTION('',(0.,0.,1.));
#1128=DIRECTION('',(-1.,0.,0.));
#1129=DIRECTION('',(0.,0.,1.));
#1130=DIRECTION('',(-1.,0.,0.));
#1131=DIRECTION('',(0.,0.,1.));
#1132=DIRECTION('',(0.,-1.,0.));
#1133=DIRECTION('',(0.,0.,-1.));
#1134=DIRECTION('',(-1.,0.,0.));
#1135=DIRECTION('',(-1.,0.,0.));
#1136=DIRECTION('',(0.,0.,1.));
#1137=DIRECTION('',(0.,0.,1.));
#1138=DIRECTION('',(1.,0.,0.));
#1139=DIRECTION('',(0.,0.,1.));
#1140=DIRECTION('',(0.,-1.,0.));
#1141=DIRECTION('',(0.,0.,1.));
#1142=DIRECTION('',(0.,-1.,0.));
#1143=DIRECTION('',(0.,0.,1.));
#1144=DIRECTION('',(1.,-6.12323399573677E-17,0.));
#1145=DIRECTION('',(6.12323399573677E-17,1.,0.));
#1146=DIRECTION('',(-6.12323399573677E-17,-1.,0.));
#1147=DIRECTION('',(-6.12323399573677E-17,-1.,0.));
#1148=DIRECTION('',(0.,1.,0.));
#1149=DIRECTION('',(0.,0.,1.));
#1150=DIRECTION('',(-1.,0.,0.));
#1151=DIRECTION('',(-1.,0.,0.));
#1152=DIRECTION('',(0.,0.,1.));
#1153=DIRECTION('',(1.,0.,0.));
#1154=DIRECTION('',(0.,0.,1.));
#1155=DIRECTION('',(1.,0.,0.));
#1156=DIRECTION('',(0.,0.,1.));
#1157=DIRECTION('',(1.,0.,0.));
#1158=DIRECTION('',(0.,1.,0.));
#1159=DIRECTION('',(0.,0.,1.));
#1160=DIRECTION('',(-1.,0.,0.));
#1161=DIRECTION('',(0.,0.,-1.));
#1162=DIRECTION('',(-1.,0.,0.));
#1163=DIRECTION('',(0.,0.,-1.));
#1164=DIRECTION('',(-1.,0.,0.));
#1165=DIRECTION('',(0.,0.,-1.));
#1166=DIRECTION('',(-1.,0.,0.));
#1167=DIRECTION('',(2.60208521396521E-16,0.,-1.));
#1168=DIRECTION('',(0.,0.,-1.));
#1169=DIRECTION('',(-1.,0.,0.));
#1170=DIRECTION('',(0.,0.,1.));
#1171=DIRECTION('',(1.,0.,0.));
#1172=DIRECTION('',(0.,0.,-1.));
#1173=DIRECTION('',(0.,0.,1.));
#1174=DIRECTION('',(1.,0.,0.));
#1175=DIRECTION('',(0.,0.,-1.));
#1176=DIRECTION('',(-1.,0.,0.));
#1177=DIRECTION('',(0.,0.,1.));
#1178=DIRECTION('',(0.,-1.,0.));
#1179=DIRECTION('',(0.,0.,-1.));
#1180=DIRECTION('',(0.,-1.,0.));
#1181=DIRECTION('',(0.,0.,-1.));
#1182=DIRECTION('',(-1.,0.,0.));
#1183=DIRECTION('',(0.,0.,1.));
#1184=DIRECTION('',(1.,0.,0.));
#1185=DIRECTION('',(0.,0.,1.));
#1186=DIRECTION('',(1.,0.,0.));
#1187=DIRECTION('',(0.,0.,-1.));
#1188=DIRECTION('',(-1.,0.,0.));
#1189=DIRECTION('',(0.,0.,1.));
#1190=DIRECTION('',(1.,0.,0.));
#1191=DIRECTION('',(0.,0.,-1.));
#1192=DIRECTION('',(0.,0.,1.));
#1193=DIRECTION('',(1.,0.,0.));
#1194=DIRECTION('',(1.,0.,0.));
#1195=DIRECTION('',(0.,0.,-1.));
#1196=DIRECTION('',(0.,-1.,0.));
#1197=DIRECTION('',(0.,0.,-1.));
#1198=DIRECTION('',(0.,-1.,0.));
#1199=DIRECTION('',(0.,0.,-1.));
#1200=DIRECTION('',(-1.,0.,0.));
#1201=DIRECTION('',(0.,0.,1.));
#1202=DIRECTION('',(1.,0.,0.));
#1203=DIRECTION('',(0.,0.,-1.));
#1204=DIRECTION('',(0.,0.,1.));
#1205=DIRECTION('',(1.,0.,0.));
#1206=DIRECTION('',(0.,0.,-1.));
#1207=DIRECTION('',(-1.,0.,0.));
#1208=DIRECTION('',(0.,0.,1.));
#1209=DIRECTION('',(1.,0.,0.));
#1210=DIRECTION('',(0.,0.,-1.));
#1211=DIRECTION('',(0.,0.,1.));
#1212=DIRECTION('',(1.,0.,0.));
#1213=DIRECTION('',(0.,0.,-1.));
#1214=DIRECTION('',(0.,-1.,0.));
#1215=DIRECTION('',(0.,0.,-1.));
#1216=DIRECTION('',(-1.,0.,0.));
#1217=DIRECTION('',(0.,0.,-1.));
#1218=DIRECTION('',(-1.,0.,0.));
#1219=DIRECTION('',(0.,0.,-1.));
#1220=DIRECTION('',(-1.,0.,0.));
#1221=DIRECTION('',(0.,0.,1.));
#1222=DIRECTION('',(1.,0.,0.));
#1223=DIRECTION('',(0.,0.,-1.));
#1224=DIRECTION('',(0.,0.,1.));
#1225=DIRECTION('',(1.,0.,0.));
#1226=DIRECTION('',(1.,0.,0.));
#1227=DIRECTION('',(0.,0.,-1.));
#1228=DIRECTION('',(0.,-1.,0.));
#1229=DIRECTION('',(0.,0.,-1.));
#1230=DIRECTION('',(0.,-1.,0.));
#1231=DIRECTION('',(0.,0.,-1.));
#1232=DIRECTION('',(-1.,0.,0.));
#1233=DIRECTION('',(0.,0.,1.));
#1234=DIRECTION('',(1.,0.,0.));
#1235=DIRECTION('',(0.,0.,-1.));
#1236=DIRECTION('',(0.,0.,1.));
#1237=DIRECTION('',(1.,0.,0.));
#1238=DIRECTION('',(0.,1.,0.));
#1239=DIRECTION('',(0.,0.,1.));
#1240=DIRECTION('',(-1.,0.,0.));
#1241=DIRECTION('',(0.,0.,1.));
#1242=DIRECTION('',(1.,0.,0.));
#1243=DIRECTION('',(-2.60208521396521E-16,0.,1.));
#1244=DIRECTION('',(-1.,0.,0.));
#1245=DIRECTION('',(0.,0.,-1.));
#1246=DIRECTION('',(-1.,0.,0.));
#1247=DIRECTION('',(0.,0.,-1.));
#1248=DIRECTION('',(-1.,0.,0.));
#1249=DIRECTION('',(0.,0.,1.));
#1250=DIRECTION('',(1.,0.,0.));
#1251=DIRECTION('',(0.,0.,-1.));
#1252=DIRECTION('',(0.,0.,1.));
#1253=DIRECTION('',(1.,0.,0.));
#1254=DIRECTION('',(-1.,0.,0.));
#1255=DIRECTION('',(0.,0.,1.));
#1256=DIRECTION('',(0.,-1.,0.));
#1257=DIRECTION('',(0.,-1.,0.));
#1258=DIRECTION('',(0.,-1.,0.));
#1259=DIRECTION('',(0.,0.,-1.));
#1260=DIRECTION('',(-1.,0.,0.));
#1261=DIRECTION('',(-1.,0.,0.));
#1262=DIRECTION('',(0.,0.,1.));
#1263=DIRECTION('',(1.,0.,0.));
#1264=DIRECTION('',(0.,0.,1.));
#1265=DIRECTION('',(1.,0.,0.));
#1266=DIRECTION('',(0.,-1.,0.));
#1267=DIRECTION('',(0.,-1.,0.));
#1268=DIRECTION('',(1.,0.,0.));
#1269=DIRECTION('',(0.,0.,-1.));
#1270=DIRECTION('',(0.,-1.,0.));
#1271=DIRECTION('',(1.,0.,2.60208521396521E-16));
#1272=DIRECTION('',(2.60208521396521E-16,0.,-1.));
#1273=DIRECTION('',(0.,-1.,0.));
#1274=DIRECTION('',(0.,0.,-1.));
#1275=DIRECTION('',(-1.,0.,0.));
#1276=DIRECTION('',(0.,0.,1.));
#1277=DIRECTION('',(1.,0.,0.));
#1278=DIRECTION('',(-1.,0.,0.));
#1279=DIRECTION('',(0.,0.,1.));
#1280=DIRECTION('',(0.,-1.,0.));
#1281=DIRECTION('',(0.,0.,1.));
#1282=DIRECTION('',(0.,-1.,0.));
#1283=DIRECTION('',(0.,0.,1.));
#1284=DIRECTION('',(0.,0.,1.));
#1285=DIRECTION('',(1.,0.,0.));
#1286=DIRECTION('',(0.,0.,1.));
#1287=DIRECTION('',(1.,0.,0.));
#1288=DIRECTION('',(0.,0.,1.));
#1289=DIRECTION('',(1.,0.,0.));
#1290=DIRECTION('',(0.,0.,1.));
#1291=DIRECTION('',(0.,1.,0.));
#1292=DIRECTION('',(0.,0.,1.));
#1293=DIRECTION('',(-1.,0.,0.));
#1294=DIRECTION('',(-1.,0.,0.));
#1295=DIRECTION('',(0.,0.,1.));
#1296=DIRECTION('',(0.,0.,1.));
#1297=DIRECTION('',(1.,0.,0.));
#1298=DIRECTION('',(0.,0.,1.));
#1299=DIRECTION('',(1.,0.,0.));
#1300=DIRECTION('',(0.,0.,1.));
#1301=DIRECTION('',(1.,0.,0.));
#1302=DIRECTION('',(0.,0.,1.));
#1303=DIRECTION('',(-1.,0.,0.));
#1304=DIRECTION('',(0.,0.,1.));
#1305=DIRECTION('',(0.,-1.,0.));
#1306=DIRECTION('',(0.,-1.,0.));
#1307=DIRECTION('',(0.,0.,1.));
#1308=DIRECTION('',(0.,0.,1.));
#1309=DIRECTION('',(1.,0.,0.));
#1310=DIRECTION('',(0.,0.,1.));
#1311=DIRECTION('',(1.,0.,0.));
#1312=DIRECTION('',(0.,0.,1.));
#1313=DIRECTION('',(1.,0.,0.));
#1314=DIRECTION('',(0.,0.,1.));
#1315=DIRECTION('',(0.,1.,0.));
#1316=DIRECTION('',(0.,0.,1.));
#1317=DIRECTION('',(-1.,0.,0.));
#1318=DIRECTION('',(-1.,0.,0.));
#1319=DIRECTION('',(0.,0.,1.));
#1320=DIRECTION('',(0.,0.,1.));
#1321=DIRECTION('',(1.,0.,0.));
#1322=DIRECTION('',(0.,0.,1.));
#1323=DIRECTION('',(1.,0.,0.));
#1324=DIRECTION('',(0.,0.,1.));
#1325=DIRECTION('',(1.,0.,0.));
#1326=DIRECTION('',(0.,0.,1.));
#1327=DIRECTION('',(1.,0.,0.));
#1328=DIRECTION('',(0.,0.,1.));
#1329=DIRECTION('',(1.,0.,0.));
#1330=CARTESIAN_POINT('',(0.,0.,0.));
#1331=CARTESIAN_POINT('',(25.,20.,-5.));
#1332=CARTESIAN_POINT('',(25.,20.,0.));
#1333=CARTESIAN_POINT('',(30.,20.,0.));
#1334=CARTESIAN_POINT('',(25.,25.,0.));
#1335=CARTESIAN_POINT('',(25.,25.,-5.));
#1336=CARTESIAN_POINT('',(25.,25.,-5.));
#1337=CARTESIAN_POINT('',(25.,20.,-5.));
#1338=CARTESIAN_POINT('',(30.,20.,-5.));
#1339=CARTESIAN_POINT('',(30.,20.,-5.));
#1340=CARTESIAN_POINT('',(30.,-4.29608263075352,-5.));
#1341=CARTESIAN_POINT('',(30.,-4.29608263075352,0.));
#1342=CARTESIAN_POINT('',(30.,-20.,0.));
#1343=CARTESIAN_POINT('',(30.,-4.29608263075352,-5.));
#1344=CARTESIAN_POINT('',(30.,-20.,-5.));
#1345=CARTESIAN_POINT('',(30.,-20.,-5.));
#1346=CARTESIAN_POINT('',(25.,-20.,-5.));
#1347=CARTESIAN_POINT('',(25.,-20.,0.));
#1348=CARTESIAN_POINT('',(25.,-25.,0.));
#1349=CARTESIAN_POINT('',(25.,-20.,-5.));
#1350=CARTESIAN_POINT('',(25.,-25.,-5.));
#1351=CARTESIAN_POINT('',(25.,-25.,-5.));
#1352=CARTESIAN_POINT('',(0.,-25.,-5.));
#1353=CARTESIAN_POINT('',(0.,-25.,0.));
#1354=CARTESIAN_POINT('',(-25.,-25.,0.));
#1355=CARTESIAN_POINT('',(0.,-25.,-5.));
#1356=CARTESIAN_POINT('',(-25.,-25.,-5.));
#1357=CARTESIAN_POINT('',(-25.,-25.,-5.));
#1358=CARTESIAN_POINT('',(-25.,-20.,-5.));
#1359=CARTESIAN_POINT('',(-25.,-20.,0.));
#1360=CARTESIAN_POINT('',(-30.,-20.,0.));
#1361=CARTESIAN_POINT('',(-25.,-20.,-5.));
#1362=CARTESIAN_POINT('',(-30.,-20.,-5.));
#1363=CARTESIAN_POINT('',(-30.,-20.,-5.));
#1364=CARTESIAN_POINT('',(-30.,-4.29608263075352,-5.));
#1365=CARTESIAN_POINT('',(-30.,-4.29608263075352,0.));
#1366=CARTESIAN_POINT('',(-30.,20.,0.));
#1367=CARTESIAN_POINT('',(-30.,-4.29608263075352,-5.));
#1368=CARTESIAN_POINT('',(-30.,20.,-5.));
#1369=CARTESIAN_POINT('',(-30.,20.,-5.));
#1370=CARTESIAN_POINT('',(-25.,20.,-5.));
#1371=CARTESIAN_POINT('',(-25.,20.,0.));
#1372=CARTESIAN_POINT('',(-25.,25.,0.));
#1373=CARTESIAN_POINT('',(-25.,20.,-5.));
#1374=CARTESIAN_POINT('',(-25.,25.,-5.));
#1375=CARTESIAN_POINT('',(-25.,25.,-5.));
#1376=CARTESIAN_POINT('',(25.,20.,-5.));
#1377=CARTESIAN_POINT('',(25.,20.,0.));
#1378=CARTESIAN_POINT('',(35.,20.,0.));
#1379=CARTESIAN_POINT('',(25.,30.,0.));
#1380=CARTESIAN_POINT('',(35.,20.,-5.));
#1381=CARTESIAN_POINT('',(35.,20.,-5.));
#1382=CARTESIAN_POINT('',(25.,20.,-5.));
#1383=CARTESIAN_POINT('',(25.,30.,-5.));
#1384=CARTESIAN_POINT('',(25.,30.,-5.));
#1385=CARTESIAN_POINT('',(-16.1651388928294,30.,-5.));
#1386=CARTESIAN_POINT('',(-16.1651388928294,30.,0.));
#1387=CARTESIAN_POINT('',(-25.,30.,0.));
#1388=CARTESIAN_POINT('',(-16.1651388928294,30.,-5.));
#1389=CARTESIAN_POINT('',(-25.,30.,-5.));
#1390=CARTESIAN_POINT('',(-25.,30.,-5.));
#1391=CARTESIAN_POINT('',(-25.,20.,-5.));
#1392=CARTESIAN_POINT('',(-25.,20.,0.));
#1393=CARTESIAN_POINT('',(-35.,20.,0.));
#1394=CARTESIAN_POINT('',(-25.,20.,-5.));
#1395=CARTESIAN_POINT('',(-35.,20.,-5.));
#1396=CARTESIAN_POINT('',(-35.,20.,-5.));
#1397=CARTESIAN_POINT('',(-35.,-4.29608263075352,-5.));
#1398=CARTESIAN_POINT('',(-35.,-4.29608263075352,0.));
#1399=CARTESIAN_POINT('',(-35.,-20.,0.));
#1400=CARTESIAN_POINT('',(-35.,-4.29608263075352,-5.));
#1401=CARTESIAN_POINT('',(-35.,-20.,-5.));
#1402=CARTESIAN_POINT('',(-35.,-20.,-5.));
#1403=CARTESIAN_POINT('',(-25.,-20.,-5.));
#1404=CARTESIAN_POINT('',(-25.,-20.,0.));
#1405=CARTESIAN_POINT('',(-25.,-30.,0.));
#1406=CARTESIAN_POINT('',(-25.,-20.,-5.));
#1407=CARTESIAN_POINT('',(-25.,-30.,-5.));
#1408=CARTESIAN_POINT('',(-25.,-30.,-5.));
#1409=CARTESIAN_POINT('',(0.,-30.,-5.));
#1410=CARTESIAN_POINT('',(0.,-30.,0.));
#1411=CARTESIAN_POINT('',(25.,-30.,0.));
#1412=CARTESIAN_POINT('',(0.,-30.,-5.));
#1413=CARTESIAN_POINT('',(25.,-30.,-5.));
#1414=CARTESIAN_POINT('',(25.,-30.,-5.));
#1415=CARTESIAN_POINT('',(25.,-20.,-5.));
#1416=CARTESIAN_POINT('',(25.,-20.,0.));
#1417=CARTESIAN_POINT('',(35.,-20.,0.));
#1418=CARTESIAN_POINT('',(25.,-20.,-5.));
#1419=CARTESIAN_POINT('',(35.,-20.,-5.));
#1420=CARTESIAN_POINT('',(35.,-20.,-5.));
#1421=CARTESIAN_POINT('',(35.,-4.29608263075352,-5.));
#1422=CARTESIAN_POINT('',(35.,-4.29608263075352,0.));
#1423=CARTESIAN_POINT('',(35.,-4.29608263075352,-5.));
#1424=CARTESIAN_POINT('',(-16.1651388928294,25.,-5.));
#1425=CARTESIAN_POINT('',(-16.1651388928294,25.,0.));
#1426=CARTESIAN_POINT('',(-16.1651388928294,25.,-5.));
#1427=CARTESIAN_POINT('',(25.,20.,-5.));
#1428=CARTESIAN_POINT('',(25.,20.,0.));
#1429=CARTESIAN_POINT('',(0.,0.,0.));
#1430=CARTESIAN_POINT('',(3.46944695195361E-15,-25.,20.));
#1431=CARTESIAN_POINT('',(3.46944695195361E-15,-25.,5.));
#1432=CARTESIAN_POINT('',(3.,-25.,5.));
#1433=CARTESIAN_POINT('',(-13.,-25.,5.));
#1434=CARTESIAN_POINT('',(-13.,-25.,20.));
#1435=CARTESIAN_POINT('',(-13.,-25.,0.));
#1436=CARTESIAN_POINT('',(3.46944695195361E-15,-25.,0.));
#1437=CARTESIAN_POINT('',(-25.,-25.,0.));
#1438=CARTESIAN_POINT('',(-25.,-25.,20.));
#1439=CARTESIAN_POINT('',(-25.,-25.,20.));
#1440=CARTESIAN_POINT('',(3.46944695195361E-15,-25.,20.));
#1441=CARTESIAN_POINT('',(25.,-25.,20.));
#1442=CARTESIAN_POINT('',(25.,-25.,20.));
#1443=CARTESIAN_POINT('',(25.,-25.,0.));
#1444=CARTESIAN_POINT('',(3.46944695195361E-15,-25.,0.));
#1445=CARTESIAN_POINT('',(3.,-25.,0.));
#1446=CARTESIAN_POINT('',(3.,-25.,20.));
#1447=CARTESIAN_POINT('',(25.,20.,20.));
#1448=CARTESIAN_POINT('',(25.,20.,0.));
#1449=CARTESIAN_POINT('',(30.,20.,0.));
#1450=CARTESIAN_POINT('',(25.,25.,0.));
#1451=CARTESIAN_POINT('',(30.,20.,20.));
#1452=CARTESIAN_POINT('',(30.,20.,20.));
#1453=CARTESIAN_POINT('',(25.,20.,20.));
#1454=CARTESIAN_POINT('',(25.,25.,20.));
#1455=CARTESIAN_POINT('',(25.,25.,20.));
#1456=CARTESIAN_POINT('',(30.,3.46944695195361E-15,20.));
#1457=CARTESIAN_POINT('',(30.,3.46944695195361E-15,0.));
#1458=CARTESIAN_POINT('',(30.,-20.,0.));
#1459=CARTESIAN_POINT('',(30.,-20.,20.));
#1460=CARTESIAN_POINT('',(30.,-20.,20.));
#1461=CARTESIAN_POINT('',(30.,3.46944695195361E-15,20.));
#1462=CARTESIAN_POINT('',(25.,-20.,20.));
#1463=CARTESIAN_POINT('',(25.,-20.,0.));
#1464=CARTESIAN_POINT('',(25.,-20.,20.));
#1465=CARTESIAN_POINT('',(-25.,-20.,20.));
#1466=CARTESIAN_POINT('',(-25.,-20.,0.));
#1467=CARTESIAN_POINT('',(-30.,-20.,0.));
#1468=CARTESIAN_POINT('',(-30.,-20.,20.));
#1469=CARTESIAN_POINT('',(-30.,-20.,20.));
#1470=CARTESIAN_POINT('',(-25.,-20.,20.));
#1471=CARTESIAN_POINT('',(-30.,-3.46944695195361E-15,20.));
#1472=CARTESIAN_POINT('',(-30.,-3.46944695195361E-15,0.));
#1473=CARTESIAN_POINT('',(-30.,20.,0.));
#1474=CARTESIAN_POINT('',(-30.,20.,20.));
#1475=CARTESIAN_POINT('',(-30.,20.,20.));
#1476=CARTESIAN_POINT('',(-30.,-3.46944695195361E-15,20.));
#1477=CARTESIAN_POINT('',(-25.,20.,20.));
#1478=CARTESIAN_POINT('',(-25.,20.,0.));
#1479=CARTESIAN_POINT('',(-25.,25.,0.));
#1480=CARTESIAN_POINT('',(-25.,25.,20.));
#1481=CARTESIAN_POINT('',(-25.,25.,20.));
#1482=CARTESIAN_POINT('',(-25.,20.,20.));
#1483=CARTESIAN_POINT('',(25.,20.,20.));
#1484=CARTESIAN_POINT('',(25.,20.,0.));
#1485=CARTESIAN_POINT('',(35.,20.,0.));
#1486=CARTESIAN_POINT('',(25.,30.,0.));
#1487=CARTESIAN_POINT('',(25.,30.,20.));
#1488=CARTESIAN_POINT('',(25.,30.,20.));
#1489=CARTESIAN_POINT('',(25.,20.,20.));
#1490=CARTESIAN_POINT('',(35.,20.,20.));
#1491=CARTESIAN_POINT('',(35.,20.,20.));
#1492=CARTESIAN_POINT('',(0.,30.,20.));
#1493=CARTESIAN_POINT('',(0.,30.,0.));
#1494=CARTESIAN_POINT('',(-25.,30.,0.));
#1495=CARTESIAN_POINT('',(-25.,30.,20.));
#1496=CARTESIAN_POINT('',(-25.,30.,20.));
#1497=CARTESIAN_POINT('',(0.,30.,20.));
#1498=CARTESIAN_POINT('',(-25.,20.,20.));
#1499=CARTESIAN_POINT('',(-25.,20.,0.));
#1500=CARTESIAN_POINT('',(-35.,20.,0.));
#1501=CARTESIAN_POINT('',(-35.,20.,20.));
#1502=CARTESIAN_POINT('',(-35.,20.,20.));
#1503=CARTESIAN_POINT('',(-25.,20.,20.));
#1504=CARTESIAN_POINT('',(-35.,-3.46944695195361E-15,20.));
#1505=CARTESIAN_POINT('',(-35.,-3.46944695195361E-15,0.));
#1506=CARTESIAN_POINT('',(-35.,-20.,0.));
#1507=CARTESIAN_POINT('',(-35.,-20.,20.));
#1508=CARTESIAN_POINT('',(-35.,-20.,20.));
#1509=CARTESIAN_POINT('',(-35.,-3.46944695195361E-15,20.));
#1510=CARTESIAN_POINT('',(-25.,-20.,20.));
#1511=CARTESIAN_POINT('',(-25.,-20.,0.));
#1512=CARTESIAN_POINT('',(-25.,-30.,0.));
#1513=CARTESIAN_POINT('',(-25.,-30.,20.));
#1514=CARTESIAN_POINT('',(-25.,-30.,20.));
#1515=CARTESIAN_POINT('',(-25.,-20.,20.));
#1516=CARTESIAN_POINT('',(3.46944695195361E-15,-30.,20.));
#1517=CARTESIAN_POINT('',(3.46944695195361E-15,-30.,0.));
#1518=CARTESIAN_POINT('',(-13.,-30.,0.));
#1519=CARTESIAN_POINT('',(-13.,-30.,2.5));
#1520=CARTESIAN_POINT('',(-13.,-30.,5.));
#1521=CARTESIAN_POINT('',(-5.,-30.,5.));
#1522=CARTESIAN_POINT('',(3.,-30.,5.));
#1523=CARTESIAN_POINT('',(3.,-30.,2.5));
#1524=CARTESIAN_POINT('',(3.,-30.,0.));
#1525=CARTESIAN_POINT('',(3.46944695195361E-15,-30.,0.));
#1526=CARTESIAN_POINT('',(25.,-30.,0.));
#1527=CARTESIAN_POINT('',(25.,-30.,20.));
#1528=CARTESIAN_POINT('',(25.,-30.,20.));
#1529=CARTESIAN_POINT('',(3.46944695195361E-15,-30.,20.));
#1530=CARTESIAN_POINT('',(25.,-20.,20.));
#1531=CARTESIAN_POINT('',(25.,-20.,0.));
#1532=CARTESIAN_POINT('',(35.,-20.,0.));
#1533=CARTESIAN_POINT('',(35.,-20.,20.));
#1534=CARTESIAN_POINT('',(35.,-20.,20.));
#1535=CARTESIAN_POINT('',(25.,-20.,20.));
#1536=CARTESIAN_POINT('',(35.,3.46944695195361E-15,20.));
#1537=CARTESIAN_POINT('',(35.,3.46944695195361E-15,0.));
#1538=CARTESIAN_POINT('',(35.,3.46944695195361E-15,20.));
#1539=CARTESIAN_POINT('',(0.,25.,20.));
#1540=CARTESIAN_POINT('',(0.,25.,0.));
#1541=CARTESIAN_POINT('',(0.,25.,20.));
#1542=CARTESIAN_POINT('',(25.,20.,20.));
#1543=CARTESIAN_POINT('',(25.,20.,0.));
#1544=CARTESIAN_POINT('',(-13.,-5.,0.));
#1545=CARTESIAN_POINT('',(3.,-5.,0.));
#1546=CARTESIAN_POINT('',(-13.,-5.,2.5));
#1547=CARTESIAN_POINT('',(-13.,-5.,5.));
#1548=CARTESIAN_POINT('',(3.,-5.,2.5));
#1549=CARTESIAN_POINT('',(3.,-5.,5.));
#1550=CARTESIAN_POINT('',(-5.,-5.,5.));
#1551=CARTESIAN_POINT('',(0.,0.,0.));
#1552=CARTESIAN_POINT('',(-30.,-3.46944695195361E-15,-5.));
#1553=CARTESIAN_POINT('',(-30.,-3.46944695195361E-15,0.));
#1554=CARTESIAN_POINT('',(-30.,20.,0.));
#1555=CARTESIAN_POINT('',(-30.,-20.,0.));
#1556=CARTESIAN_POINT('',(-30.,20.,-5.));
#1557=CARTESIAN_POINT('',(-30.,20.,-5.));
#1558=CARTESIAN_POINT('',(-30.,-3.46944695195361E-15,-5.));
#1559=CARTESIAN_POINT('',(-30.,-20.,-5.));
#1560=CARTESIAN_POINT('',(-30.,-20.,-5.));
#1561=CARTESIAN_POINT('',(-25.,-20.,-5.));
#1562=CARTESIAN_POINT('',(-25.,-20.,0.));
#1563=CARTESIAN_POINT('',(-25.,-25.,0.));
#1564=CARTESIAN_POINT('',(-25.,-20.,-5.));
#1565=CARTESIAN_POINT('',(-25.,-25.,-5.));
#1566=CARTESIAN_POINT('',(-25.,-25.,-5.));
#1567=CARTESIAN_POINT('',(3.46944695195361E-15,-25.,-5.));
#1568=CARTESIAN_POINT('',(3.46944695195361E-15,-25.,0.));
#1569=CARTESIAN_POINT('',(25.,-25.,0.));
#1570=CARTESIAN_POINT('',(3.46944695195361E-15,-25.,-5.));
#1571=CARTESIAN_POINT('',(25.,-25.,-5.));
#1572=CARTESIAN_POINT('',(25.,-25.,-5.));
#1573=CARTESIAN_POINT('',(25.,-20.,-5.));
#1574=CARTESIAN_POINT('',(25.,-20.,0.));
#1575=CARTESIAN_POINT('',(30.,-20.,0.));
#1576=CARTESIAN_POINT('',(25.,-20.,-5.));
#1577=CARTESIAN_POINT('',(30.,-20.,-5.));
#1578=CARTESIAN_POINT('',(30.,-20.,-5.));
#1579=CARTESIAN_POINT('',(30.,3.46944695195361E-15,-5.));
#1580=CARTESIAN_POINT('',(30.,3.46944695195361E-15,0.));
#1581=CARTESIAN_POINT('',(30.,20.,0.));
#1582=CARTESIAN_POINT('',(30.,3.46944695195361E-15,-5.));
#1583=CARTESIAN_POINT('',(30.,20.,-5.));
#1584=CARTESIAN_POINT('',(30.,20.,-5.));
#1585=CARTESIAN_POINT('',(25.,20.,-5.));
#1586=CARTESIAN_POINT('',(25.,20.,0.));
#1587=CARTESIAN_POINT('',(25.,25.,0.));
#1588=CARTESIAN_POINT('',(25.,20.,-5.));
#1589=CARTESIAN_POINT('',(25.,25.,-5.));
#1590=CARTESIAN_POINT('',(25.,25.,-5.));
#1591=CARTESIAN_POINT('',(0.,25.,-5.));
#1592=CARTESIAN_POINT('',(0.,25.,0.));
#1593=CARTESIAN_POINT('',(-25.,25.,0.));
#1594=CARTESIAN_POINT('',(0.,25.,-5.));
#1595=CARTESIAN_POINT('',(-25.,25.,-5.));
#1596=CARTESIAN_POINT('',(-25.,25.,-5.));
#1597=CARTESIAN_POINT('',(-25.,20.,-5.));
#1598=CARTESIAN_POINT('',(-25.,20.,0.));
#1599=CARTESIAN_POINT('',(-25.,20.,-5.));
#1600=CARTESIAN_POINT('',(0.,0.,-5.));
#1601=CARTESIAN_POINT('',(0.,0.,0.));
#1602=MECHANICAL_DESIGN_GEOMETRIC_PRESENTATION_REPRESENTATION('',(#929),
#1605);
#1603=MECHANICAL_DESIGN_GEOMETRIC_PRESENTATION_REPRESENTATION('',(#930),
#1606);
#1604=MECHANICAL_DESIGN_GEOMETRIC_PRESENTATION_REPRESENTATION('',(#931),
#1607);
#1605=(
GEOMETRIC_REPRESENTATION_CONTEXT(3)
GLOBAL_UNCERTAINTY_ASSIGNED_CONTEXT((#1608))
GLOBAL_UNIT_ASSIGNED_CONTEXT((#1617,#1614,#1611))
REPRESENTATION_CONTEXT('Part 3','TOP_LEVEL_ASSEMBLY_PART')
);
#1606=(
GEOMETRIC_REPRESENTATION_CONTEXT(3)
GLOBAL_UNCERTAINTY_ASSIGNED_CONTEXT((#1609))
GLOBAL_UNIT_ASSIGNED_CONTEXT((#1618,#1615,#1612))
REPRESENTATION_CONTEXT('Part 2','TOP_LEVEL_ASSEMBLY_PART')
);
#1607=(
GEOMETRIC_REPRESENTATION_CONTEXT(3)
GLOBAL_UNCERTAINTY_ASSIGNED_CONTEXT((#1610))
GLOBAL_UNIT_ASSIGNED_CONTEXT((#1619,#1616,#1613))
REPRESENTATION_CONTEXT('Part 1','TOP_LEVEL_ASSEMBLY_PART')
);
#1608=UNCERTAINTY_MEASURE_WITH_UNIT(LENGTH_MEASURE(1.E-5),#1617,
'DISTANCE_ACCURACY_VALUE','Maximum Tolerance applied to model');
#1609=UNCERTAINTY_MEASURE_WITH_UNIT(LENGTH_MEASURE(1.E-5),#1618,
'DISTANCE_ACCURACY_VALUE','Maximum Tolerance applied to model');
#1610=UNCERTAINTY_MEASURE_WITH_UNIT(LENGTH_MEASURE(1.E-5),#1619,
'DISTANCE_ACCURACY_VALUE','Maximum Tolerance applied to model');
#1611=(
NAMED_UNIT(*)
SI_UNIT($,.STERADIAN.)
SOLID_ANGLE_UNIT()
);
#1612=(
NAMED_UNIT(*)
SI_UNIT($,.STERADIAN.)
SOLID_ANGLE_UNIT()
);
#1613=(
NAMED_UNIT(*)
SI_UNIT($,.STERADIAN.)
SOLID_ANGLE_UNIT()
);
#1614=(
NAMED_UNIT(*)
PLANE_ANGLE_UNIT()
SI_UNIT($,.RADIAN.)
);
#1615=(
NAMED_UNIT(*)
PLANE_ANGLE_UNIT()
SI_UNIT($,.RADIAN.)
);
#1616=(
NAMED_UNIT(*)
PLANE_ANGLE_UNIT()
SI_UNIT($,.RADIAN.)
);
#1617=(
LENGTH_UNIT()
NAMED_UNIT(*)
SI_UNIT(.MILLI.,.METRE.)
);
#1618=(
LENGTH_UNIT()
NAMED_UNIT(*)
SI_UNIT(.MILLI.,.METRE.)
);
#1619=(
LENGTH_UNIT()
NAMED_UNIT(*)
SI_UNIT(.MILLI.,.METRE.)
);
#1620=PRODUCT_DEFINITION_SHAPE('','',#1623);
#1621=PRODUCT_DEFINITION_SHAPE('','',#1624);
#1622=PRODUCT_DEFINITION_SHAPE('','',#1625);
#1623=PRODUCT_DEFINITION('','',#1629,#1626);
#1624=PRODUCT_DEFINITION('','',#1630,#1627);
#1625=PRODUCT_DEFINITION('','',#1631,#1628);
#1626=PRODUCT_DEFINITION_CONTEXT('',#1647,'design');
#1627=PRODUCT_DEFINITION_CONTEXT('',#1648,'design');
#1628=PRODUCT_DEFINITION_CONTEXT('',#1649,'design');
#1629=PRODUCT_DEFINITION_FORMATION_WITH_SPECIFIED_SOURCE('','',#1635,
 .NOT_KNOWN.);
#1630=PRODUCT_DEFINITION_FORMATION_WITH_SPECIFIED_SOURCE('','',#1636,
 .NOT_KNOWN.);
#1631=PRODUCT_DEFINITION_FORMATION_WITH_SPECIFIED_SOURCE('','',#1637,
 .NOT_KNOWN.);
#1632=PRODUCT_RELATED_PRODUCT_CATEGORY('','',(#1635));
#1633=PRODUCT_RELATED_PRODUCT_CATEGORY('','',(#1636));
#1634=PRODUCT_RELATED_PRODUCT_CATEGORY('','',(#1637));
#1635=PRODUCT('Part 3','Part 3','Part 3',(#1641));
#1636=PRODUCT('Part 2','Part 2','Part 2',(#1642));
#1637=PRODUCT('Part 1','Part 1','Part 1',(#1643));
#1638=PRODUCT_CATEGORY('','');
#1639=PRODUCT_CATEGORY('','');
#1640=PRODUCT_CATEGORY('','');
#1641=PRODUCT_CONTEXT('',#1647,'mechanical');
#1642=PRODUCT_CONTEXT('',#1648,'mechanical');
#1643=PRODUCT_CONTEXT('',#1649,'mechanical');
#1644=APPLICATION_PROTOCOL_DEFINITION('international standard',
'ap242_managed_model_based_3d_engineering',2020,#1647);
#1645=APPLICATION_PROTOCOL_DEFINITION('international standard',
'ap242_managed_model_based_3d_engineering',2020,#1648);
#1646=APPLICATION_PROTOCOL_DEFINITION('international standard',
'ap242_managed_model_based_3d_engineering',2020,#1649);
#1647=APPLICATION_CONTEXT('managed model based 3d engineering');
#1648=APPLICATION_CONTEXT('managed model based 3d engineering');
#1649=APPLICATION_CONTEXT('managed model based 3d engineering');
ENDSEC;
END-ISO-10303-21;
