%TF.GenerationSoftware,KiCad,Pcbnew,10.99.0-unknown-ab00e101b5~187~ubuntu24.04.1*%
%TF.CreationDate,2026-05-12T20:19:52-04:00*%
%TF.ProjectId,ClockyFella,436c6f63-6b79-4466-956c-6c612e6b6963,rev?*%
%TF.SameCoordinates,Original*%
%TF.FileFunction,Legend,Top*%
%TF.FilePolarity,Positive*%
%FSLAX46Y46*%
G04 Gerber Fmt 4.6, Leading zero omitted, Abs format (unit mm)*
G04 Created by KiCad (PCBNEW 10.99.0-unknown-ab00e101b5~187~ubuntu24.04.1) date 2026-05-12 20:19:52*
%MOMM*%
%LPD*%
G01*
G04 APERTURE LIST*
%ADD10C,0.150000*%
%ADD11C,0.120000*%
%ADD12C,0.152400*%
%ADD13C,0.508000*%
G04 APERTURE END LIST*
D10*
X163923333Y-105409580D02*
X163875714Y-105457200D01*
X163875714Y-105457200D02*
X163732857Y-105504819D01*
X163732857Y-105504819D02*
X163637619Y-105504819D01*
X163637619Y-105504819D02*
X163494762Y-105457200D01*
X163494762Y-105457200D02*
X163399524Y-105361961D01*
X163399524Y-105361961D02*
X163351905Y-105266723D01*
X163351905Y-105266723D02*
X163304286Y-105076247D01*
X163304286Y-105076247D02*
X163304286Y-104933390D01*
X163304286Y-104933390D02*
X163351905Y-104742914D01*
X163351905Y-104742914D02*
X163399524Y-104647676D01*
X163399524Y-104647676D02*
X163494762Y-104552438D01*
X163494762Y-104552438D02*
X163637619Y-104504819D01*
X163637619Y-104504819D02*
X163732857Y-104504819D01*
X163732857Y-104504819D02*
X163875714Y-104552438D01*
X163875714Y-104552438D02*
X163923333Y-104600057D01*
X164256667Y-104504819D02*
X164875714Y-104504819D01*
X164875714Y-104504819D02*
X164542381Y-104885771D01*
X164542381Y-104885771D02*
X164685238Y-104885771D01*
X164685238Y-104885771D02*
X164780476Y-104933390D01*
X164780476Y-104933390D02*
X164828095Y-104981009D01*
X164828095Y-104981009D02*
X164875714Y-105076247D01*
X164875714Y-105076247D02*
X164875714Y-105314342D01*
X164875714Y-105314342D02*
X164828095Y-105409580D01*
X164828095Y-105409580D02*
X164780476Y-105457200D01*
X164780476Y-105457200D02*
X164685238Y-105504819D01*
X164685238Y-105504819D02*
X164399524Y-105504819D01*
X164399524Y-105504819D02*
X164304286Y-105457200D01*
X164304286Y-105457200D02*
X164256667Y-105409580D01*
X176807200Y-101043332D02*
X176854819Y-100900475D01*
X176854819Y-100900475D02*
X176854819Y-100662380D01*
X176854819Y-100662380D02*
X176807200Y-100567142D01*
X176807200Y-100567142D02*
X176759580Y-100519523D01*
X176759580Y-100519523D02*
X176664342Y-100471904D01*
X176664342Y-100471904D02*
X176569104Y-100471904D01*
X176569104Y-100471904D02*
X176473866Y-100519523D01*
X176473866Y-100519523D02*
X176426247Y-100567142D01*
X176426247Y-100567142D02*
X176378628Y-100662380D01*
X176378628Y-100662380D02*
X176331009Y-100852856D01*
X176331009Y-100852856D02*
X176283390Y-100948094D01*
X176283390Y-100948094D02*
X176235771Y-100995713D01*
X176235771Y-100995713D02*
X176140533Y-101043332D01*
X176140533Y-101043332D02*
X176045295Y-101043332D01*
X176045295Y-101043332D02*
X175950057Y-100995713D01*
X175950057Y-100995713D02*
X175902438Y-100948094D01*
X175902438Y-100948094D02*
X175854819Y-100852856D01*
X175854819Y-100852856D02*
X175854819Y-100614761D01*
X175854819Y-100614761D02*
X175902438Y-100471904D01*
X175854819Y-100138570D02*
X176854819Y-99900475D01*
X176854819Y-99900475D02*
X176140533Y-99709999D01*
X176140533Y-99709999D02*
X176854819Y-99519523D01*
X176854819Y-99519523D02*
X175854819Y-99281428D01*
X175854819Y-98995713D02*
X175854819Y-98376666D01*
X175854819Y-98376666D02*
X176235771Y-98709999D01*
X176235771Y-98709999D02*
X176235771Y-98567142D01*
X176235771Y-98567142D02*
X176283390Y-98471904D01*
X176283390Y-98471904D02*
X176331009Y-98424285D01*
X176331009Y-98424285D02*
X176426247Y-98376666D01*
X176426247Y-98376666D02*
X176664342Y-98376666D01*
X176664342Y-98376666D02*
X176759580Y-98424285D01*
X176759580Y-98424285D02*
X176807200Y-98471904D01*
X176807200Y-98471904D02*
X176854819Y-98567142D01*
X176854819Y-98567142D02*
X176854819Y-98852856D01*
X176854819Y-98852856D02*
X176807200Y-98948094D01*
X176807200Y-98948094D02*
X176759580Y-98995713D01*
X171999580Y-105906666D02*
X172047200Y-105954285D01*
X172047200Y-105954285D02*
X172094819Y-106097142D01*
X172094819Y-106097142D02*
X172094819Y-106192380D01*
X172094819Y-106192380D02*
X172047200Y-106335237D01*
X172047200Y-106335237D02*
X171951961Y-106430475D01*
X171951961Y-106430475D02*
X171856723Y-106478094D01*
X171856723Y-106478094D02*
X171666247Y-106525713D01*
X171666247Y-106525713D02*
X171523390Y-106525713D01*
X171523390Y-106525713D02*
X171332914Y-106478094D01*
X171332914Y-106478094D02*
X171237676Y-106430475D01*
X171237676Y-106430475D02*
X171142438Y-106335237D01*
X171142438Y-106335237D02*
X171094819Y-106192380D01*
X171094819Y-106192380D02*
X171094819Y-106097142D01*
X171094819Y-106097142D02*
X171142438Y-105954285D01*
X171142438Y-105954285D02*
X171190057Y-105906666D01*
X171094819Y-105001904D02*
X171094819Y-105478094D01*
X171094819Y-105478094D02*
X171571009Y-105525713D01*
X171571009Y-105525713D02*
X171523390Y-105478094D01*
X171523390Y-105478094D02*
X171475771Y-105382856D01*
X171475771Y-105382856D02*
X171475771Y-105144761D01*
X171475771Y-105144761D02*
X171523390Y-105049523D01*
X171523390Y-105049523D02*
X171571009Y-105001904D01*
X171571009Y-105001904D02*
X171666247Y-104954285D01*
X171666247Y-104954285D02*
X171904342Y-104954285D01*
X171904342Y-104954285D02*
X171999580Y-105001904D01*
X171999580Y-105001904D02*
X172047200Y-105049523D01*
X172047200Y-105049523D02*
X172094819Y-105144761D01*
X172094819Y-105144761D02*
X172094819Y-105382856D01*
X172094819Y-105382856D02*
X172047200Y-105478094D01*
X172047200Y-105478094D02*
X171999580Y-105525713D01*
X133927142Y-117999580D02*
X133879523Y-118047200D01*
X133879523Y-118047200D02*
X133736666Y-118094819D01*
X133736666Y-118094819D02*
X133641428Y-118094819D01*
X133641428Y-118094819D02*
X133498571Y-118047200D01*
X133498571Y-118047200D02*
X133403333Y-117951961D01*
X133403333Y-117951961D02*
X133355714Y-117856723D01*
X133355714Y-117856723D02*
X133308095Y-117666247D01*
X133308095Y-117666247D02*
X133308095Y-117523390D01*
X133308095Y-117523390D02*
X133355714Y-117332914D01*
X133355714Y-117332914D02*
X133403333Y-117237676D01*
X133403333Y-117237676D02*
X133498571Y-117142438D01*
X133498571Y-117142438D02*
X133641428Y-117094819D01*
X133641428Y-117094819D02*
X133736666Y-117094819D01*
X133736666Y-117094819D02*
X133879523Y-117142438D01*
X133879523Y-117142438D02*
X133927142Y-117190057D01*
X134879523Y-118094819D02*
X134308095Y-118094819D01*
X134593809Y-118094819D02*
X134593809Y-117094819D01*
X134593809Y-117094819D02*
X134498571Y-117237676D01*
X134498571Y-117237676D02*
X134403333Y-117332914D01*
X134403333Y-117332914D02*
X134308095Y-117380533D01*
X135498571Y-117094819D02*
X135593809Y-117094819D01*
X135593809Y-117094819D02*
X135689047Y-117142438D01*
X135689047Y-117142438D02*
X135736666Y-117190057D01*
X135736666Y-117190057D02*
X135784285Y-117285295D01*
X135784285Y-117285295D02*
X135831904Y-117475771D01*
X135831904Y-117475771D02*
X135831904Y-117713866D01*
X135831904Y-117713866D02*
X135784285Y-117904342D01*
X135784285Y-117904342D02*
X135736666Y-117999580D01*
X135736666Y-117999580D02*
X135689047Y-118047200D01*
X135689047Y-118047200D02*
X135593809Y-118094819D01*
X135593809Y-118094819D02*
X135498571Y-118094819D01*
X135498571Y-118094819D02*
X135403333Y-118047200D01*
X135403333Y-118047200D02*
X135355714Y-117999580D01*
X135355714Y-117999580D02*
X135308095Y-117904342D01*
X135308095Y-117904342D02*
X135260476Y-117713866D01*
X135260476Y-117713866D02*
X135260476Y-117475771D01*
X135260476Y-117475771D02*
X135308095Y-117285295D01*
X135308095Y-117285295D02*
X135355714Y-117190057D01*
X135355714Y-117190057D02*
X135403333Y-117142438D01*
X135403333Y-117142438D02*
X135498571Y-117094819D01*
X163918095Y-96737319D02*
X163918095Y-97546842D01*
X163918095Y-97546842D02*
X163965714Y-97642080D01*
X163965714Y-97642080D02*
X164013333Y-97689700D01*
X164013333Y-97689700D02*
X164108571Y-97737319D01*
X164108571Y-97737319D02*
X164299047Y-97737319D01*
X164299047Y-97737319D02*
X164394285Y-97689700D01*
X164394285Y-97689700D02*
X164441904Y-97642080D01*
X164441904Y-97642080D02*
X164489523Y-97546842D01*
X164489523Y-97546842D02*
X164489523Y-96737319D01*
X165489523Y-97737319D02*
X164918095Y-97737319D01*
X165203809Y-97737319D02*
X165203809Y-96737319D01*
X165203809Y-96737319D02*
X165108571Y-96880176D01*
X165108571Y-96880176D02*
X165013333Y-96975414D01*
X165013333Y-96975414D02*
X164918095Y-97023033D01*
X151301904Y-113550180D02*
X151301904Y-112740657D01*
X151301904Y-112740657D02*
X151254285Y-112645419D01*
X151254285Y-112645419D02*
X151206666Y-112597800D01*
X151206666Y-112597800D02*
X151111428Y-112550180D01*
X151111428Y-112550180D02*
X150920952Y-112550180D01*
X150920952Y-112550180D02*
X150825714Y-112597800D01*
X150825714Y-112597800D02*
X150778095Y-112645419D01*
X150778095Y-112645419D02*
X150730476Y-112740657D01*
X150730476Y-112740657D02*
X150730476Y-113550180D01*
X149825714Y-113216847D02*
X149825714Y-112550180D01*
X150063809Y-113597800D02*
X150301904Y-112883514D01*
X150301904Y-112883514D02*
X149682857Y-112883514D01*
X163973333Y-107484819D02*
X163640000Y-107008628D01*
X163401905Y-107484819D02*
X163401905Y-106484819D01*
X163401905Y-106484819D02*
X163782857Y-106484819D01*
X163782857Y-106484819D02*
X163878095Y-106532438D01*
X163878095Y-106532438D02*
X163925714Y-106580057D01*
X163925714Y-106580057D02*
X163973333Y-106675295D01*
X163973333Y-106675295D02*
X163973333Y-106818152D01*
X163973333Y-106818152D02*
X163925714Y-106913390D01*
X163925714Y-106913390D02*
X163878095Y-106961009D01*
X163878095Y-106961009D02*
X163782857Y-107008628D01*
X163782857Y-107008628D02*
X163401905Y-107008628D01*
X164354286Y-106580057D02*
X164401905Y-106532438D01*
X164401905Y-106532438D02*
X164497143Y-106484819D01*
X164497143Y-106484819D02*
X164735238Y-106484819D01*
X164735238Y-106484819D02*
X164830476Y-106532438D01*
X164830476Y-106532438D02*
X164878095Y-106580057D01*
X164878095Y-106580057D02*
X164925714Y-106675295D01*
X164925714Y-106675295D02*
X164925714Y-106770533D01*
X164925714Y-106770533D02*
X164878095Y-106913390D01*
X164878095Y-106913390D02*
X164306667Y-107484819D01*
X164306667Y-107484819D02*
X164925714Y-107484819D01*
X144224819Y-119147857D02*
X143748628Y-119481190D01*
X144224819Y-119719285D02*
X143224819Y-119719285D01*
X143224819Y-119719285D02*
X143224819Y-119338333D01*
X143224819Y-119338333D02*
X143272438Y-119243095D01*
X143272438Y-119243095D02*
X143320057Y-119195476D01*
X143320057Y-119195476D02*
X143415295Y-119147857D01*
X143415295Y-119147857D02*
X143558152Y-119147857D01*
X143558152Y-119147857D02*
X143653390Y-119195476D01*
X143653390Y-119195476D02*
X143701009Y-119243095D01*
X143701009Y-119243095D02*
X143748628Y-119338333D01*
X143748628Y-119338333D02*
X143748628Y-119719285D01*
X143320057Y-118766904D02*
X143272438Y-118719285D01*
X143272438Y-118719285D02*
X143224819Y-118624047D01*
X143224819Y-118624047D02*
X143224819Y-118385952D01*
X143224819Y-118385952D02*
X143272438Y-118290714D01*
X143272438Y-118290714D02*
X143320057Y-118243095D01*
X143320057Y-118243095D02*
X143415295Y-118195476D01*
X143415295Y-118195476D02*
X143510533Y-118195476D01*
X143510533Y-118195476D02*
X143653390Y-118243095D01*
X143653390Y-118243095D02*
X144224819Y-118814523D01*
X144224819Y-118814523D02*
X144224819Y-118195476D01*
X143558152Y-117338333D02*
X144224819Y-117338333D01*
X143177200Y-117576428D02*
X143891485Y-117814523D01*
X143891485Y-117814523D02*
X143891485Y-117195476D01*
X169191009Y-124955714D02*
X169238628Y-124812857D01*
X169238628Y-124812857D02*
X169286247Y-124765238D01*
X169286247Y-124765238D02*
X169381485Y-124717619D01*
X169381485Y-124717619D02*
X169524342Y-124717619D01*
X169524342Y-124717619D02*
X169619580Y-124765238D01*
X169619580Y-124765238D02*
X169667200Y-124812857D01*
X169667200Y-124812857D02*
X169714819Y-124908095D01*
X169714819Y-124908095D02*
X169714819Y-125289047D01*
X169714819Y-125289047D02*
X168714819Y-125289047D01*
X168714819Y-125289047D02*
X168714819Y-124955714D01*
X168714819Y-124955714D02*
X168762438Y-124860476D01*
X168762438Y-124860476D02*
X168810057Y-124812857D01*
X168810057Y-124812857D02*
X168905295Y-124765238D01*
X168905295Y-124765238D02*
X169000533Y-124765238D01*
X169000533Y-124765238D02*
X169095771Y-124812857D01*
X169095771Y-124812857D02*
X169143390Y-124860476D01*
X169143390Y-124860476D02*
X169191009Y-124955714D01*
X169191009Y-124955714D02*
X169191009Y-125289047D01*
X168714819Y-124431904D02*
X168714819Y-123860476D01*
X169714819Y-124146190D02*
X168714819Y-124146190D01*
X169714819Y-123003333D02*
X169714819Y-123574761D01*
X169714819Y-123289047D02*
X168714819Y-123289047D01*
X168714819Y-123289047D02*
X168857676Y-123384285D01*
X168857676Y-123384285D02*
X168952914Y-123479523D01*
X168952914Y-123479523D02*
X169000533Y-123574761D01*
X165305595Y-115234819D02*
X165305595Y-116044342D01*
X165305595Y-116044342D02*
X165353214Y-116139580D01*
X165353214Y-116139580D02*
X165400833Y-116187200D01*
X165400833Y-116187200D02*
X165496071Y-116234819D01*
X165496071Y-116234819D02*
X165686547Y-116234819D01*
X165686547Y-116234819D02*
X165781785Y-116187200D01*
X165781785Y-116187200D02*
X165829404Y-116139580D01*
X165829404Y-116139580D02*
X165877023Y-116044342D01*
X165877023Y-116044342D02*
X165877023Y-115234819D01*
X166305595Y-115330057D02*
X166353214Y-115282438D01*
X166353214Y-115282438D02*
X166448452Y-115234819D01*
X166448452Y-115234819D02*
X166686547Y-115234819D01*
X166686547Y-115234819D02*
X166781785Y-115282438D01*
X166781785Y-115282438D02*
X166829404Y-115330057D01*
X166829404Y-115330057D02*
X166877023Y-115425295D01*
X166877023Y-115425295D02*
X166877023Y-115520533D01*
X166877023Y-115520533D02*
X166829404Y-115663390D01*
X166829404Y-115663390D02*
X166257976Y-116234819D01*
X166257976Y-116234819D02*
X166877023Y-116234819D01*
X158644819Y-119177857D02*
X158168628Y-119511190D01*
X158644819Y-119749285D02*
X157644819Y-119749285D01*
X157644819Y-119749285D02*
X157644819Y-119368333D01*
X157644819Y-119368333D02*
X157692438Y-119273095D01*
X157692438Y-119273095D02*
X157740057Y-119225476D01*
X157740057Y-119225476D02*
X157835295Y-119177857D01*
X157835295Y-119177857D02*
X157978152Y-119177857D01*
X157978152Y-119177857D02*
X158073390Y-119225476D01*
X158073390Y-119225476D02*
X158121009Y-119273095D01*
X158121009Y-119273095D02*
X158168628Y-119368333D01*
X158168628Y-119368333D02*
X158168628Y-119749285D01*
X157740057Y-118796904D02*
X157692438Y-118749285D01*
X157692438Y-118749285D02*
X157644819Y-118654047D01*
X157644819Y-118654047D02*
X157644819Y-118415952D01*
X157644819Y-118415952D02*
X157692438Y-118320714D01*
X157692438Y-118320714D02*
X157740057Y-118273095D01*
X157740057Y-118273095D02*
X157835295Y-118225476D01*
X157835295Y-118225476D02*
X157930533Y-118225476D01*
X157930533Y-118225476D02*
X158073390Y-118273095D01*
X158073390Y-118273095D02*
X158644819Y-118844523D01*
X158644819Y-118844523D02*
X158644819Y-118225476D01*
X157740057Y-117844523D02*
X157692438Y-117796904D01*
X157692438Y-117796904D02*
X157644819Y-117701666D01*
X157644819Y-117701666D02*
X157644819Y-117463571D01*
X157644819Y-117463571D02*
X157692438Y-117368333D01*
X157692438Y-117368333D02*
X157740057Y-117320714D01*
X157740057Y-117320714D02*
X157835295Y-117273095D01*
X157835295Y-117273095D02*
X157930533Y-117273095D01*
X157930533Y-117273095D02*
X158073390Y-117320714D01*
X158073390Y-117320714D02*
X158644819Y-117892142D01*
X158644819Y-117892142D02*
X158644819Y-117273095D01*
X133717142Y-120054819D02*
X133383809Y-119578628D01*
X133145714Y-120054819D02*
X133145714Y-119054819D01*
X133145714Y-119054819D02*
X133526666Y-119054819D01*
X133526666Y-119054819D02*
X133621904Y-119102438D01*
X133621904Y-119102438D02*
X133669523Y-119150057D01*
X133669523Y-119150057D02*
X133717142Y-119245295D01*
X133717142Y-119245295D02*
X133717142Y-119388152D01*
X133717142Y-119388152D02*
X133669523Y-119483390D01*
X133669523Y-119483390D02*
X133621904Y-119531009D01*
X133621904Y-119531009D02*
X133526666Y-119578628D01*
X133526666Y-119578628D02*
X133145714Y-119578628D01*
X134669523Y-120054819D02*
X134098095Y-120054819D01*
X134383809Y-120054819D02*
X134383809Y-119054819D01*
X134383809Y-119054819D02*
X134288571Y-119197676D01*
X134288571Y-119197676D02*
X134193333Y-119292914D01*
X134193333Y-119292914D02*
X134098095Y-119340533D01*
X135002857Y-119054819D02*
X135669523Y-119054819D01*
X135669523Y-119054819D02*
X135240952Y-120054819D01*
X139241009Y-85120952D02*
X139288628Y-84978095D01*
X139288628Y-84978095D02*
X139336247Y-84930476D01*
X139336247Y-84930476D02*
X139431485Y-84882857D01*
X139431485Y-84882857D02*
X139574342Y-84882857D01*
X139574342Y-84882857D02*
X139669580Y-84930476D01*
X139669580Y-84930476D02*
X139717200Y-84978095D01*
X139717200Y-84978095D02*
X139764819Y-85073333D01*
X139764819Y-85073333D02*
X139764819Y-85454285D01*
X139764819Y-85454285D02*
X138764819Y-85454285D01*
X138764819Y-85454285D02*
X138764819Y-85120952D01*
X138764819Y-85120952D02*
X138812438Y-85025714D01*
X138812438Y-85025714D02*
X138860057Y-84978095D01*
X138860057Y-84978095D02*
X138955295Y-84930476D01*
X138955295Y-84930476D02*
X139050533Y-84930476D01*
X139050533Y-84930476D02*
X139145771Y-84978095D01*
X139145771Y-84978095D02*
X139193390Y-85025714D01*
X139193390Y-85025714D02*
X139241009Y-85120952D01*
X139241009Y-85120952D02*
X139241009Y-85454285D01*
X138764819Y-84549523D02*
X138764819Y-83882857D01*
X138764819Y-83882857D02*
X139764819Y-84549523D01*
X139764819Y-84549523D02*
X139764819Y-83882857D01*
X139764819Y-82978095D02*
X139764819Y-83549523D01*
X139764819Y-83263809D02*
X138764819Y-83263809D01*
X138764819Y-83263809D02*
X138907676Y-83359047D01*
X138907676Y-83359047D02*
X139002914Y-83454285D01*
X139002914Y-83454285D02*
X139050533Y-83549523D01*
X136843866Y-88430951D02*
X136843866Y-87669047D01*
X137224819Y-88049999D02*
X136462914Y-88049999D01*
X172193333Y-116839580D02*
X172145714Y-116887200D01*
X172145714Y-116887200D02*
X172002857Y-116934819D01*
X172002857Y-116934819D02*
X171907619Y-116934819D01*
X171907619Y-116934819D02*
X171764762Y-116887200D01*
X171764762Y-116887200D02*
X171669524Y-116791961D01*
X171669524Y-116791961D02*
X171621905Y-116696723D01*
X171621905Y-116696723D02*
X171574286Y-116506247D01*
X171574286Y-116506247D02*
X171574286Y-116363390D01*
X171574286Y-116363390D02*
X171621905Y-116172914D01*
X171621905Y-116172914D02*
X171669524Y-116077676D01*
X171669524Y-116077676D02*
X171764762Y-115982438D01*
X171764762Y-115982438D02*
X171907619Y-115934819D01*
X171907619Y-115934819D02*
X172002857Y-115934819D01*
X172002857Y-115934819D02*
X172145714Y-115982438D01*
X172145714Y-115982438D02*
X172193333Y-116030057D01*
X173050476Y-116268152D02*
X173050476Y-116934819D01*
X172812381Y-115887200D02*
X172574286Y-116601485D01*
X172574286Y-116601485D02*
X173193333Y-116601485D01*
X156928095Y-114154819D02*
X156928095Y-114964342D01*
X156928095Y-114964342D02*
X156975714Y-115059580D01*
X156975714Y-115059580D02*
X157023333Y-115107200D01*
X157023333Y-115107200D02*
X157118571Y-115154819D01*
X157118571Y-115154819D02*
X157309047Y-115154819D01*
X157309047Y-115154819D02*
X157404285Y-115107200D01*
X157404285Y-115107200D02*
X157451904Y-115059580D01*
X157451904Y-115059580D02*
X157499523Y-114964342D01*
X157499523Y-114964342D02*
X157499523Y-114154819D01*
X157880476Y-114154819D02*
X158499523Y-114154819D01*
X158499523Y-114154819D02*
X158166190Y-114535771D01*
X158166190Y-114535771D02*
X158309047Y-114535771D01*
X158309047Y-114535771D02*
X158404285Y-114583390D01*
X158404285Y-114583390D02*
X158451904Y-114631009D01*
X158451904Y-114631009D02*
X158499523Y-114726247D01*
X158499523Y-114726247D02*
X158499523Y-114964342D01*
X158499523Y-114964342D02*
X158451904Y-115059580D01*
X158451904Y-115059580D02*
X158404285Y-115107200D01*
X158404285Y-115107200D02*
X158309047Y-115154819D01*
X158309047Y-115154819D02*
X158023333Y-115154819D01*
X158023333Y-115154819D02*
X157928095Y-115107200D01*
X157928095Y-115107200D02*
X157880476Y-115059580D01*
X157163333Y-112899580D02*
X157115714Y-112947200D01*
X157115714Y-112947200D02*
X156972857Y-112994819D01*
X156972857Y-112994819D02*
X156877619Y-112994819D01*
X156877619Y-112994819D02*
X156734762Y-112947200D01*
X156734762Y-112947200D02*
X156639524Y-112851961D01*
X156639524Y-112851961D02*
X156591905Y-112756723D01*
X156591905Y-112756723D02*
X156544286Y-112566247D01*
X156544286Y-112566247D02*
X156544286Y-112423390D01*
X156544286Y-112423390D02*
X156591905Y-112232914D01*
X156591905Y-112232914D02*
X156639524Y-112137676D01*
X156639524Y-112137676D02*
X156734762Y-112042438D01*
X156734762Y-112042438D02*
X156877619Y-111994819D01*
X156877619Y-111994819D02*
X156972857Y-111994819D01*
X156972857Y-111994819D02*
X157115714Y-112042438D01*
X157115714Y-112042438D02*
X157163333Y-112090057D01*
X158115714Y-112994819D02*
X157544286Y-112994819D01*
X157830000Y-112994819D02*
X157830000Y-111994819D01*
X157830000Y-111994819D02*
X157734762Y-112137676D01*
X157734762Y-112137676D02*
X157639524Y-112232914D01*
X157639524Y-112232914D02*
X157544286Y-112280533D01*
X154614819Y-86847857D02*
X154138628Y-87181190D01*
X154614819Y-87419285D02*
X153614819Y-87419285D01*
X153614819Y-87419285D02*
X153614819Y-87038333D01*
X153614819Y-87038333D02*
X153662438Y-86943095D01*
X153662438Y-86943095D02*
X153710057Y-86895476D01*
X153710057Y-86895476D02*
X153805295Y-86847857D01*
X153805295Y-86847857D02*
X153948152Y-86847857D01*
X153948152Y-86847857D02*
X154043390Y-86895476D01*
X154043390Y-86895476D02*
X154091009Y-86943095D01*
X154091009Y-86943095D02*
X154138628Y-87038333D01*
X154138628Y-87038333D02*
X154138628Y-87419285D01*
X153710057Y-86466904D02*
X153662438Y-86419285D01*
X153662438Y-86419285D02*
X153614819Y-86324047D01*
X153614819Y-86324047D02*
X153614819Y-86085952D01*
X153614819Y-86085952D02*
X153662438Y-85990714D01*
X153662438Y-85990714D02*
X153710057Y-85943095D01*
X153710057Y-85943095D02*
X153805295Y-85895476D01*
X153805295Y-85895476D02*
X153900533Y-85895476D01*
X153900533Y-85895476D02*
X154043390Y-85943095D01*
X154043390Y-85943095D02*
X154614819Y-86514523D01*
X154614819Y-86514523D02*
X154614819Y-85895476D01*
X154043390Y-85324047D02*
X153995771Y-85419285D01*
X153995771Y-85419285D02*
X153948152Y-85466904D01*
X153948152Y-85466904D02*
X153852914Y-85514523D01*
X153852914Y-85514523D02*
X153805295Y-85514523D01*
X153805295Y-85514523D02*
X153710057Y-85466904D01*
X153710057Y-85466904D02*
X153662438Y-85419285D01*
X153662438Y-85419285D02*
X153614819Y-85324047D01*
X153614819Y-85324047D02*
X153614819Y-85133571D01*
X153614819Y-85133571D02*
X153662438Y-85038333D01*
X153662438Y-85038333D02*
X153710057Y-84990714D01*
X153710057Y-84990714D02*
X153805295Y-84943095D01*
X153805295Y-84943095D02*
X153852914Y-84943095D01*
X153852914Y-84943095D02*
X153948152Y-84990714D01*
X153948152Y-84990714D02*
X153995771Y-85038333D01*
X153995771Y-85038333D02*
X154043390Y-85133571D01*
X154043390Y-85133571D02*
X154043390Y-85324047D01*
X154043390Y-85324047D02*
X154091009Y-85419285D01*
X154091009Y-85419285D02*
X154138628Y-85466904D01*
X154138628Y-85466904D02*
X154233866Y-85514523D01*
X154233866Y-85514523D02*
X154424342Y-85514523D01*
X154424342Y-85514523D02*
X154519580Y-85466904D01*
X154519580Y-85466904D02*
X154567200Y-85419285D01*
X154567200Y-85419285D02*
X154614819Y-85324047D01*
X154614819Y-85324047D02*
X154614819Y-85133571D01*
X154614819Y-85133571D02*
X154567200Y-85038333D01*
X154567200Y-85038333D02*
X154519580Y-84990714D01*
X154519580Y-84990714D02*
X154424342Y-84943095D01*
X154424342Y-84943095D02*
X154233866Y-84943095D01*
X154233866Y-84943095D02*
X154138628Y-84990714D01*
X154138628Y-84990714D02*
X154091009Y-85038333D01*
X154091009Y-85038333D02*
X154043390Y-85133571D01*
X149266666Y-115714819D02*
X149266666Y-116429104D01*
X149266666Y-116429104D02*
X149219047Y-116571961D01*
X149219047Y-116571961D02*
X149123809Y-116667200D01*
X149123809Y-116667200D02*
X148980952Y-116714819D01*
X148980952Y-116714819D02*
X148885714Y-116714819D01*
X150266666Y-116714819D02*
X149695238Y-116714819D01*
X149980952Y-116714819D02*
X149980952Y-115714819D01*
X149980952Y-115714819D02*
X149885714Y-115857676D01*
X149885714Y-115857676D02*
X149790476Y-115952914D01*
X149790476Y-115952914D02*
X149695238Y-116000533D01*
X173818095Y-119234819D02*
X173818095Y-120044342D01*
X173818095Y-120044342D02*
X173865714Y-120139580D01*
X173865714Y-120139580D02*
X173913333Y-120187200D01*
X173913333Y-120187200D02*
X174008571Y-120234819D01*
X174008571Y-120234819D02*
X174199047Y-120234819D01*
X174199047Y-120234819D02*
X174294285Y-120187200D01*
X174294285Y-120187200D02*
X174341904Y-120139580D01*
X174341904Y-120139580D02*
X174389523Y-120044342D01*
X174389523Y-120044342D02*
X174389523Y-119234819D01*
X175341904Y-119234819D02*
X174865714Y-119234819D01*
X174865714Y-119234819D02*
X174818095Y-119711009D01*
X174818095Y-119711009D02*
X174865714Y-119663390D01*
X174865714Y-119663390D02*
X174960952Y-119615771D01*
X174960952Y-119615771D02*
X175199047Y-119615771D01*
X175199047Y-119615771D02*
X175294285Y-119663390D01*
X175294285Y-119663390D02*
X175341904Y-119711009D01*
X175341904Y-119711009D02*
X175389523Y-119806247D01*
X175389523Y-119806247D02*
X175389523Y-120044342D01*
X175389523Y-120044342D02*
X175341904Y-120139580D01*
X175341904Y-120139580D02*
X175294285Y-120187200D01*
X175294285Y-120187200D02*
X175199047Y-120234819D01*
X175199047Y-120234819D02*
X174960952Y-120234819D01*
X174960952Y-120234819D02*
X174865714Y-120187200D01*
X174865714Y-120187200D02*
X174818095Y-120139580D01*
X152619580Y-86822857D02*
X152667200Y-86870476D01*
X152667200Y-86870476D02*
X152714819Y-87013333D01*
X152714819Y-87013333D02*
X152714819Y-87108571D01*
X152714819Y-87108571D02*
X152667200Y-87251428D01*
X152667200Y-87251428D02*
X152571961Y-87346666D01*
X152571961Y-87346666D02*
X152476723Y-87394285D01*
X152476723Y-87394285D02*
X152286247Y-87441904D01*
X152286247Y-87441904D02*
X152143390Y-87441904D01*
X152143390Y-87441904D02*
X151952914Y-87394285D01*
X151952914Y-87394285D02*
X151857676Y-87346666D01*
X151857676Y-87346666D02*
X151762438Y-87251428D01*
X151762438Y-87251428D02*
X151714819Y-87108571D01*
X151714819Y-87108571D02*
X151714819Y-87013333D01*
X151714819Y-87013333D02*
X151762438Y-86870476D01*
X151762438Y-86870476D02*
X151810057Y-86822857D01*
X152714819Y-85870476D02*
X152714819Y-86441904D01*
X152714819Y-86156190D02*
X151714819Y-86156190D01*
X151714819Y-86156190D02*
X151857676Y-86251428D01*
X151857676Y-86251428D02*
X151952914Y-86346666D01*
X151952914Y-86346666D02*
X152000533Y-86441904D01*
X152714819Y-84918095D02*
X152714819Y-85489523D01*
X152714819Y-85203809D02*
X151714819Y-85203809D01*
X151714819Y-85203809D02*
X151857676Y-85299047D01*
X151857676Y-85299047D02*
X151952914Y-85394285D01*
X151952914Y-85394285D02*
X152000533Y-85489523D01*
X169612319Y-109901904D02*
X170421842Y-109901904D01*
X170421842Y-109901904D02*
X170517080Y-109854285D01*
X170517080Y-109854285D02*
X170564700Y-109806666D01*
X170564700Y-109806666D02*
X170612319Y-109711428D01*
X170612319Y-109711428D02*
X170612319Y-109520952D01*
X170612319Y-109520952D02*
X170564700Y-109425714D01*
X170564700Y-109425714D02*
X170517080Y-109378095D01*
X170517080Y-109378095D02*
X170421842Y-109330476D01*
X170421842Y-109330476D02*
X169612319Y-109330476D01*
X169612319Y-108425714D02*
X169612319Y-108616190D01*
X169612319Y-108616190D02*
X169659938Y-108711428D01*
X169659938Y-108711428D02*
X169707557Y-108759047D01*
X169707557Y-108759047D02*
X169850414Y-108854285D01*
X169850414Y-108854285D02*
X170040890Y-108901904D01*
X170040890Y-108901904D02*
X170421842Y-108901904D01*
X170421842Y-108901904D02*
X170517080Y-108854285D01*
X170517080Y-108854285D02*
X170564700Y-108806666D01*
X170564700Y-108806666D02*
X170612319Y-108711428D01*
X170612319Y-108711428D02*
X170612319Y-108520952D01*
X170612319Y-108520952D02*
X170564700Y-108425714D01*
X170564700Y-108425714D02*
X170517080Y-108378095D01*
X170517080Y-108378095D02*
X170421842Y-108330476D01*
X170421842Y-108330476D02*
X170183747Y-108330476D01*
X170183747Y-108330476D02*
X170088509Y-108378095D01*
X170088509Y-108378095D02*
X170040890Y-108425714D01*
X170040890Y-108425714D02*
X169993271Y-108520952D01*
X169993271Y-108520952D02*
X169993271Y-108711428D01*
X169993271Y-108711428D02*
X170040890Y-108806666D01*
X170040890Y-108806666D02*
X170088509Y-108854285D01*
X170088509Y-108854285D02*
X170183747Y-108901904D01*
X142717200Y-115863332D02*
X142764819Y-115720475D01*
X142764819Y-115720475D02*
X142764819Y-115482380D01*
X142764819Y-115482380D02*
X142717200Y-115387142D01*
X142717200Y-115387142D02*
X142669580Y-115339523D01*
X142669580Y-115339523D02*
X142574342Y-115291904D01*
X142574342Y-115291904D02*
X142479104Y-115291904D01*
X142479104Y-115291904D02*
X142383866Y-115339523D01*
X142383866Y-115339523D02*
X142336247Y-115387142D01*
X142336247Y-115387142D02*
X142288628Y-115482380D01*
X142288628Y-115482380D02*
X142241009Y-115672856D01*
X142241009Y-115672856D02*
X142193390Y-115768094D01*
X142193390Y-115768094D02*
X142145771Y-115815713D01*
X142145771Y-115815713D02*
X142050533Y-115863332D01*
X142050533Y-115863332D02*
X141955295Y-115863332D01*
X141955295Y-115863332D02*
X141860057Y-115815713D01*
X141860057Y-115815713D02*
X141812438Y-115768094D01*
X141812438Y-115768094D02*
X141764819Y-115672856D01*
X141764819Y-115672856D02*
X141764819Y-115434761D01*
X141764819Y-115434761D02*
X141812438Y-115291904D01*
X141764819Y-114958570D02*
X142764819Y-114720475D01*
X142764819Y-114720475D02*
X142050533Y-114529999D01*
X142050533Y-114529999D02*
X142764819Y-114339523D01*
X142764819Y-114339523D02*
X141764819Y-114101428D01*
X142764819Y-113196666D02*
X142764819Y-113768094D01*
X142764819Y-113482380D02*
X141764819Y-113482380D01*
X141764819Y-113482380D02*
X141907676Y-113577618D01*
X141907676Y-113577618D02*
X142002914Y-113672856D01*
X142002914Y-113672856D02*
X142050533Y-113768094D01*
X164063333Y-110389580D02*
X164015714Y-110437200D01*
X164015714Y-110437200D02*
X163872857Y-110484819D01*
X163872857Y-110484819D02*
X163777619Y-110484819D01*
X163777619Y-110484819D02*
X163634762Y-110437200D01*
X163634762Y-110437200D02*
X163539524Y-110341961D01*
X163539524Y-110341961D02*
X163491905Y-110246723D01*
X163491905Y-110246723D02*
X163444286Y-110056247D01*
X163444286Y-110056247D02*
X163444286Y-109913390D01*
X163444286Y-109913390D02*
X163491905Y-109722914D01*
X163491905Y-109722914D02*
X163539524Y-109627676D01*
X163539524Y-109627676D02*
X163634762Y-109532438D01*
X163634762Y-109532438D02*
X163777619Y-109484819D01*
X163777619Y-109484819D02*
X163872857Y-109484819D01*
X163872857Y-109484819D02*
X164015714Y-109532438D01*
X164015714Y-109532438D02*
X164063333Y-109580057D01*
X164444286Y-109580057D02*
X164491905Y-109532438D01*
X164491905Y-109532438D02*
X164587143Y-109484819D01*
X164587143Y-109484819D02*
X164825238Y-109484819D01*
X164825238Y-109484819D02*
X164920476Y-109532438D01*
X164920476Y-109532438D02*
X164968095Y-109580057D01*
X164968095Y-109580057D02*
X165015714Y-109675295D01*
X165015714Y-109675295D02*
X165015714Y-109770533D01*
X165015714Y-109770533D02*
X164968095Y-109913390D01*
X164968095Y-109913390D02*
X164396667Y-110484819D01*
X164396667Y-110484819D02*
X165015714Y-110484819D01*
X157034819Y-84693333D02*
X157749104Y-84693333D01*
X157749104Y-84693333D02*
X157891961Y-84740952D01*
X157891961Y-84740952D02*
X157987200Y-84836190D01*
X157987200Y-84836190D02*
X158034819Y-84979047D01*
X158034819Y-84979047D02*
X158034819Y-85074285D01*
X157130057Y-84264761D02*
X157082438Y-84217142D01*
X157082438Y-84217142D02*
X157034819Y-84121904D01*
X157034819Y-84121904D02*
X157034819Y-83883809D01*
X157034819Y-83883809D02*
X157082438Y-83788571D01*
X157082438Y-83788571D02*
X157130057Y-83740952D01*
X157130057Y-83740952D02*
X157225295Y-83693333D01*
X157225295Y-83693333D02*
X157320533Y-83693333D01*
X157320533Y-83693333D02*
X157463390Y-83740952D01*
X157463390Y-83740952D02*
X158034819Y-84312380D01*
X158034819Y-84312380D02*
X158034819Y-83693333D01*
X147006667Y-87417200D02*
X147149524Y-87464819D01*
X147149524Y-87464819D02*
X147387619Y-87464819D01*
X147387619Y-87464819D02*
X147482857Y-87417200D01*
X147482857Y-87417200D02*
X147530476Y-87369580D01*
X147530476Y-87369580D02*
X147578095Y-87274342D01*
X147578095Y-87274342D02*
X147578095Y-87179104D01*
X147578095Y-87179104D02*
X147530476Y-87083866D01*
X147530476Y-87083866D02*
X147482857Y-87036247D01*
X147482857Y-87036247D02*
X147387619Y-86988628D01*
X147387619Y-86988628D02*
X147197143Y-86941009D01*
X147197143Y-86941009D02*
X147101905Y-86893390D01*
X147101905Y-86893390D02*
X147054286Y-86845771D01*
X147054286Y-86845771D02*
X147006667Y-86750533D01*
X147006667Y-86750533D02*
X147006667Y-86655295D01*
X147006667Y-86655295D02*
X147054286Y-86560057D01*
X147054286Y-86560057D02*
X147101905Y-86512438D01*
X147101905Y-86512438D02*
X147197143Y-86464819D01*
X147197143Y-86464819D02*
X147435238Y-86464819D01*
X147435238Y-86464819D02*
X147578095Y-86512438D01*
X147911429Y-86464819D02*
X148149524Y-87464819D01*
X148149524Y-87464819D02*
X148340000Y-86750533D01*
X148340000Y-86750533D02*
X148530476Y-87464819D01*
X148530476Y-87464819D02*
X148768572Y-86464819D01*
X149054286Y-86464819D02*
X149720952Y-86464819D01*
X149720952Y-86464819D02*
X149292381Y-87464819D01*
%TO.C,C3*%
D11*
X166628748Y-104345000D02*
X167151252Y-104345000D01*
X166628748Y-105815000D02*
X167151252Y-105815000D01*
%TO.C,SW3*%
X172400000Y-97510000D02*
X172400000Y-101910000D01*
X173900000Y-97510000D02*
X174000000Y-97510000D01*
X173900000Y-101910000D02*
X174000000Y-101910000D01*
X175500000Y-101910000D02*
X175500000Y-97510000D01*
%TO.C,C5*%
X169035000Y-106121252D02*
X169035000Y-105598748D01*
X170505000Y-106121252D02*
X170505000Y-105598748D01*
%TO.C,C10*%
X137368748Y-116925000D02*
X137891252Y-116925000D01*
X137368748Y-118395000D02*
X137891252Y-118395000D01*
%TO.C,U1*%
X160820000Y-91965000D02*
X168540000Y-91965000D01*
X160820000Y-92220000D02*
X160820000Y-91965000D01*
X160820000Y-102485000D02*
X160820000Y-102230000D01*
X168540000Y-91965000D02*
X168540000Y-92220000D01*
X168540000Y-102230000D02*
X168540000Y-102485000D01*
X168540000Y-102485000D02*
X160820000Y-102485000D01*
X169670000Y-102705000D02*
X168990000Y-102705000D01*
X169330000Y-102235000D01*
X169670000Y-102705000D01*
G36*
X169670000Y-102705000D02*
G01*
X168990000Y-102705000D01*
X169330000Y-102235000D01*
X169670000Y-102705000D01*
G37*
%TO.C,U4*%
X126240000Y-93305000D02*
X132440000Y-93305000D01*
X126240000Y-111705000D02*
X126240000Y-93305000D01*
X126240000Y-111705000D02*
X132440000Y-111705000D01*
X151090000Y-111705000D02*
X152090000Y-111705000D01*
X152090000Y-93305000D02*
X151090000Y-93305000D01*
X152090000Y-93305000D02*
X152090000Y-94805000D01*
X152090000Y-111705000D02*
X152090000Y-110205000D01*
X133115000Y-112205000D02*
X132615000Y-111705000D01*
X133115000Y-111705000D01*
X133115000Y-112205000D01*
G36*
X133115000Y-112205000D02*
G01*
X132615000Y-111705000D01*
X133115000Y-111705000D01*
X133115000Y-112205000D01*
G37*
%TO.C,R2*%
X166447742Y-106527500D02*
X166922258Y-106527500D01*
X166447742Y-107572500D02*
X166922258Y-107572500D01*
%TO.C,R24*%
X141817500Y-118267742D02*
X141817500Y-118742258D01*
X142862500Y-118267742D02*
X142862500Y-118742258D01*
%TO.C,BT1*%
D12*
X170539099Y-122089992D02*
X170539099Y-123074760D01*
X171497060Y-122089992D02*
X170539099Y-122089992D01*
X171840440Y-125239592D02*
X173479558Y-125239592D01*
X174780899Y-122089992D02*
X173822938Y-122089992D01*
X174780899Y-123074760D02*
X174780899Y-122089992D01*
D13*
X170285099Y-121835001D02*
G75*
G02*
X169523099Y-121835001I-381000J0D01*
G01*
X169523099Y-121835001D02*
G75*
G02*
X170285099Y-121835001I381000J0D01*
G01*
%TO.C,U2*%
D11*
X162620000Y-113930000D02*
X162620000Y-117690000D01*
X162620000Y-117690000D02*
X163880000Y-117690000D01*
X169440000Y-113930000D02*
X169440000Y-117690000D01*
X169440000Y-117690000D02*
X168180000Y-117690000D01*
X169670000Y-112890000D02*
X169340000Y-112650000D01*
X169670000Y-112410000D01*
X169670000Y-112890000D01*
G36*
X169670000Y-112890000D02*
G01*
X169340000Y-112650000D01*
X169670000Y-112410000D01*
X169670000Y-112890000D01*
G37*
%TO.C,R22*%
X156237500Y-118297742D02*
X156237500Y-118772258D01*
X157282500Y-118297742D02*
X157282500Y-118772258D01*
%TO.C,R17*%
X137622258Y-119007500D02*
X137147742Y-119007500D01*
X137622258Y-120052500D02*
X137147742Y-120052500D01*
%TO.C,BZ1*%
X145410000Y-84240000D02*
G75*
G02*
X133210000Y-84240000I-6100000J0D01*
G01*
X133210000Y-84240000D02*
G75*
G02*
X145410000Y-84240000I6100000J0D01*
G01*
%TO.C,C4*%
X172621252Y-114065000D02*
X172098748Y-114065000D01*
X172621252Y-115535000D02*
X172098748Y-115535000D01*
%TO.C,U3*%
X159598248Y-114000000D02*
X161407500Y-114000000D01*
X161407500Y-116220000D02*
X159187500Y-116220000D01*
X159307500Y-113990000D02*
X159167500Y-113800000D01*
X159447500Y-113800000D01*
X159307500Y-113990000D01*
G36*
X159307500Y-113990000D02*
G01*
X159167500Y-113800000D01*
X159447500Y-113800000D01*
X159307500Y-113990000D01*
G37*
%TO.C,C1*%
X160228752Y-111815000D02*
X159706248Y-111815000D01*
X160228752Y-113285000D02*
X159706248Y-113285000D01*
%TO.C,R28*%
X153627500Y-88872742D02*
X153627500Y-89347258D01*
X154672500Y-88872742D02*
X154672500Y-89347258D01*
%TO.C,J1*%
X144930000Y-121660000D02*
X144930000Y-119960000D01*
X154270000Y-121660000D02*
X154270000Y-119960000D01*
%TO.C,U5*%
X173497500Y-116610000D02*
X175717500Y-116610000D01*
X175306752Y-118830000D02*
X173497500Y-118830000D01*
X175737500Y-119030000D02*
X175457500Y-119030000D01*
X175597500Y-118840000D01*
X175737500Y-119030000D01*
G36*
X175737500Y-119030000D02*
G01*
X175457500Y-119030000D01*
X175597500Y-118840000D01*
X175737500Y-119030000D01*
G37*
%TO.C,C11*%
X151555000Y-89571252D02*
X151555000Y-89048748D01*
X153025000Y-89571252D02*
X153025000Y-89048748D01*
%TO.C,U6*%
X171247500Y-107230000D02*
X172507500Y-107230000D01*
X171247500Y-110990000D02*
X171247500Y-107230000D01*
X178067500Y-107230000D02*
X176807500Y-107230000D01*
X178067500Y-110990000D02*
X178067500Y-107230000D01*
X171347500Y-112270000D02*
X171017500Y-112510000D01*
X171017500Y-112030000D01*
X171347500Y-112270000D01*
G36*
X171347500Y-112270000D02*
G01*
X171017500Y-112510000D01*
X171017500Y-112030000D01*
X171347500Y-112270000D01*
G37*
%TO.C,SW1*%
X136520000Y-114780000D02*
X136520000Y-114680000D01*
X136520000Y-116280000D02*
X140920000Y-116280000D01*
X140920000Y-113180000D02*
X136520000Y-113180000D01*
X140920000Y-114780000D02*
X140920000Y-114680000D01*
%TO.C,C2*%
X166688748Y-109225000D02*
X167211252Y-109225000D01*
X166688748Y-110695000D02*
X167211252Y-110695000D01*
%TO.C,J2*%
X159020000Y-83030000D02*
X160350000Y-83030000D01*
X159020000Y-84360000D02*
X159020000Y-83030000D01*
X161620000Y-83030000D02*
X169300000Y-83030000D01*
X161620000Y-85690000D02*
X161620000Y-83030000D01*
X161620000Y-85690000D02*
X169300000Y-85690000D01*
X169300000Y-85690000D02*
X169300000Y-83030000D01*
%TO.C,SW7*%
X146140000Y-89510000D02*
X146140000Y-89410000D01*
X146140000Y-91010000D02*
X150540000Y-91010000D01*
X150540000Y-87910000D02*
X146140000Y-87910000D01*
X150540000Y-89510000D02*
X150540000Y-89410000D01*
%TD*%
M02*
