M48
; DRILL file KiCad 10.99.0-unknown-ab00e101b5~187~ubuntu24.04.1 date 2026-05-12T20:19:37
; FORMAT={-:-/ absolute / metric / decimal}
; #@! TF.CreationDate,2026-05-12T20:19:37-04:00
; #@! TF.GenerationSoftware,Kicad,Pcbnew,10.99.0-unknown-ab00e101b5~187~ubuntu24.04.1
; #@! TF.FileFunction,Plated,1,2,PTH
FMAT,2
METRIC
; #@! TA.AperFunction,Plated,PTH,ComponentDrill
T1C0.200
; #@! TA.AperFunction,Plated,PTH,ViaDrill
T2C0.300
; #@! TA.AperFunction,Plated,PTH,ComponentDrill
T3C0.600
; #@! TA.AperFunction,Plated,PTH,ComponentDrill
T4C1.000
%
G90
G05
T1
X140.2Y-103.305
X140.2Y-104.705
X140.9Y-102.605
X140.9Y-104.005
X140.9Y-105.405
X141.6Y-103.305
X141.6Y-104.705
X142.3Y-102.605
X142.3Y-104.005
X142.3Y-105.405
X143.0Y-103.305
X143.0Y-104.705
T2
X144.38Y-114.44
X163.22Y-101.68
X163.33Y-100.4
X164.52Y-103.08
X167.57Y-103.06
T4
X139.31Y-80.44
X139.31Y-88.04
X160.35Y-84.36
X162.89Y-84.36
X165.43Y-84.36
X167.97Y-84.36
T3
G00X145.28Y-118.105
M15
G01X145.28Y-119.205
M16
G05
G00X145.28Y-122.435
M15
G01X145.28Y-123.235
M16
G05
G00X153.92Y-118.105
M15
G01X153.92Y-119.205
M16
G05
G00X153.92Y-122.435
M15
G01X153.92Y-123.235
M16
G05
M30
