%TF.GenerationSoftware,KiCad,Pcbnew,10.99.0-unknown-ab00e101b5~187~ubuntu24.04.1*%
%TF.CreationDate,2026-05-12T20:19:51-04:00*%
%TF.ProjectId,ClockyFella,436c6f63-6b79-4466-956c-6c612e6b6963,rev?*%
%TF.SameCoordinates,Original*%
%TF.FileFunction,Copper,L2,Bot*%
%TF.FilePolarity,Positive*%
%FSLAX46Y46*%
G04 Gerber Fmt 4.6, Leading zero omitted, Abs format (unit mm)*
G04 Created by KiCad (PCBNEW 10.99.0-unknown-ab00e101b5~187~ubuntu24.04.1) date 2026-05-12 20:19:51*
%MOMM*%
%LPD*%
G01*
G04 APERTURE LIST*
%TA.AperFunction,HeatsinkPad*%
%ADD10C,0.600000*%
%TD*%
%TA.AperFunction,ComponentPad*%
%ADD11R,2.000000X2.000000*%
%TD*%
%TA.AperFunction,ComponentPad*%
%ADD12C,2.000000*%
%TD*%
%TA.AperFunction,ComponentPad*%
%ADD13O,1.000000X2.100000*%
%TD*%
%TA.AperFunction,ComponentPad*%
%ADD14O,1.000000X1.800000*%
%TD*%
%TA.AperFunction,ComponentPad*%
%ADD15R,1.700000X1.700000*%
%TD*%
%TA.AperFunction,ComponentPad*%
%ADD16C,1.700000*%
%TD*%
%TA.AperFunction,ViaPad*%
%ADD17C,0.600000*%
%TD*%
%TA.AperFunction,Conductor*%
%ADD18C,0.200000*%
%TD*%
G04 APERTURE END LIST*
D10*
%TO.P,U4,41,GND_41*%
%TO.N,GND*%
X140900000Y-105405000D03*
X142300000Y-105405000D03*
X140200000Y-104705000D03*
X141600000Y-104705000D03*
X143000000Y-104705000D03*
X140900000Y-104005000D03*
X142300000Y-104005000D03*
X140200000Y-103305000D03*
X141600000Y-103305000D03*
X143000000Y-103305000D03*
X140900000Y-102605000D03*
X142300000Y-102605000D03*
%TD*%
D11*
%TO.P,BZ1,1,+_1*%
%TO.N,Net-(BZ1-+)*%
X139310000Y-88040000D03*
D12*
%TO.P,BZ1,2,-_2*%
%TO.N,GND*%
X139310000Y-80440000D03*
%TD*%
D13*
%TO.P,J1,SH*%
%TO.N,N/C*%
X145280000Y-118655000D03*
D14*
X145280000Y-122835000D03*
D13*
X153920000Y-118655000D03*
D14*
X153920000Y-122835000D03*
%TD*%
D15*
%TO.P,J2,1,Pin_1_1*%
%TO.N,GND*%
X160350000Y-84360000D03*
D16*
%TO.P,J2,2,Pin_2_2*%
%TO.N,+3V3*%
X162890000Y-84360000D03*
%TO.P,J2,3,Pin_3_3*%
%TO.N,/SDA*%
X165430000Y-84360000D03*
%TO.P,J2,4,Pin_4_4*%
%TO.N,/SCL*%
X167970000Y-84360000D03*
%TD*%
D17*
%TO.N,GND*%
X144380000Y-114440000D03*
%TO.N,/~{RST}*%
X164520000Y-103080000D03*
X167570000Y-103060000D03*
%TO.N,/SDA*%
X163330000Y-100400000D03*
%TO.N,/SCL*%
X163220000Y-101680000D03*
%TD*%
%TO.N,/~{RST}*%
D18*
X164520000Y-103256846D02*
X164520000Y-103080000D01*
X167570000Y-103060000D02*
X167490000Y-103140000D01*
X167490000Y-103140000D02*
X164636846Y-103140000D01*
X164636846Y-103140000D02*
X164520000Y-103256846D01*
%TO.N,/SDA*%
X165430000Y-84360000D02*
X165430000Y-99260000D01*
X165430000Y-99260000D02*
X164290000Y-100400000D01*
X164290000Y-100400000D02*
X163330000Y-100400000D01*
%TO.N,/SCL*%
X163220000Y-101680000D02*
X163575686Y-101680000D01*
X163575686Y-101680000D02*
X167970000Y-97285686D01*
X167970000Y-97285686D02*
X167970000Y-84360000D01*
%TD*%
%TA.AperFunction,Conductor*%
%TO.N,GND*%
G36*
X173770352Y-78220512D02*
G01*
X173772146Y-78220543D01*
X173773640Y-78220580D01*
X173924412Y-78225655D01*
X173928230Y-78225860D01*
X173932157Y-78226147D01*
X173935951Y-78226499D01*
X174327994Y-78270672D01*
X174332349Y-78271262D01*
X174336737Y-78271957D01*
X174341087Y-78272746D01*
X174724015Y-78351151D01*
X174728316Y-78352133D01*
X174731556Y-78352950D01*
X174732656Y-78353228D01*
X174736912Y-78354403D01*
X175111217Y-78466803D01*
X175115396Y-78468160D01*
X175119636Y-78469643D01*
X175123769Y-78471195D01*
X175486493Y-78616694D01*
X175490573Y-78618438D01*
X175494641Y-78620286D01*
X175498602Y-78622192D01*
X175846872Y-78799647D01*
X175850734Y-78801726D01*
X175854620Y-78803931D01*
X175858434Y-78806209D01*
X176189341Y-79014131D01*
X176193040Y-79016573D01*
X176194229Y-79017396D01*
X176196683Y-79019097D01*
X176200265Y-79021698D01*
X176511227Y-79258465D01*
X176514707Y-79261241D01*
X176518101Y-79264075D01*
X176521440Y-79266992D01*
X176809899Y-79530655D01*
X176813111Y-79533725D01*
X176816272Y-79536886D01*
X176819342Y-79540098D01*
X177083005Y-79828558D01*
X177085922Y-79831897D01*
X177088756Y-79835291D01*
X177091525Y-79838762D01*
X177294513Y-80105359D01*
X177328291Y-80149721D01*
X177330908Y-80153324D01*
X177333423Y-80156955D01*
X177335865Y-80160654D01*
X177543796Y-80491574D01*
X177546077Y-80495392D01*
X177548263Y-80499245D01*
X177550366Y-80503153D01*
X177727804Y-80851395D01*
X177729730Y-80855395D01*
X177731557Y-80859417D01*
X177733304Y-80863505D01*
X177878794Y-81226209D01*
X177880353Y-81230361D01*
X177881830Y-81234581D01*
X177883205Y-81238814D01*
X177995597Y-81613095D01*
X177996779Y-81617377D01*
X177997860Y-81621667D01*
X177998849Y-81625998D01*
X178077242Y-82008864D01*
X178078035Y-82013236D01*
X178078730Y-82017624D01*
X178079326Y-82022026D01*
X178123495Y-82414031D01*
X178123854Y-82417891D01*
X178124133Y-82421719D01*
X178124136Y-82421748D01*
X178124343Y-82425630D01*
X178129415Y-82576247D01*
X178129457Y-82577908D01*
X178129485Y-82579567D01*
X178129499Y-82581238D01*
X178129499Y-121643754D01*
X178129485Y-121645425D01*
X178129457Y-121647084D01*
X178129415Y-121648745D01*
X178124343Y-121799372D01*
X178124135Y-121803262D01*
X178123852Y-121807131D01*
X178123493Y-121810994D01*
X178079328Y-122202959D01*
X178078734Y-122207352D01*
X178078041Y-122211730D01*
X178077246Y-122216110D01*
X177998849Y-122598998D01*
X177997860Y-122603330D01*
X177996779Y-122607620D01*
X177995597Y-122611902D01*
X177883205Y-122986183D01*
X177881830Y-122990416D01*
X177880353Y-122994636D01*
X177878794Y-122998788D01*
X177733304Y-123361492D01*
X177731557Y-123365580D01*
X177729730Y-123369602D01*
X177727804Y-123373602D01*
X177550366Y-123721844D01*
X177548263Y-123725752D01*
X177546077Y-123729605D01*
X177543796Y-123733423D01*
X177335865Y-124064343D01*
X177333423Y-124068042D01*
X177330908Y-124071673D01*
X177328291Y-124075276D01*
X177091532Y-124386226D01*
X177088756Y-124389706D01*
X177085922Y-124393100D01*
X177083005Y-124396439D01*
X176819342Y-124684899D01*
X176816272Y-124688111D01*
X176813111Y-124691272D01*
X176809899Y-124694342D01*
X176521440Y-124958005D01*
X176518101Y-124960922D01*
X176514707Y-124963756D01*
X176511227Y-124966532D01*
X176200274Y-125203292D01*
X176196671Y-125205909D01*
X176193040Y-125208424D01*
X176189341Y-125210866D01*
X175858434Y-125418788D01*
X175854620Y-125421066D01*
X175850734Y-125423271D01*
X175846822Y-125425376D01*
X175498629Y-125602791D01*
X175494624Y-125604720D01*
X175490564Y-125606564D01*
X175486495Y-125608304D01*
X175303222Y-125681819D01*
X175123790Y-125753794D01*
X175119638Y-125755352D01*
X175115418Y-125756829D01*
X175111186Y-125758204D01*
X174736903Y-125870597D01*
X174732620Y-125871779D01*
X174728330Y-125872860D01*
X174723999Y-125873849D01*
X174341133Y-125952242D01*
X174336761Y-125953035D01*
X174332373Y-125953730D01*
X174327971Y-125954326D01*
X173935966Y-125998495D01*
X173932101Y-125998854D01*
X173928230Y-125999136D01*
X173924367Y-125999343D01*
X173773752Y-126004415D01*
X173772092Y-126004457D01*
X173770418Y-126004485D01*
X173768762Y-126004499D01*
X137251245Y-126004499D01*
X137249586Y-126004485D01*
X137247913Y-126004456D01*
X137246254Y-126004415D01*
X137241767Y-126004264D01*
X137241766Y-126004263D01*
X137241766Y-126004264D01*
X137095625Y-125999343D01*
X137091735Y-125999135D01*
X137087866Y-125998852D01*
X137084003Y-125998493D01*
X136692038Y-125954328D01*
X136687645Y-125953734D01*
X136683267Y-125953041D01*
X136678887Y-125952246D01*
X136295999Y-125873849D01*
X136291667Y-125872860D01*
X136291211Y-125872745D01*
X136287364Y-125871775D01*
X136283095Y-125870597D01*
X135908814Y-125758205D01*
X135904581Y-125756830D01*
X135900361Y-125755353D01*
X135896209Y-125753794D01*
X135533505Y-125608304D01*
X135529426Y-125606560D01*
X135527406Y-125605643D01*
X135525395Y-125604730D01*
X135521395Y-125602804D01*
X135173153Y-125425366D01*
X135169245Y-125423263D01*
X135165392Y-125421077D01*
X135161574Y-125418796D01*
X134830654Y-125210865D01*
X134826955Y-125208423D01*
X134824032Y-125206398D01*
X134823320Y-125205905D01*
X134819721Y-125203291D01*
X134508771Y-124966532D01*
X134505291Y-124963756D01*
X134501897Y-124960922D01*
X134498558Y-124958005D01*
X134210098Y-124694342D01*
X134206886Y-124691272D01*
X134203725Y-124688111D01*
X134200655Y-124684899D01*
X133936992Y-124396440D01*
X133934075Y-124393101D01*
X133931241Y-124389707D01*
X133928465Y-124386227D01*
X133691705Y-124075274D01*
X133689097Y-124071683D01*
X133686573Y-124068040D01*
X133684131Y-124064341D01*
X133476209Y-123733434D01*
X133473931Y-123729620D01*
X133471726Y-123725734D01*
X133469647Y-123721872D01*
X133292192Y-123373602D01*
X133290286Y-123369641D01*
X133288438Y-123365573D01*
X133286690Y-123361484D01*
X133141203Y-122998789D01*
X133139637Y-122994618D01*
X133138162Y-122990401D01*
X133136794Y-122986188D01*
X133114880Y-122913211D01*
X133024401Y-122611902D01*
X133023225Y-122607643D01*
X133022138Y-122603332D01*
X133021148Y-122598998D01*
X132986676Y-122430636D01*
X132973442Y-122366004D01*
X144579500Y-122366004D01*
X144579500Y-123303995D01*
X144579640Y-123304699D01*
X144579640Y-123304701D01*
X144604518Y-123429764D01*
X144604518Y-123429768D01*
X144606419Y-123439330D01*
X144659216Y-123566794D01*
X144659219Y-123566801D01*
X144659232Y-123566824D01*
X144735884Y-123681540D01*
X144833458Y-123779114D01*
X144948174Y-123855766D01*
X144948177Y-123855767D01*
X144948182Y-123855771D01*
X144948193Y-123855777D01*
X144948197Y-123855779D01*
X144995283Y-123875282D01*
X145075672Y-123908580D01*
X145211007Y-123935500D01*
X145211008Y-123935500D01*
X145348992Y-123935500D01*
X145348993Y-123935500D01*
X145484328Y-123908580D01*
X145611811Y-123855775D01*
X145726542Y-123779114D01*
X145824114Y-123681542D01*
X145900775Y-123566811D01*
X145953580Y-123439328D01*
X145980500Y-123303993D01*
X145980500Y-122366007D01*
X145980499Y-122366004D01*
X153219500Y-122366004D01*
X153219500Y-123303995D01*
X153219640Y-123304699D01*
X153219640Y-123304701D01*
X153244518Y-123429764D01*
X153244518Y-123429768D01*
X153246419Y-123439330D01*
X153299216Y-123566794D01*
X153299219Y-123566801D01*
X153299232Y-123566824D01*
X153375884Y-123681540D01*
X153473458Y-123779114D01*
X153588174Y-123855766D01*
X153588177Y-123855767D01*
X153588182Y-123855771D01*
X153588193Y-123855777D01*
X153588197Y-123855779D01*
X153635283Y-123875282D01*
X153715672Y-123908580D01*
X153851007Y-123935500D01*
X153851008Y-123935500D01*
X153988992Y-123935500D01*
X153988993Y-123935500D01*
X154124328Y-123908580D01*
X154251811Y-123855775D01*
X154366542Y-123779114D01*
X154464114Y-123681542D01*
X154540775Y-123566811D01*
X154593580Y-123439328D01*
X154620500Y-123303993D01*
X154620500Y-122366007D01*
X154593580Y-122230672D01*
X154540775Y-122103189D01*
X154540774Y-122103187D01*
X154540771Y-122103182D01*
X154464114Y-121988458D01*
X154366541Y-121890885D01*
X154366540Y-121890884D01*
X154251824Y-121814232D01*
X154251801Y-121814219D01*
X154124329Y-121761420D01*
X153988995Y-121734500D01*
X153988993Y-121734500D01*
X153851007Y-121734500D01*
X153851004Y-121734500D01*
X153851003Y-121734500D01*
X153795876Y-121745465D01*
X153725234Y-121759518D01*
X153725227Y-121759518D01*
X153715668Y-121761419D01*
X153588204Y-121814216D01*
X153588197Y-121814219D01*
X153588174Y-121814232D01*
X153473458Y-121890884D01*
X153375884Y-121988458D01*
X153299232Y-122103174D01*
X153299219Y-122103197D01*
X153299216Y-122103204D01*
X153247474Y-122228122D01*
X153247473Y-122228125D01*
X153246420Y-122230670D01*
X153246420Y-122230672D01*
X153219500Y-122366004D01*
X145980499Y-122366004D01*
X145976033Y-122343552D01*
X145953580Y-122230672D01*
X145900775Y-122103189D01*
X145900774Y-122103187D01*
X145900771Y-122103182D01*
X145824114Y-121988458D01*
X145726541Y-121890885D01*
X145726540Y-121890884D01*
X145611824Y-121814232D01*
X145611801Y-121814219D01*
X145484329Y-121761420D01*
X145348995Y-121734500D01*
X145348993Y-121734500D01*
X145211007Y-121734500D01*
X145211004Y-121734500D01*
X145211003Y-121734500D01*
X145155876Y-121745465D01*
X145085234Y-121759518D01*
X145085227Y-121759518D01*
X145075668Y-121761419D01*
X144948204Y-121814216D01*
X144948197Y-121814219D01*
X144948174Y-121814232D01*
X144833458Y-121890884D01*
X144735884Y-121988458D01*
X144659232Y-122103174D01*
X144659219Y-122103197D01*
X144659216Y-122103204D01*
X144607474Y-122228122D01*
X144607473Y-122228125D01*
X144606420Y-122230670D01*
X144606420Y-122230672D01*
X144579500Y-122366004D01*
X132973442Y-122366004D01*
X132942740Y-122216062D01*
X132941960Y-122211757D01*
X132941263Y-122207352D01*
X132940676Y-122203023D01*
X132896498Y-121810938D01*
X132896142Y-121807084D01*
X132895862Y-121803248D01*
X132895657Y-121799414D01*
X132890580Y-121648640D01*
X132890543Y-121647147D01*
X132890512Y-121645360D01*
X132890500Y-121643756D01*
X132890500Y-118036004D01*
X144579500Y-118036004D01*
X144579500Y-119273995D01*
X144600017Y-119377140D01*
X144604518Y-119399764D01*
X144604518Y-119399768D01*
X144606419Y-119409330D01*
X144659216Y-119536794D01*
X144659219Y-119536801D01*
X144659232Y-119536824D01*
X144735884Y-119651540D01*
X144833458Y-119749114D01*
X144948174Y-119825766D01*
X144948177Y-119825767D01*
X144948182Y-119825771D01*
X144948193Y-119825777D01*
X144948197Y-119825779D01*
X144995283Y-119845282D01*
X145075672Y-119878580D01*
X145211007Y-119905500D01*
X145211008Y-119905500D01*
X145348992Y-119905500D01*
X145348993Y-119905500D01*
X145484328Y-119878580D01*
X145611811Y-119825775D01*
X145726542Y-119749114D01*
X145824114Y-119651542D01*
X145900775Y-119536811D01*
X145953580Y-119409328D01*
X145965155Y-119351129D01*
X145976850Y-119330225D01*
X145979903Y-119314879D01*
X145991365Y-119304282D01*
X145994991Y-119297802D01*
X146000744Y-119292475D01*
X146002309Y-119294165D01*
X146024831Y-119273345D01*
X146085592Y-119266152D01*
X146138977Y-119296047D01*
X146140702Y-119297913D01*
X146163632Y-119339492D01*
X146173720Y-119377140D01*
X146173721Y-119377142D01*
X146249479Y-119508358D01*
X146249481Y-119508360D01*
X146249483Y-119508362D01*
X146249485Y-119508365D01*
X146356635Y-119615515D01*
X146356637Y-119615516D01*
X146356639Y-119615518D01*
X146357186Y-119615913D01*
X146359188Y-119616990D01*
X146406203Y-119644133D01*
X146431091Y-119658503D01*
X146452685Y-119682486D01*
X146487010Y-119691067D01*
X146488612Y-119691481D01*
X146634234Y-119730500D01*
X146634236Y-119730500D01*
X146785764Y-119730500D01*
X146785766Y-119730500D01*
X146932135Y-119691281D01*
X146932137Y-119691279D01*
X146932139Y-119691279D01*
X147057225Y-119619059D01*
X147060114Y-119617657D01*
X147060904Y-119617137D01*
X147065913Y-119614043D01*
X147067212Y-119613292D01*
X147072570Y-119606309D01*
X147170515Y-119508365D01*
X147227694Y-119409329D01*
X147246279Y-119377139D01*
X147246279Y-119377137D01*
X147246281Y-119377135D01*
X147285500Y-119230766D01*
X147285500Y-119079234D01*
X151914500Y-119079234D01*
X151914500Y-119230766D01*
X151936700Y-119313617D01*
X151953720Y-119377139D01*
X151953721Y-119377140D01*
X151953722Y-119377144D01*
X152029479Y-119508358D01*
X152029481Y-119508360D01*
X152029483Y-119508362D01*
X152029485Y-119508365D01*
X152136635Y-119615515D01*
X152136637Y-119615516D01*
X152136639Y-119615518D01*
X152137186Y-119615913D01*
X152139188Y-119616990D01*
X152186203Y-119644133D01*
X152211091Y-119658503D01*
X152232685Y-119682486D01*
X152267010Y-119691067D01*
X152268612Y-119691481D01*
X152414234Y-119730500D01*
X152414236Y-119730500D01*
X152565764Y-119730500D01*
X152565766Y-119730500D01*
X152712135Y-119691281D01*
X152712137Y-119691279D01*
X152712139Y-119691279D01*
X152837225Y-119619059D01*
X152840114Y-119617657D01*
X152840904Y-119617137D01*
X152845913Y-119614043D01*
X152847212Y-119613292D01*
X152852570Y-119606309D01*
X152950515Y-119508365D01*
X153026281Y-119377135D01*
X153035001Y-119344586D01*
X153048034Y-119324499D01*
X153052081Y-119309389D01*
X153064215Y-119299559D01*
X153068264Y-119293320D01*
X153074352Y-119288382D01*
X153075804Y-119290172D01*
X153099625Y-119270877D01*
X153160726Y-119267666D01*
X153212045Y-119300982D01*
X153213644Y-119302956D01*
X153233814Y-119345955D01*
X153246420Y-119409329D01*
X153299216Y-119536794D01*
X153299219Y-119536801D01*
X153299232Y-119536824D01*
X153375884Y-119651540D01*
X153473458Y-119749114D01*
X153588174Y-119825766D01*
X153588177Y-119825767D01*
X153588182Y-119825771D01*
X153588193Y-119825777D01*
X153588197Y-119825779D01*
X153635283Y-119845282D01*
X153715672Y-119878580D01*
X153851007Y-119905500D01*
X153851008Y-119905500D01*
X153988992Y-119905500D01*
X153988993Y-119905500D01*
X154124328Y-119878580D01*
X154251811Y-119825775D01*
X154366542Y-119749114D01*
X154464114Y-119651542D01*
X154540775Y-119536811D01*
X154593580Y-119409328D01*
X154620500Y-119273993D01*
X154620500Y-118036007D01*
X154593580Y-117900672D01*
X154540775Y-117773189D01*
X154540774Y-117773187D01*
X154540771Y-117773182D01*
X154464114Y-117658458D01*
X154366541Y-117560885D01*
X154366540Y-117560884D01*
X154251824Y-117484232D01*
X154251801Y-117484219D01*
X154124329Y-117431420D01*
X153988995Y-117404500D01*
X153988993Y-117404500D01*
X153851007Y-117404500D01*
X153851004Y-117404500D01*
X153851003Y-117404500D01*
X153795876Y-117415465D01*
X153725234Y-117429518D01*
X153725227Y-117429518D01*
X153715668Y-117431419D01*
X153588204Y-117484216D01*
X153588197Y-117484219D01*
X153588174Y-117484232D01*
X153473458Y-117560884D01*
X153375884Y-117658458D01*
X153299232Y-117773174D01*
X153299219Y-117773197D01*
X153299216Y-117773204D01*
X153246421Y-117900665D01*
X153246421Y-117900666D01*
X153246420Y-117900673D01*
X153219500Y-118036003D01*
X153219500Y-118886308D01*
X153214652Y-118916907D01*
X153212365Y-118923944D01*
X153176398Y-118973442D01*
X153118206Y-118992345D01*
X153060017Y-118973434D01*
X153028857Y-118935966D01*
X153019392Y-118916123D01*
X153014473Y-118912141D01*
X153011778Y-118907744D01*
X152950518Y-118801639D01*
X152950516Y-118801637D01*
X152950515Y-118801635D01*
X152843365Y-118694485D01*
X152843362Y-118694483D01*
X152843360Y-118694481D01*
X152843359Y-118694480D01*
X152769426Y-118651795D01*
X152748390Y-118628432D01*
X152655347Y-118603503D01*
X152655346Y-118603502D01*
X152589768Y-118585931D01*
X152565766Y-118579500D01*
X152565765Y-118579500D01*
X152414235Y-118579500D01*
X152414234Y-118579500D01*
X152395304Y-118584572D01*
X152324652Y-118603502D01*
X152324652Y-118603503D01*
X152267860Y-118618720D01*
X152267858Y-118618720D01*
X152267854Y-118618722D01*
X152136643Y-118694477D01*
X152029477Y-118801643D01*
X151953722Y-118932854D01*
X151953720Y-118932858D01*
X151953720Y-118932860D01*
X151939745Y-118985016D01*
X151939745Y-118985017D01*
X151939744Y-118985016D01*
X151914500Y-119079234D01*
X147285500Y-119079234D01*
X147246281Y-118932865D01*
X147246279Y-118932861D01*
X147246279Y-118932860D01*
X147246179Y-118932686D01*
X147171991Y-118804189D01*
X147170915Y-118802190D01*
X147170518Y-118801639D01*
X147170516Y-118801637D01*
X147170515Y-118801635D01*
X147063365Y-118694485D01*
X147063362Y-118694483D01*
X147063360Y-118694481D01*
X147063359Y-118694480D01*
X146989426Y-118651795D01*
X146968390Y-118628432D01*
X146875347Y-118603503D01*
X146875346Y-118603502D01*
X146809768Y-118585931D01*
X146785766Y-118579500D01*
X146785765Y-118579500D01*
X146634235Y-118579500D01*
X146634234Y-118579500D01*
X146615304Y-118584572D01*
X146544652Y-118603502D01*
X146544652Y-118603503D01*
X146487860Y-118618720D01*
X146487858Y-118618720D01*
X146487854Y-118618722D01*
X146356643Y-118694477D01*
X146249480Y-118801640D01*
X146190790Y-118903294D01*
X146187925Y-118907954D01*
X146183193Y-118915194D01*
X146162554Y-118946972D01*
X146115002Y-118985474D01*
X146053900Y-118988673D01*
X146002587Y-118955347D01*
X146002429Y-118955002D01*
X146002381Y-118954971D01*
X146002215Y-118954537D01*
X145982105Y-118910647D01*
X145982077Y-118910492D01*
X145981036Y-118898877D01*
X145980621Y-118897786D01*
X145980859Y-118896905D01*
X145980500Y-118892893D01*
X145980500Y-118036013D01*
X145980500Y-118036008D01*
X145980499Y-118036004D01*
X145980498Y-118036002D01*
X145980426Y-118035418D01*
X145980036Y-118033676D01*
X145953580Y-117900672D01*
X145900775Y-117773189D01*
X145900774Y-117773187D01*
X145900771Y-117773182D01*
X145824114Y-117658458D01*
X145726541Y-117560885D01*
X145726540Y-117560884D01*
X145611824Y-117484232D01*
X145611801Y-117484219D01*
X145484329Y-117431420D01*
X145348995Y-117404500D01*
X145348993Y-117404500D01*
X145211007Y-117404500D01*
X145211004Y-117404500D01*
X145211003Y-117404500D01*
X145155876Y-117415465D01*
X145085234Y-117429518D01*
X145085227Y-117429518D01*
X145075668Y-117431419D01*
X144948204Y-117484216D01*
X144948197Y-117484219D01*
X144948174Y-117484232D01*
X144833458Y-117560884D01*
X144735884Y-117658458D01*
X144659232Y-117773174D01*
X144659219Y-117773197D01*
X144659216Y-117773204D01*
X144606421Y-117900665D01*
X144606421Y-117900666D01*
X144606420Y-117900673D01*
X144579617Y-118035418D01*
X144579500Y-118036004D01*
X132890500Y-118036004D01*
X132890500Y-103014108D01*
X164019500Y-103014108D01*
X164019500Y-103145892D01*
X164020600Y-103149997D01*
X164020600Y-103149999D01*
X164048248Y-103253184D01*
X164053609Y-103273191D01*
X164053610Y-103273193D01*
X164119494Y-103387307D01*
X164119496Y-103387309D01*
X164119498Y-103387311D01*
X164119500Y-103387314D01*
X164212686Y-103480500D01*
X164212688Y-103480501D01*
X164212690Y-103480503D01*
X164213237Y-103480898D01*
X164215239Y-103481975D01*
X164259207Y-103507359D01*
X164270040Y-103513614D01*
X164291634Y-103537596D01*
X164325944Y-103546174D01*
X164327548Y-103546588D01*
X164454108Y-103580500D01*
X164454110Y-103580500D01*
X164585890Y-103580500D01*
X164585892Y-103580500D01*
X164713186Y-103546392D01*
X164713188Y-103546390D01*
X164713190Y-103546390D01*
X164821179Y-103484041D01*
X164824064Y-103482642D01*
X164824853Y-103482122D01*
X164829858Y-103479031D01*
X164848907Y-103468033D01*
X164857858Y-103459539D01*
X164874054Y-103451288D01*
X164918994Y-103440500D01*
X167187336Y-103440500D01*
X167217927Y-103445345D01*
X167250360Y-103455882D01*
X167269263Y-103464298D01*
X167320041Y-103493614D01*
X167341635Y-103517597D01*
X167375944Y-103526174D01*
X167377548Y-103526588D01*
X167504108Y-103560500D01*
X167504110Y-103560500D01*
X167635890Y-103560500D01*
X167635892Y-103560500D01*
X167763186Y-103526392D01*
X167763188Y-103526390D01*
X167763190Y-103526390D01*
X167871190Y-103464035D01*
X167874067Y-103462639D01*
X167874853Y-103462122D01*
X167879862Y-103459028D01*
X167881161Y-103458277D01*
X167886519Y-103451294D01*
X167970500Y-103367314D01*
X168036392Y-103253186D01*
X168070500Y-103125892D01*
X168070500Y-102994108D01*
X168036392Y-102866814D01*
X168036390Y-102866811D01*
X168036390Y-102866809D01*
X168036383Y-102866798D01*
X168036066Y-102866094D01*
X168034812Y-102864076D01*
X167970503Y-102752690D01*
X167970501Y-102752688D01*
X167970500Y-102752686D01*
X167877314Y-102659500D01*
X167877311Y-102659498D01*
X167877309Y-102659496D01*
X167877302Y-102659492D01*
X167820476Y-102626683D01*
X167799442Y-102603321D01*
X167710534Y-102579500D01*
X167710533Y-102579499D01*
X167655891Y-102564858D01*
X167635892Y-102559500D01*
X167635891Y-102559500D01*
X167504109Y-102559500D01*
X167504108Y-102559500D01*
X167488335Y-102563726D01*
X167429466Y-102579499D01*
X167429466Y-102579500D01*
X167376809Y-102593609D01*
X167376807Y-102593609D01*
X167376803Y-102593611D01*
X167262694Y-102659492D01*
X167169497Y-102752689D01*
X167155794Y-102776423D01*
X167136301Y-102800494D01*
X167122199Y-102813191D01*
X167076562Y-102836450D01*
X167072417Y-102837332D01*
X167051812Y-102839500D01*
X165031913Y-102839500D01*
X165001318Y-102834654D01*
X164983266Y-102828788D01*
X164940290Y-102800878D01*
X164937460Y-102797735D01*
X164925295Y-102780992D01*
X164920500Y-102772686D01*
X164827314Y-102679500D01*
X164827311Y-102679498D01*
X164827309Y-102679496D01*
X164792675Y-102659500D01*
X164770476Y-102646683D01*
X164749442Y-102623322D01*
X164663799Y-102600375D01*
X164663798Y-102600374D01*
X164606766Y-102585093D01*
X164585892Y-102579500D01*
X164585891Y-102579500D01*
X164454109Y-102579500D01*
X164454108Y-102579500D01*
X164415154Y-102589937D01*
X164376199Y-102600375D01*
X164376198Y-102600374D01*
X164326807Y-102613609D01*
X164326805Y-102613610D01*
X164212694Y-102679492D01*
X164119492Y-102772694D01*
X164054221Y-102885747D01*
X164054220Y-102885749D01*
X164053609Y-102886809D01*
X164053608Y-102886814D01*
X164019500Y-103014108D01*
X132890500Y-103014108D01*
X132890500Y-101614108D01*
X162719500Y-101614108D01*
X162719500Y-101745892D01*
X162749579Y-101858151D01*
X162753609Y-101873190D01*
X162819496Y-101987309D01*
X162819498Y-101987311D01*
X162819500Y-101987314D01*
X162912686Y-102080500D01*
X162912688Y-102080501D01*
X162912690Y-102080503D01*
X162913237Y-102080898D01*
X162915239Y-102081975D01*
X162959207Y-102107359D01*
X162970040Y-102113614D01*
X162991634Y-102137596D01*
X163025944Y-102146174D01*
X163027548Y-102146588D01*
X163154108Y-102180500D01*
X163154110Y-102180500D01*
X163285890Y-102180500D01*
X163285892Y-102180500D01*
X163413186Y-102146392D01*
X163413188Y-102146390D01*
X163413190Y-102146390D01*
X163521190Y-102084035D01*
X163524067Y-102082639D01*
X163524856Y-102082120D01*
X163529866Y-102079026D01*
X163531159Y-102078279D01*
X163536517Y-102071296D01*
X163603765Y-102004048D01*
X163624258Y-101988323D01*
X163646064Y-101975733D01*
X163669935Y-101965845D01*
X163691675Y-101960021D01*
X163760197Y-101920460D01*
X163816146Y-101864511D01*
X168210460Y-97470197D01*
X168250021Y-97401675D01*
X168270500Y-97325248D01*
X168270500Y-85454411D01*
X168275344Y-85423823D01*
X168277918Y-85415899D01*
X168280126Y-85409104D01*
X168312991Y-85361948D01*
X168320862Y-85355743D01*
X168344255Y-85342030D01*
X168467598Y-85290941D01*
X168639655Y-85175977D01*
X168785977Y-85029655D01*
X168900941Y-84857598D01*
X168980130Y-84666420D01*
X169020500Y-84463465D01*
X169020500Y-84256535D01*
X168980130Y-84053580D01*
X168900941Y-83862402D01*
X168785977Y-83690345D01*
X168639655Y-83544023D01*
X168639651Y-83544020D01*
X168559251Y-83490299D01*
X168467594Y-83429056D01*
X168276418Y-83349869D01*
X168073469Y-83309500D01*
X168073467Y-83309500D01*
X168073465Y-83309500D01*
X167866535Y-83309500D01*
X167866532Y-83309500D01*
X167866529Y-83309500D01*
X167663581Y-83349869D01*
X167663579Y-83349869D01*
X167472404Y-83429056D01*
X167300351Y-83544017D01*
X167154017Y-83690351D01*
X167039056Y-83862404D01*
X166959869Y-84053579D01*
X166959869Y-84053581D01*
X166919500Y-84256529D01*
X166919500Y-84463469D01*
X166959869Y-84666417D01*
X166959869Y-84666419D01*
X167039055Y-84857593D01*
X167039057Y-84857595D01*
X167039058Y-84857597D01*
X167039059Y-84857598D01*
X167154023Y-85029655D01*
X167300345Y-85175977D01*
X167300348Y-85175979D01*
X167472402Y-85290941D01*
X167593900Y-85341267D01*
X167620308Y-85357450D01*
X167632073Y-85367498D01*
X167663060Y-85415899D01*
X167665781Y-85425544D01*
X167669500Y-85452424D01*
X167669500Y-97104526D01*
X167664654Y-97135119D01*
X167657107Y-97158346D01*
X167632957Y-97197757D01*
X165910590Y-98920124D01*
X165885529Y-98938331D01*
X165875786Y-98943295D01*
X165815354Y-98952865D01*
X165760838Y-98925086D01*
X165734577Y-98878191D01*
X165733234Y-98872596D01*
X165730500Y-98849489D01*
X165730500Y-85454411D01*
X165735344Y-85423823D01*
X165737918Y-85415899D01*
X165740126Y-85409104D01*
X165772991Y-85361948D01*
X165780862Y-85355743D01*
X165804255Y-85342030D01*
X165927598Y-85290941D01*
X166099655Y-85175977D01*
X166245977Y-85029655D01*
X166360941Y-84857598D01*
X166440130Y-84666420D01*
X166480500Y-84463465D01*
X166480500Y-84256535D01*
X166440130Y-84053580D01*
X166360941Y-83862402D01*
X166245977Y-83690345D01*
X166099655Y-83544023D01*
X166099651Y-83544020D01*
X166019251Y-83490299D01*
X165927594Y-83429056D01*
X165736418Y-83349869D01*
X165533469Y-83309500D01*
X165533467Y-83309500D01*
X165533465Y-83309500D01*
X165326535Y-83309500D01*
X165326532Y-83309500D01*
X165326529Y-83309500D01*
X165123581Y-83349869D01*
X165123579Y-83349869D01*
X164932404Y-83429056D01*
X164760351Y-83544017D01*
X164614017Y-83690351D01*
X164499056Y-83862404D01*
X164419869Y-84053579D01*
X164419869Y-84053581D01*
X164379500Y-84256529D01*
X164379500Y-84463469D01*
X164419869Y-84666417D01*
X164419869Y-84666419D01*
X164499055Y-84857593D01*
X164499057Y-84857595D01*
X164499058Y-84857597D01*
X164499059Y-84857598D01*
X164614023Y-85029655D01*
X164760345Y-85175977D01*
X164760348Y-85175979D01*
X164932402Y-85290941D01*
X165053900Y-85341267D01*
X165080308Y-85357450D01*
X165092073Y-85367498D01*
X165123060Y-85415899D01*
X165125781Y-85425544D01*
X165129500Y-85452424D01*
X165129500Y-99078840D01*
X165124654Y-99109433D01*
X165117107Y-99132660D01*
X165092957Y-99172071D01*
X164205611Y-100059417D01*
X164180554Y-100077621D01*
X164158796Y-100088708D01*
X164113849Y-100099500D01*
X163794001Y-100099500D01*
X163763407Y-100094654D01*
X163740181Y-100087107D01*
X163700772Y-100062957D01*
X163637312Y-99999498D01*
X163580476Y-99966683D01*
X163559442Y-99943322D01*
X163473799Y-99920375D01*
X163473798Y-99920374D01*
X163416766Y-99905093D01*
X163395892Y-99899500D01*
X163395891Y-99899500D01*
X163264109Y-99899500D01*
X163264108Y-99899500D01*
X163225154Y-99909937D01*
X163186199Y-99920375D01*
X163186198Y-99920374D01*
X163136807Y-99933609D01*
X163136805Y-99933610D01*
X163022694Y-99999492D01*
X162929492Y-100092694D01*
X162863608Y-100206809D01*
X162863330Y-100207545D01*
X162862784Y-100209886D01*
X162829500Y-100334108D01*
X162829500Y-100465892D01*
X162859579Y-100578151D01*
X162863609Y-100593190D01*
X162929496Y-100707309D01*
X162929498Y-100707311D01*
X162929500Y-100707314D01*
X163022686Y-100800500D01*
X163022688Y-100800501D01*
X163022690Y-100800503D01*
X163023237Y-100800898D01*
X163025239Y-100801975D01*
X163069207Y-100827359D01*
X163080040Y-100833614D01*
X163101634Y-100857596D01*
X163135944Y-100866174D01*
X163137548Y-100866588D01*
X163264108Y-100900500D01*
X163264110Y-100900500D01*
X163395890Y-100900500D01*
X163395892Y-100900500D01*
X163523186Y-100866392D01*
X163523188Y-100866390D01*
X163523190Y-100866390D01*
X163631190Y-100804035D01*
X163634067Y-100802639D01*
X163634856Y-100802120D01*
X163639866Y-100799026D01*
X163641160Y-100798278D01*
X163646520Y-100791294D01*
X163651632Y-100786180D01*
X163697232Y-100740580D01*
X163722290Y-100722375D01*
X163744055Y-100711287D01*
X163788994Y-100700500D01*
X163875527Y-100700500D01*
X163906118Y-100705345D01*
X163916518Y-100708724D01*
X163966019Y-100744687D01*
X163984927Y-100802878D01*
X163970336Y-100854611D01*
X163967328Y-100859519D01*
X163952922Y-100877791D01*
X163607268Y-101223443D01*
X163582212Y-101241648D01*
X163570325Y-101247705D01*
X163509893Y-101257277D01*
X163509886Y-101257276D01*
X163507917Y-101256964D01*
X163504774Y-101256466D01*
X163450261Y-101228680D01*
X163447230Y-101222729D01*
X163363799Y-101200375D01*
X163363798Y-101200374D01*
X163306766Y-101185093D01*
X163285892Y-101179500D01*
X163285891Y-101179500D01*
X163154109Y-101179500D01*
X163154108Y-101179500D01*
X163115154Y-101189937D01*
X163076199Y-101200375D01*
X163076198Y-101200374D01*
X163026807Y-101213609D01*
X163026805Y-101213610D01*
X162912694Y-101279492D01*
X162819492Y-101372694D01*
X162754221Y-101485747D01*
X162754220Y-101485749D01*
X162753609Y-101486809D01*
X162753608Y-101486814D01*
X162719500Y-101614108D01*
X132890500Y-101614108D01*
X132890500Y-87020245D01*
X138109500Y-87020245D01*
X138109500Y-89059753D01*
X138109501Y-89059758D01*
X138121132Y-89118227D01*
X138121133Y-89118231D01*
X138165448Y-89184552D01*
X138231769Y-89228867D01*
X138254000Y-89233289D01*
X138276228Y-89237711D01*
X138276231Y-89237711D01*
X138284159Y-89239288D01*
X138286324Y-89239861D01*
X138288514Y-89240217D01*
X138290081Y-89240500D01*
X138290252Y-89240500D01*
X138290253Y-89240500D01*
X140329747Y-89240500D01*
X140329748Y-89240500D01*
X140388231Y-89228867D01*
X140454552Y-89184552D01*
X140498867Y-89118231D01*
X140510500Y-89059748D01*
X140510500Y-87020252D01*
X140498867Y-86961769D01*
X140454552Y-86895448D01*
X140454548Y-86895445D01*
X140454544Y-86895442D01*
X140388232Y-86851133D01*
X140388227Y-86851131D01*
X140388025Y-86851063D01*
X140386488Y-86850786D01*
X140329768Y-86839503D01*
X140329758Y-86839501D01*
X140329753Y-86839500D01*
X140329750Y-86839500D01*
X140329748Y-86839500D01*
X138290252Y-86839500D01*
X138290251Y-86839500D01*
X138290245Y-86839500D01*
X138231778Y-86851130D01*
X138231763Y-86851135D01*
X138165454Y-86895442D01*
X138165442Y-86895454D01*
X138121135Y-86961763D01*
X138121130Y-86961778D01*
X138109500Y-87020245D01*
X132890500Y-87020245D01*
X132890500Y-83490294D01*
X159300000Y-83490294D01*
X159300000Y-83490299D01*
X159300000Y-84259999D01*
X159300001Y-84260000D01*
X159751000Y-84260000D01*
X159809191Y-84278907D01*
X159845155Y-84328407D01*
X159850000Y-84359000D01*
X159850000Y-84361000D01*
X159831093Y-84419191D01*
X159781593Y-84455155D01*
X159751000Y-84460000D01*
X159300001Y-84460000D01*
X159300000Y-84460001D01*
X159300000Y-84460002D01*
X159300000Y-85229704D01*
X159311602Y-85288033D01*
X159311603Y-85288036D01*
X159351180Y-85347267D01*
X159355806Y-85354189D01*
X159355810Y-85354193D01*
X159421963Y-85398396D01*
X159477958Y-85409533D01*
X159479711Y-85409926D01*
X159480297Y-85409998D01*
X159480299Y-85409999D01*
X159480303Y-85410000D01*
X160249998Y-85410000D01*
X160249999Y-85410000D01*
X160250000Y-85409999D01*
X160250000Y-84959000D01*
X160268907Y-84900809D01*
X160318407Y-84864845D01*
X160349000Y-84860000D01*
X160351000Y-84860000D01*
X160409191Y-84878907D01*
X160445155Y-84928407D01*
X160450000Y-84959000D01*
X160450000Y-85409999D01*
X160450001Y-85410000D01*
X160450002Y-85410000D01*
X161219697Y-85410000D01*
X161219699Y-85410000D01*
X161223617Y-85409363D01*
X161225792Y-85408787D01*
X161257271Y-85402526D01*
X161278032Y-85398397D01*
X161278032Y-85398396D01*
X161278036Y-85398396D01*
X161344189Y-85354193D01*
X161344193Y-85354189D01*
X161388396Y-85288036D01*
X161398787Y-85235792D01*
X161399363Y-85233617D01*
X161400000Y-85229698D01*
X161400000Y-84460002D01*
X161400000Y-84460001D01*
X161399999Y-84460000D01*
X161399998Y-84460000D01*
X160949000Y-84460000D01*
X160890809Y-84441093D01*
X160854845Y-84391593D01*
X160850000Y-84361000D01*
X160850000Y-84359000D01*
X160868907Y-84300809D01*
X160918407Y-84264845D01*
X160949000Y-84260000D01*
X161399998Y-84260000D01*
X161399999Y-84260000D01*
X161400000Y-84259999D01*
X161400000Y-84256529D01*
X161839500Y-84256529D01*
X161839500Y-84463469D01*
X161879869Y-84666417D01*
X161879869Y-84666419D01*
X161959055Y-84857593D01*
X161959057Y-84857595D01*
X161959058Y-84857597D01*
X161959059Y-84857598D01*
X162074023Y-85029655D01*
X162220345Y-85175977D01*
X162392402Y-85290941D01*
X162583580Y-85370130D01*
X162786535Y-85410500D01*
X162786536Y-85410500D01*
X162993464Y-85410500D01*
X162993465Y-85410500D01*
X163196420Y-85370130D01*
X163387598Y-85290941D01*
X163559655Y-85175977D01*
X163705977Y-85029655D01*
X163820941Y-84857598D01*
X163900130Y-84666420D01*
X163940500Y-84463465D01*
X163940500Y-84256535D01*
X163900130Y-84053580D01*
X163820941Y-83862402D01*
X163705977Y-83690345D01*
X163559655Y-83544023D01*
X163559651Y-83544020D01*
X163479251Y-83490299D01*
X163387594Y-83429056D01*
X163196418Y-83349869D01*
X162993469Y-83309500D01*
X162993467Y-83309500D01*
X162993465Y-83309500D01*
X162786535Y-83309500D01*
X162786532Y-83309500D01*
X162786529Y-83309500D01*
X162583581Y-83349869D01*
X162583579Y-83349869D01*
X162392404Y-83429056D01*
X162220351Y-83544017D01*
X162074017Y-83690351D01*
X161959056Y-83862404D01*
X161879869Y-84053579D01*
X161879869Y-84053581D01*
X161839500Y-84256529D01*
X161400000Y-84256529D01*
X161400000Y-83490302D01*
X161400000Y-83490300D01*
X161399364Y-83486383D01*
X161398786Y-83484202D01*
X161388396Y-83431965D01*
X161388396Y-83431963D01*
X161344193Y-83365810D01*
X161344189Y-83365806D01*
X161278036Y-83321603D01*
X161278033Y-83321602D01*
X161219704Y-83310000D01*
X161219700Y-83310000D01*
X160450001Y-83310000D01*
X160450000Y-83310001D01*
X160450000Y-83310002D01*
X160450000Y-83761000D01*
X160431093Y-83819191D01*
X160381593Y-83855155D01*
X160351000Y-83860000D01*
X160349000Y-83860000D01*
X160290809Y-83841093D01*
X160254845Y-83791593D01*
X160250000Y-83761000D01*
X160250000Y-83310002D01*
X160250000Y-83310001D01*
X160249999Y-83310000D01*
X160249998Y-83310000D01*
X159480294Y-83310000D01*
X159421965Y-83321602D01*
X159421962Y-83321603D01*
X159355813Y-83365803D01*
X159355803Y-83365813D01*
X159311603Y-83431962D01*
X159311602Y-83431965D01*
X159300000Y-83490294D01*
X132890500Y-83490294D01*
X132890500Y-82581244D01*
X132890513Y-82579635D01*
X132890514Y-82579567D01*
X132890543Y-82577850D01*
X132890580Y-82576360D01*
X132895656Y-82425581D01*
X132895859Y-82421776D01*
X132896148Y-82417835D01*
X132896502Y-82414023D01*
X132896681Y-82412440D01*
X132940679Y-82021951D01*
X132941262Y-82017651D01*
X132941962Y-82013236D01*
X132942743Y-82008928D01*
X133021148Y-81625998D01*
X133022135Y-81621676D01*
X133022261Y-81621174D01*
X133023226Y-81617347D01*
X133024402Y-81613090D01*
X133025195Y-81610453D01*
X133136804Y-81238773D01*
X133138156Y-81234610D01*
X133139648Y-81230346D01*
X133141180Y-81226264D01*
X133286714Y-80863452D01*
X133288427Y-80859445D01*
X133290301Y-80855320D01*
X133292179Y-80851422D01*
X133469657Y-80503105D01*
X133471704Y-80499301D01*
X133473943Y-80495353D01*
X133476215Y-80491554D01*
X133482463Y-80481611D01*
X133482464Y-80481610D01*
X133567955Y-80345550D01*
X138110000Y-80345550D01*
X138110000Y-80534448D01*
X138139544Y-80720991D01*
X138197914Y-80900635D01*
X138283527Y-81068662D01*
X138283660Y-81068927D01*
X138283671Y-81068945D01*
X138391381Y-81217193D01*
X138391382Y-81217194D01*
X138621095Y-80987479D01*
X138815731Y-80792845D01*
X138870248Y-80765067D01*
X138930680Y-80774638D01*
X138955735Y-80792841D01*
X138957154Y-80794260D01*
X138984930Y-80848775D01*
X138975359Y-80909207D01*
X138957153Y-80934265D01*
X138532803Y-81358614D01*
X138532804Y-81358616D01*
X138681053Y-81466327D01*
X138681068Y-81466336D01*
X138681318Y-81466462D01*
X138849364Y-81552085D01*
X139029003Y-81610453D01*
X139029004Y-81610453D01*
X139029007Y-81610454D01*
X139215552Y-81640000D01*
X139404445Y-81640000D01*
X139404448Y-81640000D01*
X139590991Y-81610454D01*
X139590992Y-81610453D01*
X139590996Y-81610453D01*
X139770635Y-81552085D01*
X139938934Y-81466333D01*
X140087194Y-81358615D01*
X139662846Y-80934267D01*
X139635069Y-80879750D01*
X139644640Y-80819318D01*
X139662843Y-80794262D01*
X139664261Y-80792844D01*
X139718776Y-80765069D01*
X139779208Y-80774640D01*
X139804266Y-80792845D01*
X140228615Y-81217194D01*
X140336333Y-81068934D01*
X140422085Y-80900635D01*
X140480453Y-80720996D01*
X140481186Y-80716367D01*
X140510000Y-80534448D01*
X140510000Y-80345550D01*
X140480454Y-80159007D01*
X140480453Y-80159003D01*
X140422085Y-79979364D01*
X140336462Y-79811318D01*
X140336336Y-79811068D01*
X140336327Y-79811053D01*
X140228616Y-79662804D01*
X140228614Y-79662803D01*
X139804265Y-80087153D01*
X139749749Y-80114930D01*
X139689317Y-80105359D01*
X139664261Y-80087155D01*
X139662842Y-80085736D01*
X139635067Y-80031222D01*
X139644638Y-79970790D01*
X139662845Y-79945731D01*
X139857479Y-79751095D01*
X140087194Y-79521382D01*
X140087193Y-79521381D01*
X139938945Y-79413671D01*
X139938927Y-79413660D01*
X139938662Y-79413527D01*
X139770635Y-79327914D01*
X139590991Y-79269544D01*
X139404448Y-79240000D01*
X139404445Y-79240000D01*
X139215555Y-79240000D01*
X139215552Y-79240000D01*
X139029006Y-79269545D01*
X138849363Y-79327914D01*
X138681331Y-79413530D01*
X138681079Y-79413656D01*
X138681056Y-79413670D01*
X138532804Y-79521381D01*
X138532803Y-79521382D01*
X138957154Y-79945733D01*
X138984931Y-80000249D01*
X138975360Y-80060681D01*
X138957154Y-80085740D01*
X138955740Y-80087154D01*
X138901223Y-80114931D01*
X138840791Y-80105360D01*
X138815733Y-80087154D01*
X138391382Y-79662803D01*
X138391381Y-79662804D01*
X138283670Y-79811056D01*
X138283656Y-79811079D01*
X138283530Y-79811331D01*
X138197914Y-79979363D01*
X138139544Y-80159007D01*
X138110000Y-80345550D01*
X133567955Y-80345550D01*
X133684152Y-80160620D01*
X133686563Y-80156969D01*
X133689115Y-80153287D01*
X133691714Y-80149711D01*
X133718196Y-80114931D01*
X133928480Y-79838750D01*
X133931208Y-79835327D01*
X133934095Y-79831870D01*
X133936937Y-79828616D01*
X134200690Y-79540059D01*
X134203706Y-79536904D01*
X134206911Y-79533700D01*
X134210066Y-79530684D01*
X134258910Y-79486040D01*
X134498617Y-79266937D01*
X134501871Y-79264095D01*
X134505329Y-79261208D01*
X134508729Y-79258496D01*
X134819766Y-79021671D01*
X134823289Y-79019112D01*
X134826970Y-79016562D01*
X134830618Y-79014153D01*
X135161592Y-78806189D01*
X135165390Y-78803921D01*
X135169247Y-78801732D01*
X135173118Y-78799648D01*
X135521395Y-78622192D01*
X135525382Y-78620273D01*
X135529458Y-78618422D01*
X135533514Y-78616690D01*
X135896251Y-78471185D01*
X135900338Y-78469650D01*
X135904623Y-78468151D01*
X135908775Y-78466803D01*
X136283123Y-78354392D01*
X136287341Y-78353227D01*
X136291689Y-78352131D01*
X136295977Y-78351152D01*
X136678912Y-78272746D01*
X136683244Y-78271960D01*
X136687630Y-78271265D01*
X136692016Y-78270672D01*
X137084036Y-78226501D01*
X137087882Y-78226144D01*
X137091751Y-78225861D01*
X137095583Y-78225656D01*
X137241536Y-78220741D01*
X137241539Y-78220742D01*
X137245594Y-78220605D01*
X137246278Y-78220582D01*
X137247849Y-78220542D01*
X137249653Y-78220512D01*
X137251238Y-78220500D01*
X173768754Y-78220500D01*
X173770352Y-78220512D01*
G37*
%TD.AperFunction*%
%TD*%
M02*
